<svg xmlns="http://www.w3.org/2000/svg" width="1000" height="1000" viewBox="0 0 1000 1000"><defs><style>.a{fill:#1d1d1b;}</style></defs><path class="a" d="M832,491v5c0,59-5.82,115-17.45,163C786.63,787,681.94,870,550.49,870h-2.33c-36.06,0-91.89-11-123.3-24C284.1,778,264.33,634,262,498c2.33-193,57-362,285-368C771.51,130,832,316,832,491Zm-78,19c0-58-6.23-111-13.72-147-21.2-88-63.59-197-192-197-133.43,0-174.58,108-194.53,197C346.23,408,340,462,340,516c0,155,44.89,318,207,318C714.1,834,754,657,754,510Z"/><path class="a" d="M454,514l28-40L902,824l-28,40Z"/></svg>