<svg xmlns="http://www.w3.org/2000/svg" width="1000" height="1000" viewBox="0 0 1000 1000"><defs><style>.a{fill:#1d1d1b;}</style></defs><path class="a" d="M574,833a598,598,0,0,1-83,27,349.44,349.44,0,0,1-83,10q-75.09,0-114-40C268,803.38,260,765.42,260,710.78V364.29H180.14l-30-34H260L305.61,154H340V330.25L530.09,330v34.05L340,364l-1,324.06q0,12,1.5,28t4,32a181,181,0,0,0,7,29.48Q356,791,362,798a143.77,143.77,0,0,0,27,26q16,12,35,12a98.29,98.29,0,0,0,34.5-6.51,245.55,245.55,0,0,0,34.5-16q17-9.51,34.5-20T562,773.87Z"/></svg>