<svg xmlns="http://www.w3.org/2000/svg" width="1000" height="1000" viewBox="0 0 1000 1000"><defs><style>.a{fill:#1d1d1b;}</style></defs><path class="a" d="M735,654c0,27-5,54-19,79-28,51-76,88-132,109-26,14-76,18-128,18H260V140H456c90,0,155,7,193,45,38,33,57,78,57,123,0,66-42,130-123,151v2C670,480,735,567,735,654ZM441,451c71,0,144-8,173-81,6-15,8-31,8-48,0-39-14-80-32-107-27-40-74-47-122-47-28,0-103,2-128,2V450C358,450,422,451,441,451Zm-5,382c148,0,221-86,221-173,0-90-78-182-229-182-14,0-74,1-88,2V830C358,832,420,833,436,833Z"/></svg>