<svg xmlns="http://www.w3.org/2000/svg" width="1000" height="1000" viewBox="0 0 1000 1000"><defs><style>.a{fill:#1d1d1b;}</style></defs><path class="a" d="M552,860H480q-4-17-11.5-39T461,772c-46,68-109.34,98-190,98-39.34,0-75-10.66-107-40a125.13,125.13,0,0,1-33.5-49c-7-18.66-12.5-39-12.5-61,0-132,126.66-153,142-157,14-4,60-11,108-13l90-6c0-23.33-2.84-51.33-8.5-72s-14-38.66-25-54a123,123,0,0,0-41-36.5Q359,368,326,368q-14,0-34,4t-43,10q-25,8-45,15a173.1,173.1,0,0,0-37,18l-22-30c73.33-38.66,143-55,209-55,122.66,0,184,63,184,195V734a515.57,515.57,0,0,0,4,66Q546,831,552,860ZM458,714V582c-37.34,4-71.3,4.17-96,6-54,4-82.34,13.34-97,20a145.94,145.94,0,0,0-40,27,79,79,0,0,0-27.5,36.5Q189,694,189,714a152,152,0,0,0,4.5,37q4.5,18,22.5,35,19,17,39.5,21a210.74,210.74,0,0,0,40.5,4q43,0,85-25a201.14,201.14,0,0,0,41.5-31A334.4,334.4,0,0,0,458,714Z"/><path class="a" d="M898,550,552,576c0,23.09,2.5,52.53,5.5,75.93a503.6,503.6,0,0,0,13,66.76,364.92,364.92,0,0,0,20,56.87Q602,800.78,617,815.61c.66,0,3.83,1.83,9.5,5.44s13.33,7.42,23,11.38a241.52,241.52,0,0,0,32,10.38,121.16,121.16,0,0,0,36.5,3.46q17-1,40.5-11.37t45-19.29q21.5-8.9,38.5-11.37t22,10.39l2,11.86q-33,14.84-69,29.67T715,871q-115,0-184-74.18a266.25,266.25,0,0,1-54-87Q458,660.35,458,598q0-60.31,16.5-109.29T523,403.19q31-37.57,67-55.39T677,330a399.9,399.9,0,0,1,85,8.9q41,8.91,73,43.52,29,31.66,45,77.64c10.66,30.66,18,58,18,85Zm-80-26c0-19.78-6.84-39.87-14.5-60a207.39,207.39,0,0,0-30-53.9,158.43,158.43,0,0,0-43-38.57Q706,356.7,680,356.7q-36,0-60.5,17.81T580,421c-8.9,17-27.31,67.94-31.25,117Z"/></svg>