<svg xmlns="http://www.w3.org/2000/svg" width="1000" height="1000" viewBox="0 0 1000 1000"><defs><style>.a{fill:#1d1d1b;}</style></defs><path class="a" d="M700,550,355,582.2a547.82,547.82,0,0,0,4.5,69.73,503.6,503.6,0,0,0,13,66.76,364.92,364.92,0,0,0,20,56.87Q404,800.78,419,815.61c.66,0,3.83,1.83,9.5,5.44s13.33,7.42,23,11.38a241.52,241.52,0,0,0,32,10.38,121.16,121.16,0,0,0,36.5,3.46q17-1,40.5-11.37t45-19.29q21.5-8.9,38.5-11.37t22,10.39l2,11.86q-33,14.84-69,29.67T517,871q-115,0-184-74.18a266.25,266.25,0,0,1-54-87Q260,660.35,260,598q0-60.31,16.5-109.29T325,403.19q31-37.57,67-55.39T479,330a399.9,399.9,0,0,1,85,8.9q41,8.91,73,43.52,29,31.66,45,77.64c10.66,30.66,18,58,18,85Zm-80-26c0-19.78-6.84-39.87-14.5-60a207.39,207.39,0,0,0-30-53.9,158.43,158.43,0,0,0-43-38.57Q508,356.7,482,356.7q-36,0-60.5,17.81T382,421c-10,19.13-32,81-32,135Z"/></svg>