<svg xmlns="http://www.w3.org/2000/svg" width="1000" height="1000" viewBox="0 0 1000 1000"><defs><style>.a{fill:#1d1d1b;}</style></defs><path class="a" d="M330,408q14-17,35.5-33.5C379.83,363.5,395,355,410,347c32-17,75.66-17,91-17q46,0,81,17t60,55c36.66,49.34,55,109,55,187q0,62-15,111.5A343.79,343.79,0,0,1,639,792q-26,38-61.5,59c-23.67,14-50.17,19-81.5,19-29.34,0-59.67-6.67-89-24a198.58,198.58,0,0,1-39.5-26.5Q351,805,341,783l-31,77H260V140h81Zm10,76.25V700c3.33,6.69,8.16,14.27,10.5,21.28a173.25,173.25,0,0,0,9.5,22.55,230.5,230.5,0,0,0,15.5,26q9.5,14,25.5,29.06,16,17,36.5,24a124.14,124.14,0,0,0,40.5,7,60.47,60.47,0,0,0,29-7.52A120.18,120.18,0,0,0,533.5,803a195.84,195.84,0,0,0,23-26.56Q567,761.86,576,747.83q20-32.07,28.5-72.66a407.68,407.68,0,0,0,8.5-83.69,489.35,489.35,0,0,0-6.5-82.17Q600,469.23,583,440.16a288.88,288.88,0,0,0-45-50.11Q512,367,481,367a87.42,87.42,0,0,0-40.5,10A152.22,152.22,0,0,0,404,403.58a334.12,334.12,0,0,0-33,37.58C360.33,455.19,348.66,469.56,340,484.25Z"/></svg>