<svg xmlns="http://www.w3.org/2000/svg" width="1000" height="1000" viewBox="0 0 1000 1000"><defs><style>.a{fill:#1d1d1b;}</style></defs><path class="a" d="M330,502q14,17,35.5,33.5C379.83,546.5,395,555,410,563c32,17,75.66,17,91,17q46,0,81-17t60-55c36.66-49.34,55-109,55-187q0-62-15-111.5A343.79,343.79,0,0,0,639,118q-26-38-61.5-59C553.83,45,527.33,40,496,40c-29.34,0-59.67,6.67-89,24a198.58,198.58,0,0,0-39.5,26.5Q351,105,341,127L310,50H260V860l80-20Zm10-76.25V210c3.33-6.69,8.16-14.27,10.5-21.28a173.25,173.25,0,0,1,9.5-22.55,230.5,230.5,0,0,1,15.5-26q9.5-14,25.5-29.06,16-17,36.5-24A124.14,124.14,0,0,1,478,80a60.47,60.47,0,0,1,29,7.52,120.18,120.18,0,0,1,26.5,19.53,195.84,195.84,0,0,1,23,26.56Q567,148.15,576,162.17q20,32.07,28.5,72.66a407.68,407.68,0,0,1,8.5,83.69,489.35,489.35,0,0,1-6.5,82.17Q600,440.77,583,469.84A288.88,288.88,0,0,1,538,520q-26,23-57,23a87.42,87.42,0,0,1-40.5-10A152.22,152.22,0,0,1,404,506.42a334.12,334.12,0,0,1-33-37.58C360.33,454.81,348.66,440.44,340,425.75Z"/></svg>