<svg xmlns="http://www.w3.org/2000/svg" width="1000" height="1000" viewBox="0 0 1000 1000"><defs><style>.a{fill:#1d1d1b;}</style></defs><path class="a" d="M403.51,443q-8,4-26.5,12.5a190.16,190.16,0,0,0-34,20q-15.51,11.5-20.5,25t15,28.5q4,3,14,4.5t22,3q12,1.5,24,2t20,.5h139q71,0,112,34,10,9,17.5,17a86.17,86.17,0,0,1,12.5,17,75.58,75.58,0,0,1,7.5,20q2.49,11,2.5,27,0,43-22,82a256.29,256.29,0,0,1-57,69A285.47,285.47,0,0,1,552,852.5Q509.5,870,469.51,870q-51,0-92-9.5t-71-29.5q-39-32-50.5-64t-1-62q10.5-30,40-57t72.5-48A230.77,230.77,0,0,1,327,577.5a402.39,402.39,0,0,1-34.5-26.5q-15-13-33-31,0-18,26-42.5t78-50.5h4q-50-23-78.5-64t-28.5-95q0-39,16-72a174.59,174.59,0,0,1,44-57q28-24,67-37.5t85-13.5q83,0,137,42h127l-4,46-87-10A160,160,0,0,1,672,215a169.76,169.76,0,0,1,8.5,53q0,39-15,71A158.79,158.79,0,0,1,623,394q-27.51,23-66,36t-84.5,13h-69Zm-62,301q0,47,22.93,69.5t56.81,26q33.88,3.5,74.26-8.5a294.59,294.59,0,0,0,74.27-33.5Q603.67,776,626.59,748t22.92-57q0-16-10.47-31a115.06,115.06,0,0,0-26.92-27,136.4,136.4,0,0,0-37.37-19,134.48,134.48,0,0,0-42.86-7H493.51q-14.46,0-27.4.5t-28.41.5H397.33q-8,0-17.44,11.5T362,650a254.18,254.18,0,0,0-14.45,43.5A211.47,211.47,0,0,0,341.51,744ZM470,109q-24.92,0-47.81,13.5A139.1,139.1,0,0,0,382.36,158,189,189,0,0,0,355,208.5,168.6,168.6,0,0,0,344.51,267,161.72,161.72,0,0,0,355,324a182.49,182.49,0,0,0,27.89,50,136,136,0,0,0,40.84,35A100,100,0,0,0,473,422a90.22,90.22,0,0,0,46.81-13,134.15,134.15,0,0,0,38.34-34.5,182,182,0,0,0,26.39-49,166.87,166.87,0,0,0-.5-115,196.73,196.73,0,0,0-27.39-51A145.81,145.81,0,0,0,517.31,123Q494.9,109,470,109Z"/></svg>