<svg xmlns="http://www.w3.org/2000/svg" width="1000" height="1000" viewBox="0 0 1000 1000"><defs><style>.a{fill:#1d1d1b;}</style></defs><path class="a" d="M497,420.32c30-30.43,60.7-55.58,89.7-69.48S645.52,330,676.2,330C773.52,330,821,390.54,821,505.67L820,860H744V529.82a444.57,444.57,0,0,0-4-62.65c-2.67-18.57-7.48-39.11-16.8-55.69q-17-22.87-32-33.81t-38-10.95q-17,0-34,8.45a182,182,0,0,0-34.5,22.88C573,407.66,560,421.59,548,433.86s-24.34,25-37,38.27l-3,2a69.61,69.61,0,0,1,2.5,14.42Q511,496,511,502l-1,358H434V526.84a444.57,444.57,0,0,0-4-62.65,150.25,150.25,0,0,0-18-52.71q-17-22.87-32-33.31t-40-10.45q-18,0-36,9.95A221.07,221.07,0,0,0,267,404q-19,16.43-39,36.8t-41,42.26L176,860H110l-.85-520.1L160,340l27,77.34q42-45.64,87-66.5T365,330Q469,330,497,420.32Z"/></svg>