<svg xmlns="http://www.w3.org/2000/svg" width="1000" height="1000" viewBox="0 0 1000 1000"><defs><style>.a{fill:#1d1d1b;}</style></defs><path class="a" d="M565,415.73c-29.39-10-55.49-31.41-84.5-41.88-33.94-12-91.72-3.58-120.5,14.29-24.95,16.54-28.8,57-30,84.74,1.66,46.45,32.11,54.69,72,69,57.07,15.62,130.19,32.8,171,76.86,15.58,14.77,24.2,34.34,29,56.17,42.25,187.88-212.2,234.84-336,164.56l11-66c41.22,21.82,80.35,57.24,129,58.14,51.22.37,111.16-10.66,128-64.55,8.06-23.41,11.39-51.3.5-73.41-18.61-40.47-56.28-50.9-100.5-66-39.34-16.53-72.81-20-106-39.91-41.13-21.34-70.14-64.18-68-111.84,3.54-155.75,203.65-166.07,322-124.16Z"/></svg>