<svg xmlns="http://www.w3.org/2000/svg" width="1000" height="1000" viewBox="0 0 1000 1000"><defs><style>.a{fill:#1d1d1b;}</style></defs><path class="a" d="M830,491v5c0,59-5.82,115-17.45,163C784.63,787,679.94,870,548.49,870h-2.33c-36.06,0-91.89-11-123.3-24C282.1,778,262.33,634,260,498c2.33-193,57-362,285-368C769.51,130,830,316,830,491Zm-78,19c0-58-6.23-111-13.72-147-21.2-88-63.59-197-192-197-133.43,0-174.58,108-194.53,197C344.23,408,338,462,338,516c0,155,44.89,318,207,318C712.1,834,752,657,752,510Z"/></svg>