<svg xmlns="http://www.w3.org/2000/svg" width="1000" height="1000" viewBox="0 0 1000 1000"><defs><style>.a{fill:#1d1d1b;}</style></defs><path class="a" d="M299,60h64L527,555,693,60h64q-47,143-87,264-17,51-33.5,102.5t-31,95q-14.5,43.5-25,76T566,643q-9,27-20.5,53t-24,49A486.35,486.35,0,0,1,496,787a283.93,283.93,0,0,1-24,31q-46,52-106,52a277.83,277.83,0,0,1-53.5-5A285.26,285.26,0,0,1,260,849l15-67a59,59,0,0,1,19.5,10.5q9.5,7.5,19,14.5a207.18,207.18,0,0,0,19,12.5Q342,825,351,825q23,0,41-9.5T427,788q8-9,15.5-25A385.7,385.7,0,0,0,457,727q7-20,14.5-42T487,643Z"/></svg>