<svg xmlns="http://www.w3.org/2000/svg" width="1000" height="1000" viewBox="0 0 1000 1000"><defs><style>.a{fill:#1d1d1b;}</style></defs><path class="a" d="M490,554,147,585a560,560,0,0,0,4.5,70.5,514.38,514.38,0,0,0,13,67.5,371.6,371.6,0,0,0,20,57.5Q196,806,211,821q1,0,9.5,5.5a145.67,145.67,0,0,0,23,11.5,239.77,239.77,0,0,0,32,10.5A120.2,120.2,0,0,0,312,852q17-1,40.5-11.5t45-19.5q21.5-9,38.5-11.5T458,820l2,12q-33,15-69,30t-82,15q-115,0-184-75a269.8,269.8,0,0,1-54-88Q52,664,52,601q0-61,16.5-110.5T117,404q31-38,67-56t87-18a395.41,395.41,0,0,1,85,9q41,9,73,44,29,32,45,78.5T490,549Zm-81-28q0-30-11.5-60.5a210.16,210.16,0,0,0-30-54.5,159,159,0,0,0-43-39Q300,357,274,357q-36,0-60.5,18T174,422q-15,29-21.5,65a477.91,477.91,0,0,0-7.5,72ZM190,212l219-30v42L190,248Z"/><path class="a" d="M958,863H886q-4-17-11.5-39T867,775Q798,877,677,877q-59,0-107-44a125.13,125.13,0,0,1-33.5-49Q526,756,526,723q0-41,17-72a76.28,76.28,0,0,1,18-29,176.28,176.28,0,0,1,29-23,140,140,0,0,1,33.5-19A334.55,334.55,0,0,1,666,566a377.59,377.59,0,0,1,48-10q27-4,60-6l90-9a248.94,248.94,0,0,0-8.5-66q-8.5-31-25-54a123,123,0,0,0-41-36.5Q765,371,732,371q-14,0-34,4t-43,10q-25,8-45,15a173.1,173.1,0,0,0-37,18l-22-30q110-58,209-58,184,0,184,198V737a515.57,515.57,0,0,0,4,66Q952,834,958,863ZM864,717V577q-56,6-93,9.5T713,596a247.26,247.26,0,0,0-42,15,145.94,145.94,0,0,0-40,27,79,79,0,0,0-27.5,36.5Q595,697,595,717a152,152,0,0,0,4.5,37q4.5,18,22.5,35,19,17,39.5,21a210.74,210.74,0,0,0,40.5,4q43,0,85-25a201.14,201.14,0,0,0,41.5-31A334.4,334.4,0,0,0,864,717ZM768,214,656,278l-18-35,130-64,132,64-17,35Z"/></svg>