<svg xmlns="http://www.w3.org/2000/svg" width="1000" height="1000" viewBox="0 0 1000 1000"><defs><style>.a{fill:#1d1d1b;}</style></defs><path class="a" d="M500,150l-14,56.21a111.59,111.59,0,0,1-25-9,255.22,255.22,0,0,1-23-13,241.62,241.62,0,0,0-21-12,44.35,44.35,0,0,0-20-5c-25.34,0-40.72,1.16-51,20.06-6,11-6,106.71-6,144.82v8H483v34.09H340L327,860H260V374.29H197V360.86l63-20.66V322c0-14.7-.17-30.39,1.5-46.1s3.83-30.58,6.5-44.62a262.4,262.4,0,0,1,10-38.11q6-17,14-26.07Q323,130,397,130a273,273,0,0,1,50.5,5C465.16,138.37,480.66,144,500,150Z"/></svg>