<svg xmlns="http://www.w3.org/2000/svg" width="1000" height="1000" viewBox="0 0 1000 1000"><defs><style>.a{fill:#1d1d1b;}</style></defs><path class="a" d="M501.5,870q-50.12,0-93.7-18.23a229.17,229.17,0,0,1-76.66-52.23q-33.08-34-52.11-82.77T260,607.88q0-63,17-114.3t48.61-87.7a213.71,213.71,0,0,1,76.16-56.17Q446.38,330,501.5,330t99.7,19.71a216.76,216.76,0,0,1,76.16,55.67q31.54,36,48.59,87.21T743,606.9q0,60.12-19,108.88t-52.11,82.78A236.49,236.49,0,0,1,501.5,870Zm0-33.5c57.32,1,95.92-39.82,122.1-84.75,41.2-71.66,46-156.64,32.17-233.54-29.67-212.56-282.61-210.63-309.56,1.48-6.74,54.41-11,99.41,3.57,156.68C368.58,747.8,414.29,836,501.5,836.5Z"/></svg>