<svg xmlns="http://www.w3.org/2000/svg" width="1000" height="1000" viewBox="0 0 1000 1000"><defs><style>.a{fill:#1d1d1b;}</style></defs><path class="a" d="M694,860H622q-4-17-11.5-39T603,772c-46,68-109.34,98-190,98-39.34,0-75-10.66-107-40a125.13,125.13,0,0,1-33.5-49c-7-18.66-12.5-39-12.5-61,0-132,126.66-153,142-157a377.59,377.59,0,0,1,48-10q27-4,60-6l90-9a248.94,248.94,0,0,0-8.5-66q-8.5-31-25-54a123,123,0,0,0-41-36.5Q501,368,468,368q-14,0-34,4t-43,10q-25,8-45,15a173.1,173.1,0,0,0-37,18l-22-30c73.33-38.66,143-55,209-55,122.66,0,184,63,184,195V734a515.57,515.57,0,0,0,4,66Q688,831,694,860ZM600,714V574q-56,6-93,9.5T449,593a247.26,247.26,0,0,0-42,15,145.94,145.94,0,0,0-40,27,79,79,0,0,0-27.5,36.5Q331,694,331,714a152,152,0,0,0,4.5,37q4.5,18,22.5,35,19,17,39.5,21a210.74,210.74,0,0,0,40.5,4q43,0,85-25a201.14,201.14,0,0,0,41.5-31A334.4,334.4,0,0,0,600,714Z"/></svg>