<svg xmlns="http://www.w3.org/2000/svg" width="1000" height="1000" viewBox="0 0 1000 1000"><defs><style>.a{fill:#1d1d1b;}</style></defs><path class="a" d="M915,550,570,582.2a547.82,547.82,0,0,0,4.5,69.73,503.6,503.6,0,0,0,13,66.76,364.92,364.92,0,0,0,20,56.87Q619,800.78,634,815.61c.66,0,3.83,1.83,9.5,5.44s13.33,7.42,23,11.38a241.52,241.52,0,0,0,32,10.38,121.16,121.16,0,0,0,36.5,3.46q17-1,40.5-11.37t45-19.29q21.5-8.9,38.5-11.37t22,10.39l2,11.86q-33,14.84-69,29.67T732,871q-115,0-184-74.18a266.25,266.25,0,0,1-54-87Q475,660.35,475,598q0-60.31,16.5-109.29T540,403.19q31-37.57,67-55.39T694,330a399.9,399.9,0,0,1,85,8.9q41,8.91,73,43.52,29,31.66,45,77.64c10.66,30.66,18,58,18,85Zm-80-26c0-19.78-6.84-39.87-14.5-60a207.39,207.39,0,0,0-30-53.9,158.43,158.43,0,0,0-43-38.57Q723,356.7,697,356.7q-36,0-60.5,17.81T597,421c-10,19.13-32,81-32,135Z"/><path class="a" d="M311.5,870q-50.12,0-93.7-18.23a229.17,229.17,0,0,1-76.66-52.23q-33.07-34-52.11-82.77T70,607.88q0-63,17-114.3t48.61-87.7a213.71,213.71,0,0,1,76.16-56.17Q256.38,330,311.5,330t99.7,19.71a216.76,216.76,0,0,1,76.16,55.67q31.54,36,48.59,87.21T553,606.9q0,60.12-19,108.88t-52.11,82.78A236.49,236.49,0,0,1,311.5,870Zm0-33.5c57.32,1,95.92-39.82,122.1-84.75,41.2-71.66,46-156.64,32.17-233.54-29.67-212.56-282.61-210.63-309.56,1.48-6.74,54.41-11,99.41,3.57,156.68C178.58,747.8,224.29,836,311.5,836.5Z"/></svg>