<svg xmlns="http://www.w3.org/2000/svg" width="1000" height="1000" viewBox="0 0 1000 1000"><defs><style>.a{fill:#1d1d1b;}</style></defs><path class="a" d="M503,246q60,0,104,19t76,61q62,79,62,232,0,78-15.5,135T683,792q-32,39-76,59.5T503,872q-60,0-104-20.5T323,792q-61-82-61-234t61-232q32-42,76-61T503,246Zm0,596q39,0,68-21t48.5-58.5Q639,725,648.5,673T658,558q0-63-9.5-114.5t-29-89Q600,317,571,296.5T503,276q-40,0-69,20.5t-48,58q-19,37.5-28,89T349,558q0,63,9,115t28,89.5Q405,800,434,821T503,842ZM475,190l-69-55,85-1,49,56Z"/></svg>