<svg xmlns="http://www.w3.org/2000/svg" width="1000" height="1000" viewBox="0 0 1000 1000"><defs><style>.a{fill:#1d1d1b;}</style></defs><path class="a" d="M530.77,164h-2.46C479.08,164,432,156,372,214c-22.89,22.13-42,70-42,99,0,119,286.92,131,366.92,231C725.23,578,740,610,740,650c0,143-132.92,220-275.69,220-66.46,0-132.92-9-192-37l24.61-67c49.23,25,100.93,67,173.54,67C516,833,560,834,606,802c40.36-28.07,62-99,62-141,0-128-213.23-149-308-211-50.46-33-100-78-100-132,0-130,131.69-188,270.77-188,59.08,0,115.69,6,166.15,21l-30.77,65C621.85,196,583.69,166,530.77,164Z"/></svg>