<svg xmlns="http://www.w3.org/2000/svg" width="1000" height="1000" viewBox="0 0 1000 1000"><defs><style>.a{fill:#1d1d1b;}</style></defs><path class="a" d="M657,836.5a229.57,229.57,0,0,1-34,14.73,300.2,300.2,0,0,1-39.5,10.66q-20.5,4-41.5,6.08t-40,2a257,257,0,0,1-94.5-18.23,204.9,204.9,0,0,1-79.69-55.68Q260,723.19,260,600q0-124.15,67.81-196.09Q394,330,502,330q35,0,78.5,7.39t76.5,20.2l-25,68a201.9,201.9,0,0,1-33-17.24Q581,397,564,386.17a317.81,317.81,0,0,0-33.5-18.72q-16.5-7.89-28.5-7.89-40,0-66.5,16.72T386,419.55c-8,9.84-46,48.41-46,180,0,101,30.33,138.66,51,166.19q23,30.49,48,50.64t63,20.16q16,0,33.5-7.89a378,378,0,0,0,36-18.72Q590,799.06,608,787.72a173,173,0,0,1,35-17.25Z"/></svg>