<svg xmlns="http://www.w3.org/2000/svg" width="1000" height="1000" viewBox="0 0 1000 1000"><defs><style>.a{fill:#1d1d1b;}</style></defs><path class="a" d="M260.9,947.89a74.06,74.06,0,0,0,29-5.5,108.78,108.78,0,0,0,24-14,146,146,0,0,0,19.5-18,168.78,168.78,0,0,0,14.5-18.5q7-9,9.5-15.5a49.23,49.23,0,0,0,3-14.5,190.67,190.67,0,0,0,0-19.5q-.51-11.5-.5-30.5v-403l-17-153,82-24,3,177-2,409q0,77-38,110.5t-127,31.5Zm83-827q0-17,12.5-29.5t29.5-12.5q17,0,29.5,12.5t12.5,29.5q0,17-12.5,29.5t-29.5,12.5q-17,0-29.5-12.5T343.9,120.89Z"/></svg>