<svg xmlns="http://www.w3.org/2000/svg" width="1000" height="1000" viewBox="0 0 1000 1000"><defs><style>.a{fill:#1d1d1b;}</style></defs><path class="a" d="M548,554,205,585a560,560,0,0,0,4.5,70.5,514.38,514.38,0,0,0,13,67.5,371.6,371.6,0,0,0,20,57.5Q254,806,269,821q1,0,9.5,5.5a145.67,145.67,0,0,0,23,11.5,239.77,239.77,0,0,0,32,10.5A120.2,120.2,0,0,0,370,852q17-1,40.5-11.5t45-19.5q21.5-9,38.5-11.5T516,820l2,12q-33,15-69,30t-82,15q-115,0-184-75a269.8,269.8,0,0,1-54-88q-19-50-19-113,0-61,16.5-110.5T175,404q31-38,67-56t87-18a395.41,395.41,0,0,1,85,9q41,9,73,44,29,32,45,78.5T548,549Zm-81-28q0-30-11.5-60.5a210.16,210.16,0,0,0-30-54.5,159,159,0,0,0-43-39Q358,357,332,357q-36,0-60.5,18T232,422q-15,29-21.5,65a477.91,477.91,0,0,0-7.5,72Zm0-278L248,224V182l219,30Z"/></svg>