<svg xmlns="http://www.w3.org/2000/svg" width="1000" height="1000" viewBox="0 0 1000 1000"><defs><style>.a{fill:#1d1d1b;}</style></defs><path class="a" d="M630,408q-14-17-35.5-33.5C580.17,363.5,565,355,550,347c-32-17-75.66-17-91-17q-46,0-81,17t-60,55c-36.66,49.34-55,109-55,187q0,62,15,111.5A343.79,343.79,0,0,0,321,792q26,38,61.5,59c23.67,14,50.17,19,81.5,19,29.34,0,59.67-6.67,89-24a198.58,198.58,0,0,0,39.5-26.5Q609,805,619,783l31,77h50V140H619Zm-10,76.25V700c-3.33,6.69-8.16,14.27-10.5,21.28a173.25,173.25,0,0,1-9.5,22.55,230.5,230.5,0,0,1-15.5,26q-9.5,14-25.5,29.06-16,17-36.5,24a124.14,124.14,0,0,1-40.5,7,60.47,60.47,0,0,1-29-7.52A120.18,120.18,0,0,1,426.5,803a195.84,195.84,0,0,1-23-26.56Q393,761.86,384,747.83q-20-32.07-28.5-72.66a407.68,407.68,0,0,1-8.5-83.69,489.35,489.35,0,0,1,6.5-82.17Q360,469.23,377,440.16a288.88,288.88,0,0,1,45-50.11q26-23,57-23.05a87.42,87.42,0,0,1,40.5,10A152.22,152.22,0,0,1,556,403.58a334.12,334.12,0,0,1,33,37.58C599.67,455.19,611.34,469.56,620,484.25Z"/></svg>