<svg xmlns="http://www.w3.org/2000/svg" width="1000" height="1000" viewBox="0 0 1000 1000"><defs><style>.a{fill:#1d1d1b;}</style></defs><path class="a" d="M627,502q-14,17-35.5,33.5C577.17,546.5,562,555,547,563c-32,17-75.66,17-91,17q-46,0-81-17t-60-55c-36.66-49.34-55-109-55-187q0-62,15-111.5A343.79,343.79,0,0,1,318,118q26-38,61.5-59c23.67-14,50.17-19,81.5-19,29.34,0,59.67,6.67,89,24a198.58,198.58,0,0,1,39.5,26.5Q606,105,616,127l31-77h50V860l-80-20Zm-10-76.25V210c-3.33-6.69-8.16-14.27-10.5-21.28a173.25,173.25,0,0,0-9.5-22.55,230.5,230.5,0,0,0-15.5-26q-9.5-14-25.5-29.06-16-17-36.5-24A124.14,124.14,0,0,0,479,80a60.47,60.47,0,0,0-29,7.52,120.18,120.18,0,0,0-26.5,19.53,195.84,195.84,0,0,0-23,26.56Q390,148.15,381,162.17q-20,32.07-28.5,72.66a407.68,407.68,0,0,0-8.5,83.69,489.35,489.35,0,0,0,6.5,82.17Q357,440.77,374,469.84A288.88,288.88,0,0,0,419,520q26,23,57,23a87.42,87.42,0,0,0,40.5-10A152.22,152.22,0,0,0,553,506.42a334.12,334.12,0,0,0,33-37.58C596.67,454.81,608.34,440.44,617,425.75Z"/></svg>