<?xml version="1.0" encoding="UTF-8"?>
<!DOCTYPE svg  PUBLIC '-//W3C//DTD SVG 1.1//EN'  'http://www.w3.org/Graphics/SVG/1.1/DTD/svg11.dtd'>
<svg version="1.1" xmlns="http://www.w3.org/2000/svg">
<defs>
<font id="KamePoster-Regular" horiz-adv-x="490">
<font-face font-family="Kame Poster" font-stretch="condensed" font-weight="400" ascent="800" bbox="-100 -221 903 961" cap-height="720" descent="-200" panose-1="2 0 5 3 0 0 0 0 0 0" underline-position="-100" underline-thickness="50" unicode-range="U+0020-20AC" units-per-em="1000" x-height="720"/>
<missing-glyph/>
<glyph glyph-name="space" horiz-adv-x="230" unicode=" "/>
<glyph d="M87 -10q-26 0 -38 25q-4 9 -4 17q0 26 25 38q9 4 17 4q26 0 38 -25q4 -9 4 -17q0 -26 -25 -38q-9 -4 -17 -4zM68 220q-13 241 -28 500h82l5 -185l-17 -315h-42z" glyph-name="exclam" horiz-adv-x="169" unicode="!"/>
<glyph d="M40 550v66l3 104h60l-27 -170h-36zM160 550v66l3 104h60l-27 -170h-36z" glyph-name="quotedbl" horiz-adv-x="263" unicode='"'/>
<glyph d="M302 453l-38 -183h138l52 197zM458 203l-42 -202h-72l56 217l-150 -15l-42 -202h-72l56 217l-112 -15v67h112l54 197l-166 -14v66h164l44 200h72l-44 -200h136l44 200h72l-42 -200h94v-66h-108l-40 -183h148v-67h-162z" glyph-name="numbersign" horiz-adv-x="700" unicode="#"/>
<glyph d="M199 442l-27 222q-19 -14 -28 -28q-24 -34 -24 -89q1 -60 79 -105zM253 332l34 -281q12 9 23 19q41 43 42 129q0 76 -86 126q-7 4 -13 7zM370 644q-10 5 -28 18q-52 34 -84 34q-23 0 -48 -11l32 -265q87 -44 111 -61q27 -21 42 -43q35 -52 35 -106q0 -122 -93 -183 q-21 -13 -44 -22l7 -59l-39 -5l-7 54q-27 -5 -48 -5q-93 1 -156 37l20 67q9 -6 27 -19q60 -42 99 -47q8 -1 15 -1q20 0 38 6l-39 321q-77 37 -99 54q-70 58 -71 134q0 116 104 164q11 5 22 9l-6 50l39 4l6 -44q30 5 55 5q78 0 135 -21z" glyph-name="dollar" horiz-adv-x="470" unicode="$"/>
<glyph d="M427 173q0 -49 55 -73q26 -11 53 -11q58 0 91 44q16 22 16 43q0 39 -41 66q-28 18 -62 18q-60 0 -94 -38q-18 -22 -18 -49zM537 320q71 0 103 -70q16 -36 16 -76q0 -80 -57 -121q-30 -21 -64 -21q-60 0 -97 54q-26 39 -26 89q0 74 49 117q33 28 76 28zM96 541 q0 -50 56 -73q25 -11 52 -11q57 0 90 44q16 22 16 43q0 38 -40 65q-28 19 -62 19q-60 0 -94 -38q-18 -22 -18 -49zM206 688q71 0 103 -70q16 -36 16 -76q0 -80 -57 -121q-30 -21 -64 -21q-58 0 -96 53q-28 39 -28 90q0 74 49 117q33 28 77 28zM430 720h68l-195 -720h-66z " glyph-name="percent" horiz-adv-x="736" unicode="%"/>
<glyph d="M174 596q0 -61 55 -125q4 -6 23 -27q60 43 78 65q16 20 24 42q7 19 7 44q0 66 -51 103q-6 4 -11 7q-18 9 -33 9q-38 -1 -65 -37q-27 -37 -27 -81zM390 164l-156 219q-64 -46 -86 -94q-24 -48 -24 -97q0 -94 55 -141q33 -27 77 -27q70 0 112 76q16 31 22 64zM585 26 q10 0 38 5v-31h-72q-21 0 -33 9q-21 14 -69 79q-2 3 -3 4q-78 -102 -192 -102q-91 1 -152 58q-61 56 -62 142q1 60 38 109q36 49 125 113l6 4q-52 59 -58 67q-41 56 -41 110q0 83 79 119q10 5 20 8q28 10 61 10q90 0 132 -58q24 -34 24 -77q0 -71 -68 -124q-12 -10 -38 -28 q-32 -21 -46 -33l152 -184q41 107 60 140q7 12 14 22q15 22 30 35q52 -18 92 -18v-55q-7 0 -14 0.5t-15 2.5t-12.5 3t-14 4t-12 4t-13.5 5l-11 4q-29 -119 -51 -212q2 -3 53 -89q4 -5 6 -9q20 -33 40 -36q4 -1 7 -1z" glyph-name="ampersand" horiz-adv-x="663" unicode="&amp;"/>
<glyph d="M40 550v66l3 104h60l-27 -170h-36z" glyph-name="quotesingle" horiz-adv-x="143" unicode="'"/>
<glyph d="M343 -21l-31 -22q-113 79 -173 182q-59 106 -59 219q1 117 59 219q61 104 173 181l21 -31q-92 -76 -134 -159q-41 -88 -41 -207v-2v-2q0 -129 43 -212q43 -84 142 -166z" glyph-name="parenleft" horiz-adv-x="423" unicode="("/>
<glyph d="M80 -21q100 83 142 166q43 83 43 212v2v2q0 120 -41 207q-43 84 -134 159l21 31q113 -78 173 -181q59 -103 59 -219q-1 -114 -59 -219q-61 -104 -173 -182z" glyph-name="parenright" horiz-adv-x="423" unicode=")"/>
<glyph d="M303 535l-101 75l5 -128h-46l5 128l-102 -76l-24 41l114 67l-114 67l24 41l102 -77l-5 127h46l-5 -126l101 76l25 -41l-112 -67l112 -67z" glyph-name="asterisk" horiz-adv-x="368" unicode="*"/>
<glyph d="M285 387h175v-61h-175v-176h-64v176h-181v61h181v183h64v-183z" glyph-name="plus" horiz-adv-x="500" unicode="+"/>
<glyph d="M40 -81v18q38 26 39 43q0 15 -26 19v71h79q0 -37 -9.5 -66.5t-23 -44.5t-27 -25t-22.5 -12z" glyph-name="comma" horiz-adv-x="172" unicode=","/>
<glyph d="M40 328v58h204v-58h-204z" glyph-name="hyphen" horiz-adv-x="284" unicode="-"/>
<glyph d="M82 -10q-26 0 -38 25q-4 9 -4 17q0 26 25 38q9 4 17 4q26 0 38 -25q4 -9 4 -17q0 -26 -25 -38q-9 -4 -17 -4z" glyph-name="period" horiz-adv-x="164" unicode="."/>
<glyph d="M273 720h68l-195 -720h-66z" glyph-name="slash" horiz-adv-x="421" unicode="/"/>
<glyph d="M356 354v6q0 23 1 70q2 49 2 72q0 131 -47 168q-27 20 -66 20q-93 0 -109 -145q-4 -39 -4 -98q0 -15 1 -46v-41q0 -18 -1 -57q-1 -42 -1 -62q0 -146 48 -188q27 -23 67 -23q94 0 106 176q3 36 3 87v61zM450 360q0 -263 -95 -336q-45 -34 -109 -34q-155 0 -192 186 q-14 70 -14 184q0 238 78 320q49 50 128 50q147 0 186 -144q18 -69 18 -226z" glyph-name="zero" unicode="0"/>
<glyph d="M40 0v40l60 -7v496l-6 120l-54 -10v40l130 51l10 -202l-8 -498l68 10v-40h-200z" glyph-name="one" horiz-adv-x="280" unicode="1"/>
<glyph d="M51 690q93 40 159 40q120 0 178 -82q12 -17 20 -36q16 -37 16 -82q-1 -142 -142 -286q-19 -20 -60 -62q-79 -82 -116 -123l328 14v-73h-394v60q144 160 177 202q32 40 61 80q76 105 77 185q0 95 -73 135q-37 21 -85 21q-19 -1 -59 -25q-48 -29 -78 -40z" glyph-name="two" horiz-adv-x="474" unicode="2"/>
<glyph d="M477 203q0 -96 -86 -159q-75 -54 -171 -54q-101 1 -180 58l24 68q9 -7 28 -24q58 -52 95 -62q15 -4 28 -4q90 0 144 67q38 47 38 103q0 82 -81 138q-56 40 -116 42l10 37h7q81 0 120 58q21 33 21 73q0 79 -44 121q-26 22 -59 25q-43 -6 -118 -56q-20 -15 -29 -20l-26 67 q68 49 173 49q98 0 151 -69q36 -47 36 -110q-1 -110 -124 -151q78 -19 126 -91q33 -51 33 -106z" glyph-name="three" horiz-adv-x="517" unicode="3"/>
<glyph d="M350 620l-250 -400h250v400zM350 170h-310v60l300 490h80v-500l90 6v-56h-90v-140l70 10v-40h-210v40l70 -10v140z" glyph-name="four" horiz-adv-x="550" unicode="4"/>
<glyph d="M128 430q37 8 95 8q101 -1 160 -61q64 -68 64 -155q0 -102 -82 -173q-70 -61 -157 -61q-73 0 -156 33q-7 3 -12 5l15 71q5 -2 64 -40q51 -33 89 -33q74 0 125 74q39 57 39 124q0 90 -63 138q-40 30 -92 30q-34 0 -63 -25q-2 -2 -7 -6q-7 -6 -10 -9l-56 26v344h296v-70 l-230 10z" glyph-name="five" horiz-adv-x="487" unicode="5"/>
<glyph d="M412 178q0 81 -50 134q-38 39 -87 39q-74 0 -111 -76q-21 -43 -21 -94q0 -82 52 -133q37 -36 86 -36q69 0 108 71q23 44 23 95zM131 331q63 43 150 43q120 0 183 -74q43 -51 43 -122q-1 -79 -64 -135q-64 -53 -164 -53q-99 1 -162 53q-77 67 -77 233q0 147 50 280 t159 165q31 9 64 9q84 0 145 -26l-13 -60q-12 4 -62 33q-38 21 -67 21q-42 -1 -82 -34q-79 -66 -94 -171q-7 -48 -9 -162z" glyph-name="six" horiz-adv-x="547" unicode="6"/>
<glyph d="M360 653q-64 -132 -87 -196q-81 -225 -89 -427l71 10v-40h-205v41l60 -11q2 32 14 101q26 152 84 316q33 98 85 221l-253 -10v62l320 -10v-57z" glyph-name="seven" horiz-adv-x="400" unicode="7"/>
<glyph d="M276 393q57 0 96 56q28 42 28 93q0 78 -50 131q-36 35 -79 36q-72 0 -102 -77q-14 -36 -14 -77q0 -86 48 -133q31 -29 73 -29zM414 181q0 80 -49 136q-39 44 -91 45q-69 0 -112 -72q-28 -47 -28 -100q0 -91 64 -144q39 -32 81 -32q53 0 95 52q40 49 40 115zM513 188 q0 -87 -76 -147q-29 -23 -64 -37q-36 -14 -95 -14q-91 0 -154 42q-9 6 -16 12q-66 62 -68 138q0 88 68 148q43 38 100 50q-95 23 -130 102q-14 32 -14 66q0 83 70 137q27 19 59 31q38 14 85 14q96 0 158 -59q53 -50 53 -124q0 -81 -66 -132q-34 -25 -75 -35q92 -22 137 -93 q28 -45 28 -99z" glyph-name="eight" horiz-adv-x="553" unicode="8"/>
<glyph d="M135 552q0 -81 49 -134q38 -38 87 -39q75 0 112 75q21 43 21 93q0 100 -69 144q-32 19 -68 19q-69 0 -107 -59q-25 -41 -25 -99zM416 399q-64 -43 -150 -43q-132 0 -193 89q-9 14 -16 28q-17 37 -17 79q1 80 64 135q63 52 161 53q192 0 233 -182q10 -46 10 -100 q0 -150 -51 -285q-12 -32 -31 -63q-69 -109 -192 -110q-86 0 -145 25l13 60q14 -5 72 -35q15 -8 27 -13q13 -6 30 -6q38 1 81 34q80 67 95 172q8 66 8 122z" glyph-name="nine" horiz-adv-x="548" unicode="9"/>
<glyph d="M122 -10q-26 0 -38 25q-4 9 -4 17q0 26 25 38q9 4 17 4q26 0 38 -25q4 -9 4 -17q0 -26 -25 -38q-9 -4 -17 -4zM122 404q-26 0 -38 25q-4 9 -4 17q0 26 25 38q9 4 17 4q26 0 38 -25q4 -9 4 -17q0 -26 -25 -38q-9 -4 -17 -4z" glyph-name="colon" horiz-adv-x="244" unicode=":"/>
<glyph d="M80 -81v18q38 26 39 43q0 15 -26 19v71h79q0 -37 -9.5 -66.5t-23 -44.5t-27 -25t-22.5 -12zM128 404q-26 0 -38 25q-4 9 -4 17q0 26 25 38q9 4 17 4q26 0 38 -25q4 -9 4 -17q0 -26 -25 -38q-9 -4 -17 -4z" glyph-name="semicolon" horiz-adv-x="252" unicode=";"/>
<glyph d="M500 150l-30 -60l-390 240v60l390 250l30 -60l-370 -220z" glyph-name="less" horiz-adv-x="580" unicode="&lt;"/>
<glyph d="M80 250v62h420v-62h-420zM80 410v62h420v-62h-420z" glyph-name="equal" horiz-adv-x="580" unicode="="/>
<glyph d="M80 150l370 210l-370 220l30 60l390 -250v-60l-390 -240z" glyph-name="greater" horiz-adv-x="580" unicode="&gt;"/>
<glyph d="M184 -10q-26 0 -38 25q-4 9 -4 17q0 26 25 38q9 4 17 4q26 0 38 -25q4 -9 4 -17q0 -26 -25 -38q-9 -4 -17 -4zM333 559q0 105 -96 124q-20 4 -42 4q-27 -1 -59 -19q-23 -13 -72 -37l-24 60q93 41 160 41q186 0 198 -149q1 -11 1 -21q0 -106 -82 -169q-17 -12 -35 -21 q-38 -18 -82 -18l3 -134h-41q-22 70 -22 152v6q54 12 100 32q70 31 88 108q5 20 5 41z" glyph-name="question" horiz-adv-x="439" unicode="?"/>
<glyph d="M441 442q-5 6 -13 21q-10 18 -16 25q-17 17 -35 17q-48 0 -91 -115q-18 -48 -23 -82l-7 -49q-1 -7 -1 -16q1 -27 21 -54q13 -16 24 -17q10 1 23 11q66 49 71 73zM517 -39q-65 -21 -134 -21q-35 0 -64 4q-144 20 -219 132q-60 86 -60 204q0 36 6 76q27 201 132 306 q87 88 203 88q23 0 45 -3q141 -19 210 -133q47 -78 47 -182q0 -36 -4 -65q-11 -81 -64 -163q-60 -92 -126 -93q-32 1 -63 24q-31 26 -36 83q-41 -52 -85 -67q-14 -4 -28 -4q-54 0 -79 66q-12 32 -12 68q0 10 2 27q16 104 74 164q54 52 113 53q43 -1 82 -29l4 11l74 -10 q-33 -98 -87 -268q-5 -16 -7 -29q-1 -5 -1 -11q2 -36 36 -41h6q54 0 101 114q24 61 32 113q5 37 5 63q-1 91 -41 156q-53 80 -100 109q-4 2 -7 4q-32 18 -69 18q-41 0 -89 -27q-47 -27 -95 -80q-84 -96 -108 -271q-5 -40 -5 -69q1 -98 45 -170q51 -85 118 -122 q37 -19 77 -19q44 0 123 28q26 9 41 13z" glyph-name="at" horiz-adv-x="723" unicode="@"/>
<glyph d="M296 300l-66 330l-66 -330h132zM430 0h-90l-30 250h-160l-30 -250h-90l160 720h80z" glyph-name="A" horiz-adv-x="460" unicode="A"/>
<glyph d="M120 30q27 -3 50 -3q133 0 191 82q30 42 30 91q0 81 -69 134q-63 48 -160 48q-15 0 -42 -2v-350zM120 410h27q19 -1 28 -1q106 0 147 41q17 17 26 40q8 21 8 48q-1 59 -32 107q-33 47 -122 47q-14 0 -43 -1q-27 -1 -39 -1v-280zM317 399q77 -17 122 -91q30 -49 30 -102 q-1 -45 -19 -79q-42 -75 -132 -109q-34 -18 -128 -18h-150v720h150q130 0 177 -32q9 -6 16 -13q56 -50 57 -123q0 -78 -63 -124q-27 -18 -60 -27v-2z" glyph-name="B" horiz-adv-x="509" unicode="B"/>
<glyph d="M467 46q-72 -56 -181 -56q-218 0 -250 271q-6 51 -6 113q0 162 73 262q69 93 183 94q105 -1 169 -50l-25 -64q-17 11 -46 35q-50 41 -79 47q-10 2 -19 2q-83 0 -136 -132q-40 -102 -40 -208q4 -214 83 -297q39 -40 93 -43q33 0 54 10q19 10 67 52q23 20 38 30z" glyph-name="C" horiz-adv-x="507" unicode="C"/>
<glyph d="M120 30q12 0 37 -1q23 -1 33 -1q44 0 67 14q91 59 128 185q18 62 18 128v13q-5 164 -93 263q-28 31 -60 50q-18 13 -55 13q-12 0 -37 -2h-6.5t-6 -0.5t-5 -0.5h-5h-4t-3 -0.5t-3 -0.5h-2.5h-2h-1v-660zM206 720q151 0 225 -134q52 -94 52 -226q-1 -171 -79 -265 q-78 -95 -196 -95h-168v720h166z" glyph-name="D" horiz-adv-x="513" unicode="D"/>
<glyph d="M280 0h-240v720h236v-36l-156 6v-308l100 2v-34l-100 2l4 -322l156 4v-34z" glyph-name="E" horiz-adv-x="320" unicode="E"/>
<glyph d="M40 0v720h238v-37l-158 7v-308l130 2v-34l-130 2v-352h-80z" glyph-name="F" horiz-adv-x="318" unicode="F"/>
<glyph d="M480 376l-19 -306q-76 -58 -119 -72q-26 -8 -51 -8h-5h-9q-173 0 -226 203q-21 79 -21 181q0 178 78 276q65 79 169 80h10q106 -2 169 -50l-25 -64q-17 11 -46 35q-51 41 -80 47q-10 2 -19 2q-84 0 -136 -133q-39 -101 -39 -207v-6q0 -178 63 -267q17 -22 35 -36 q31 -21 70 -21q54 0 111 50q9 8 15 14l-14 256l-120 -6v32h209z" glyph-name="G" horiz-adv-x="520" unicode="G"/>
<glyph d="M400 0h-80l10 390h-220l10 -390h-80v720h80l-10 -300h220l-10 300h80v-720z" glyph-name="H" horiz-adv-x="440" unicode="H"/>
<glyph d="M40 0v34l70 -4v660l-70 -7v37h220v-37l-70 7v-660l70 4v-34h-220z" glyph-name="I" horiz-adv-x="300" unicode="I"/>
<glyph d="M40 30h2q50 0 82 50q26 43 26 110v530h70l1 -529q0 -156 -114 -192q-31 -9 -67 -9v40z" glyph-name="J" horiz-adv-x="261" unicode="J"/>
<glyph d="M430 0h-100l-150 358l-70 -118l10 -240h-80v720h80l-10 -370l230 370h90l-222 -330z" glyph-name="K" horiz-adv-x="450" unicode="K"/>
<glyph d="M40 0v720h80v-690l110 10v-40h-190z" glyph-name="L" horiz-adv-x="270" unicode="L"/>
<glyph d="M375 0l15 560l-110 -230h-58l-122 230l15 -560h-75v720h64l144 -350l138 350h64v-720h-75z" glyph-name="M" unicode="M"/>
<glyph d="M381 102l-5 618h74v-720h-90l-250 630l10 -630h-80v720h84z" glyph-name="N" unicode="N"/>
<glyph d="M275 26q127 0 158 203q8 56 8 121q0 81 -11 147q-32 167 -118 192q-18 5 -36 5q-113 0 -150 -167q-3 -14 -6 -30q-11 -83 -11 -153q0 -234 95 -297q32 -21 71 -21zM275 730q179 0 228 -205q17 -70 17 -156v-5q0 -91 -15 -163q-23 -123 -114 -180q-52 -31 -113 -31h-2 q-54 0 -104 23q-1 1 -2 1q-116 65 -135 254q-4 41 -5 94q3 277 142 345q45 21 103 23z" glyph-name="O" horiz-adv-x="550" unicode="O"/>
<glyph d="M226 377q90 0 119 86q10 30 10 67q0 106 -62 146q-27 17 -63 17l-110 -3l-2 -314zM40 720h192q80 -1 131 -42q42 -36 47 -127q1 -10 1 -18q0 -81 -36 -127q-6 -7 -12 -12q-48 -44 -127 -44h-116v-350h-80v720z" glyph-name="P" horiz-adv-x="441" unicode="P"/>
<glyph d="M425 190q16 69 16 160q0 81 -11 147q-32 167 -118 192q-18 5 -36 5q-113 0 -150 -167q-3 -14 -6 -30q-11 -83 -11 -153q0 -234 95 -297q32 -21 71 -21q94 1 135 112l-208 202l28 40zM275 730q179 0 228 -205q17 -70 17 -156v-5q0 -91 -15 -163q-8 -37 -21 -68l106 -103 l-28 -40l-102 99q-62 -92 -167 -99h-15h-2q-54 0 -104 23q-1 1 -2 1q-116 65 -135 254q-4 41 -5 94q3 277 142 345q45 21 103 23z" glyph-name="Q" horiz-adv-x="600" unicode="Q"/>
<glyph d="M208 390q142 0 151 131q1 10 1 19q0 136 -117 152q-15 2 -31 2l-102 -4v-300h98zM210 360h-100l10 -360h-80v720h176q154 0 193 -95q2 -5 3 -9q13 -34 13 -78q-2 -154 -155 -175l160 -363h-90z" glyph-name="R" horiz-adv-x="470" unicode="R"/>
<glyph d="M350 644q-10 5 -28 18q-51 32 -82 34h-2q-46 0 -92 -37q-14 -12 -22 -23q-24 -34 -24 -89q0 -58 77 -103q19 -11 62 -32q90 -44 120 -76q10 -10 16 -20q35 -52 35 -106q0 -122 -93 -183q-58 -37 -131 -37q-93 1 -156 37l20 67q9 -6 27 -19q60 -42 99 -47q8 -1 15 -1 q56 1 99 43q41 43 42 129q0 76 -86 126q-21 12 -66 33q-65 31 -89 50q-70 58 -71 134q0 115 103 164q52 24 117 24q78 0 135 -21z" glyph-name="S" horiz-adv-x="450" unicode="S"/>
<glyph d="M286 690l4 -690h-80l4 690l-184 -14v44h440v-44z" glyph-name="T" horiz-adv-x="500" unicode="T"/>
<glyph d="M450 230q0 -229 -185 -240h-17q-207 2 -208 240v490h80v-19q0 -35 -2 -180q-4 -212 -4 -287q0 -70 2 -80q10 -68 64 -104q31 -20 68 -20q78 0 112 76q10 23 14 48q2 21 2 80q0 82 -4 316q-2 133 -2 160v10h80v-490z" glyph-name="U" unicode="U"/>
<glyph d="M330 0h-88l-206 720h80l170 -660l170 660h80z" glyph-name="V" horiz-adv-x="572" unicode="V"/>
<glyph d="M180 0h-90l-50 720h68l42 -620l130 320h30l130 -320l43 620h68l-51 -720h-90l-115 362z" glyph-name="W" horiz-adv-x="591" unicode="W"/>
<glyph d="M430 0l-180 310l-150 -310h-80l210 370l-204 350h80l164 -290l154 290h80l-224 -340l230 -380h-80z" glyph-name="X" horiz-adv-x="530" unicode="X"/>
<glyph d="M280 330v-330h-70l10 330l-200 390h70l154 -330l156 330h72z" glyph-name="Y" horiz-adv-x="492" unicode="Y"/>
<glyph d="M480 670l-356 -640l346 13v-43h-430v58l386 632l-376 -13v43h430v-50z" glyph-name="Z" horiz-adv-x="520" unicode="Z"/>
<glyph d="M80 -36v800h210v-40l-140 10v-740l140 10v-40h-210z" glyph-name="bracketleft" horiz-adv-x="370" unicode="["/>
<glyph d="M275 0l-195 720h68l193 -720h-66z" glyph-name="backslash" horiz-adv-x="421" unicode="\"/>
<glyph d="M290 -36h-210v40l140 -10v740l-140 -10v40h210v-800z" glyph-name="bracketright" horiz-adv-x="370" unicode="]"/>
<glyph d="M154 800l-60 -50h-55l115 95l122 -95h-55z" glyph-name="asciicircum" horiz-adv-x="316" unicode="^"/>
<glyph d="M636 0h-556v58h556v-58z" glyph-name="underscore" horiz-adv-x="716" unicode="_"/>
<glyph d="M40 794l201 -44h-201v44z" glyph-name="grave" horiz-adv-x="281" unicode="`"/>
<glyph d="M296 300l-66 330l-66 -330h132zM430 0h-90l-30 250h-160l-30 -250h-90l160 720h80z" glyph-name="a" horiz-adv-x="460" unicode="a"/>
<glyph d="M120 30q27 -3 50 -3q133 0 191 82q30 42 30 91q0 81 -69 134q-63 48 -160 48q-15 0 -42 -2v-350zM120 410h27q19 -1 28 -1q106 0 147 41q17 17 26 40q8 21 8 48q-1 59 -32 107q-33 47 -122 47q-14 0 -43 -1q-27 -1 -39 -1v-280zM317 399q77 -17 122 -91q30 -49 30 -102 q-1 -45 -19 -79q-42 -75 -132 -109q-34 -18 -128 -18h-150v720h150q130 0 177 -32q9 -6 16 -13q56 -50 57 -123q0 -78 -63 -124q-27 -18 -60 -27v-2z" glyph-name="b" horiz-adv-x="509" unicode="b"/>
<glyph d="M467 46q-72 -56 -181 -56q-218 0 -250 271q-6 51 -6 113q0 162 73 262q69 93 183 94q105 -1 169 -50l-25 -64q-17 11 -46 35q-50 41 -79 47q-10 2 -19 2q-83 0 -136 -132q-40 -102 -40 -208q4 -214 83 -297q39 -40 93 -43q33 0 54 10q19 10 67 52q23 20 38 30z" glyph-name="c" horiz-adv-x="507" unicode="c"/>
<glyph d="M120 30q12 0 37 -1q23 -1 33 -1q44 0 67 14q91 59 128 185q18 62 18 128v13q-5 164 -93 263q-28 31 -60 50q-18 13 -55 13q-12 0 -37 -2h-6.5t-6 -0.5t-5 -0.5h-5h-4t-3 -0.5t-3 -0.5h-2.5h-2h-1v-660zM206 720q151 0 225 -134q52 -94 52 -226q-1 -171 -79 -265 q-78 -95 -196 -95h-168v720h166z" glyph-name="d" horiz-adv-x="503" unicode="d"/>
<glyph d="M280 0h-240v720h236v-36l-156 6v-308l100 2v-34l-100 2l4 -322l156 4v-34z" glyph-name="e" horiz-adv-x="320" unicode="e"/>
<glyph d="M40 0v720h238v-37l-158 7v-308l130 2v-34l-130 2v-352h-80z" glyph-name="f" horiz-adv-x="318" unicode="f"/>
<glyph d="M480 376l-19 -306q-76 -58 -119 -72q-26 -8 -51 -8h-5h-9q-173 0 -226 203q-21 79 -21 181q0 178 78 276q65 79 169 80h10q106 -2 169 -50l-25 -64q-17 11 -46 35q-51 41 -80 47q-10 2 -19 2q-84 0 -136 -133q-39 -101 -39 -207v-6q0 -178 63 -267q17 -22 35 -36 q31 -21 70 -21q54 0 111 50q9 8 15 14l-14 256l-120 -6v32h209z" glyph-name="g" horiz-adv-x="520" unicode="g"/>
<glyph d="M400 0h-80l10 390h-220l10 -390h-80v720h80l-10 -300h220l-10 300h80v-720z" glyph-name="h" horiz-adv-x="440" unicode="h"/>
<glyph d="M40 0v34l70 -4v660l-70 -7v37h220v-37l-70 7v-660l70 4v-34h-220z" glyph-name="i" horiz-adv-x="300" unicode="i"/>
<glyph d="M40 30h2q50 0 82 50q26 43 26 110v530h70l1 -529q0 -156 -114 -192q-31 -9 -67 -9v40z" glyph-name="j" horiz-adv-x="261" unicode="j"/>
<glyph d="M430 0h-100l-150 358l-70 -118l10 -240h-80v720h80l-10 -370l230 370h90l-222 -330z" glyph-name="k" horiz-adv-x="450" unicode="k"/>
<glyph d="M40 0v720h80v-690l110 10v-40h-190z" glyph-name="l" horiz-adv-x="270" unicode="l"/>
<glyph d="M375 0l15 560l-110 -230h-58l-122 230l15 -560h-75v720h64l144 -350l138 350h64v-720h-75z" glyph-name="m" unicode="m"/>
<glyph d="M381 102l-5 618h74v-720h-90l-250 630l10 -630h-80v720h84z" glyph-name="n" unicode="n"/>
<glyph d="M275 26q127 0 158 203q8 56 8 121q0 81 -11 147q-32 167 -118 192q-18 5 -36 5q-113 0 -150 -167q-3 -14 -6 -30q-11 -83 -11 -153q0 -234 95 -297q32 -21 71 -21zM275 730q179 0 228 -205q17 -70 17 -156v-5q0 -91 -15 -163q-23 -123 -114 -180q-52 -31 -113 -31h-2 q-54 0 -104 23q-1 1 -2 1q-116 65 -135 254q-4 41 -5 94q3 277 142 345q45 21 103 23z" glyph-name="o" horiz-adv-x="550" unicode="o"/>
<glyph d="M226 377q90 0 119 86q10 30 10 67q0 106 -62 146q-27 17 -63 17l-110 -3l-2 -314zM40 720h192q80 -1 131 -42q42 -36 47 -127q1 -10 1 -18q0 -81 -36 -127q-6 -7 -12 -12q-48 -44 -127 -44h-116v-350h-80v720z" glyph-name="p" horiz-adv-x="441" unicode="p"/>
<glyph d="M425 190q16 69 16 160q0 81 -11 147q-32 167 -118 192q-18 5 -36 5q-113 0 -150 -167q-3 -14 -6 -30q-11 -83 -11 -153q0 -234 95 -297q32 -21 71 -21q94 1 135 112l-208 202l28 40zM275 730q179 0 228 -205q17 -70 17 -156v-5q0 -91 -15 -163q-8 -37 -21 -68l106 -103 l-28 -40l-102 99q-62 -92 -167 -99h-15h-2q-54 0 -104 23q-1 1 -2 1q-116 65 -135 254q-4 41 -5 94q3 277 142 345q45 21 103 23z" glyph-name="q" horiz-adv-x="600" unicode="q"/>
<glyph d="M208 390q142 0 151 131q1 10 1 19q0 136 -117 152q-15 2 -31 2l-102 -4v-300h98zM210 360h-100l10 -360h-80v720h176q154 0 193 -95q2 -5 3 -9q13 -34 13 -78q-2 -154 -155 -175l160 -363h-90z" glyph-name="r" horiz-adv-x="470" unicode="r"/>
<glyph d="M350 644q-10 5 -28 18q-51 32 -82 34h-2q-46 0 -92 -37q-14 -12 -22 -23q-24 -34 -24 -89q0 -58 77 -103q19 -11 62 -32q90 -44 120 -76q10 -10 16 -20q35 -52 35 -106q0 -122 -93 -183q-58 -37 -131 -37q-93 1 -156 37l20 67q9 -6 27 -19q60 -42 99 -47q8 -1 15 -1 q56 1 99 43q41 43 42 129q0 76 -86 126q-21 12 -66 33q-65 31 -89 50q-70 58 -71 134q0 115 103 164q52 24 117 24q78 0 135 -21z" glyph-name="s" horiz-adv-x="450" unicode="s"/>
<glyph d="M286 690l4 -690h-80l4 690l-184 -14v44h440v-44z" glyph-name="t" horiz-adv-x="500" unicode="t"/>
<glyph d="M450 230q0 -229 -185 -240h-17q-207 2 -208 240v490h80v-19q0 -35 -2 -180q-4 -212 -4 -287q0 -70 2 -80q10 -68 64 -104q31 -20 68 -20q78 0 112 76q10 23 14 48q2 21 2 80q0 82 -4 316q-2 133 -2 160v10h80v-490z" glyph-name="u" unicode="u"/>
<glyph d="M330 0h-88l-206 720h80l170 -660l170 660h80z" glyph-name="v" horiz-adv-x="572" unicode="v"/>
<glyph d="M180 0h-90l-50 720h68l42 -620l130 320h30l130 -320l43 620h68l-51 -720h-90l-115 362z" glyph-name="w" horiz-adv-x="591" unicode="w"/>
<glyph d="M400 0l-180 310l-150 -310h-80l210 370l-204 350h80l164 -290l154 290h80l-224 -340l230 -380h-80z" glyph-name="x" horiz-adv-x="510" unicode="x"/>
<glyph d="M280 330v-330h-70l10 330l-200 390h70l154 -330l156 330h72z" glyph-name="y" horiz-adv-x="492" unicode="y"/>
<glyph d="M480 670l-356 -640l346 13v-43h-430v58l386 632l-376 -13v43h430v-50z" glyph-name="z" horiz-adv-x="520" unicode="z"/>
<glyph d="M80 392q84 2 86 62q0 31 -28 77q-35 56 -38 103v14q0 95 164 110q26 2 56 2l-30 -42q-2 0 -44 3q-95 -1 -96 -57q0 -36 31 -91q35 -59 38 -102q1 -8 1 -15q0 -31 -22.5 -55t-45.5 -33l-22 -8l32 -14q57 -33 58 -82q0 -50 -36 -112q-31 -54 -33 -84q-1 -7 -1 -12 q1 -52 81 -52l59 6l30 -50q-189 0 -216 85q-4 13 -4 27q0 55 35 113q29 55 31 81q-1 62 -86 62v64z" glyph-name="braceleft" horiz-adv-x="400" unicode="{"/>
<glyph d="M156 750l4 -780h-80l4 780h72z" glyph-name="bar" horiz-adv-x="240" unicode="|"/>
<glyph d="M320 392v-64q-84 -2 -86 -62q0 -31 28 -77q35 -56 38 -103v-14q0 -95 -164 -110q-26 -2 -56 -2l30 50q9 0 59 -6q80 2 81 52q0 36 -31 91q-35 59 -38 102q-1 8 -1 15q0 31 22.5 55t45.5 33l22 8l-32 14q-57 33 -58 82q0 50 36 112q31 54 33 84q1 7 1 12q-1 57 -96 57 l-44 -3l-30 42q189 0 216 -85q4 -13 4 -27q0 -55 -35 -113q-29 -55 -31 -81q1 -62 86 -62z" glyph-name="braceright" horiz-adv-x="400" unicode="}"/>
<glyph d="M565 442v-8q0 -120 -103 -141q-19 -4 -41 -4q-51 0 -123 43l-1 1l-1 1h-1l-1 1l-2 1l-18 12q-52 36 -79 36q-41 0 -76 -52q-19 -28 -23 -52h-56v12q0 91 67 129q33 19 76 19q50 0 119 -44q1 -1 3 -2l1 -1l2 -1q5 -3 16 -11q54 -37 84 -37q42 0 76 44q21 27 23 54h58z" glyph-name="asciitilde" horiz-adv-x="605" unicode="~"/>
<glyph d="M82 730q26 0 38 -25q4 -9 4 -17q0 -26 -25 -38q-9 -4 -17 -4q-26 0 -38 25q-4 9 -4 17q0 26 25 38q9 4 17 4zM101 500q18 -340 28 -510l-82 10l-5 185l17 315h42z" glyph-name="exclamdown" horiz-adv-x="169" unicode="¡"/>
<glyph d="M164 116l107 402q-57 -5 -103 -58q-1 -2 -2 -3q-42 -53 -42 -184q1 -99 40 -157zM312 670h68l-34 -127q52 -8 91 -23l-25 -69q-14 6 -68 40q-6 3 -11 6l-119 -439q3 -2 5 -4q27 -20 63 -20q24 0 70 27q51 32 71 40l14 -67q-60 -33 -147 -33q-52 0 -88 12l-17 -63h-66 l25 93q-20 15 -36 32q-68 75 -68 199q0 140 85 217q63 56 154 57z" glyph-name="cent" horiz-adv-x="477" unicode="¢"/>
<glyph d="M493 58v-58h-420v50l23 17q73 65 74 186q0 51 -13 110l-117 30l10 39l94 -24q-27 108 -27 149q0 166 179 185q23 2 47 2q44 0 75.5 -5t41.5 -11l10 -5l-25 -65l-43 29q-31 18 -51 21q-18 3 -33 3q-102 0 -126 -97q-7 -27 -7 -58q0 -56 32 -167l170 -44l-10 -38l-148 38 q13 -62 13 -102q0 -115 -97 -195q-11 -10 -22 -18l11 2z" glyph-name="sterling" horiz-adv-x="533" unicode="£"/>
<glyph d="M384 225q22 26 38 66q11 28 11 65q0 50 -19 92q-29 71 -89 93q-20 7 -41 7q-74 0 -117 -77q-6 -9 -10 -19q-18 -43 -18 -88q0 -47 19 -88q13 -28 34 -51q42 -46 97 -46q55 1 95 46zM424 186q-63 -31 -138 -31q-78 0 -135 30l-63 -63l-42 42l56 56q-62 58 -62 142 q1 85 63 145l-57 57l42 42l65 -64q21 10 36 15q45 17 98 17q75 0 136 -33l65 65l42 -42l-58 -58q64 -60 64 -147q-1 -84 -62 -139l56 -56l-42 -42z" glyph-name="currency" horiz-adv-x="576" unicode="¤"/>
<glyph d="M143 520l-103 200h80l144 -330l146 330h82l-98 -200h98v-48h-122l-70 -142v-40h192v-48h-192v-242h-70l7 242h-197v48h199l1 40l-73 142h-127v48h103z" glyph-name="yen" horiz-adv-x="532" unicode="¥"/>
<glyph d="M41 258h78l1 -268h-80zM117 476h-74l1 254h72z" glyph-name="brokenbar" horiz-adv-x="160" unicode="¦"/>
<glyph d="M108 363q0 -51 70 -91q16 -9 49 -25q21 -11 31 -16q44 35 48 120q0 67 -77 111q-16 9 -40 20q-80 -34 -81 -119zM142 504q-82 42 -98 110q-4 15 -4 30q0 101 92 141q43 19 96 19q66 0 114 -18l-21 -55q-8 5 -25 15q-44 29 -70 29q-42 0 -81 -33q-10 -9 -16 -18 q-21 -32 -21 -76q0 -51 70 -90q15 -9 48 -25q82 -40 107 -69q6 -7 10 -13q29 -45 29 -90q-1 -100 -74 -152q62 -42 72 -111q2 -12 2 -22q0 -107 -84 -159q-48 -29 -107 -29q-79 1 -132 32l17 57q58 -39 86 -51q16 -7 34 -7q48 1 84 38q35 36 36 109q0 66 -77 110 q-17 9 -52 26q-57 26 -77 42q-59 50 -60 114q0 102 94 143q4 2 8 3z" glyph-name="section" horiz-adv-x="412" unicode="§"/>
<glyph d="M182 750q-21 0 -29 20q-2 6 -2 11q0 22 20 30q6 2 11 2q27 0 31 -25q1 -4 1 -7q0 -21 -21 -29q-6 -2 -11 -2zM72 750q-22 0 -30 20q-2 6 -2 11q0 27 25 31q4 1 7 1q21 0 29 -21q2 -6 2 -11q0 -21 -20 -29q-6 -2 -11 -2z" glyph-name="dieresis" horiz-adv-x="254" unicode="¨"/>
<glyph d="M469 198q-38 -29 -93 -29q-129 2 -131 189v7q0 116 59 162q30 23 69 23q58 -1 92 -26l-13 -33q-9 6 -24 18q-32 25 -51 25q-26 -1 -54 -41q-35 -51 -36 -134q3 -117 58 -159q27 -16 37 -16q14 1 23 6q8 4 38 29q9 8 16 12zM376 655q61 -1 114 -23q83 -35 137 -128 q43 -73 43 -144q0 -124 -89 -211q-87 -84 -206 -84q-123 0 -210 88q-85 87 -85 207q0 124 89 211q87 84 207 84zM375 630q-117 0 -197 -85q-73 -79 -73 -186q0 -116 84 -196q79 -74 186 -74q117 0 197 85q73 78 73 185q0 118 -85 198q-78 73 -185 73z" glyph-name="copyright" horiz-adv-x="750" unicode="©"/>
<glyph d="M159 405q62 1 110 66v94q-37 -3 -63 -6q-63 -7 -95 -35q-24 -18 -25 -54q1 -31 19 -48q22 -17 54 -17zM333 372h-49q-1 5 -4 16q-9 29 -9 44q-45 -66 -129 -66q-62 0 -90 47q-14 23 -14 51v3q1 81 101 106q29 7 130 17q-1 86 -41 109q-16 8 -39 8q-56 0 -113 -31 q-3 -2 -5 -3l-15 20q70 37 142 37q124 -2 125 -132v-141q0 -34 10 -85z" glyph-name="ordfeminine" horiz-adv-x="532" unicode="ª"/>
<glyph d="M81 360l203 -212l-27 -20l-203 175q-9 8 -14 11v88q7 5 131 126q71 69 79 70q14 -9 27 -20zM272 360l203 -212l-27 -20l-203 175q-9 8 -14 11v88q7 5 131 126q71 69 79 70q14 -9 27 -20z" glyph-name="guillemotleft" horiz-adv-x="515" unicode="«"/>
<glyph d="M375 360h-335v58h400v-153h-65v95z" glyph-name="logicalnot" horiz-adv-x="480" unicode="¬"/>
<glyph d="M40 328v58h204v-58h-204z" glyph-name="uni00AD" horiz-adv-x="284" unicode="­"/>
<glyph d="M373 375q77 2 78 77q-2 78 -76 79l-52 -2v-154h50zM485 451q-2 -79 -80 -89l82 -187h-46l-67 185h-51l5 -185h-41v370h90q107 -2 108 -94zM376 656q61 -1 114 -23q83 -35 137 -128q43 -73 43 -144q0 -124 -89 -211q-87 -84 -206 -84q-123 0 -210 88q-85 87 -85 207 q0 124 89 211q87 84 207 84zM375 631q-117 0 -197 -85q-73 -79 -73 -186q0 -116 84 -196q79 -74 186 -74q117 0 197 85q73 78 73 185q0 118 -85 198q-78 73 -185 73z" glyph-name="registered" horiz-adv-x="750" unicode="®"/>
<glyph d="M-87 60v30h174v-30h-174z" glyph-name="macron" horiz-adv-x="230" unicode="¯"/>
<glyph d="M138 692q-37 0 -53 -43q-5 -16 -5 -31q0 -45 35 -66q13 -8 25 -8q30 0 48 33q9 19 9 39q0 44 -30 66q-14 10 -29 10zM239 616q0 -52 -55 -74q-22 -8 -46 -8q-60 0 -87 44q-11 19 -11 39q0 47 44 72q25 13 55 13q55 0 84 -38q16 -22 16 -48z" glyph-name="degree" horiz-adv-x="279" unicode="°"/>
<glyph d="M285 421h175v-61h-175v-176h155v-58h-373v58h154v176h-181v61h181v183h64v-183z" glyph-name="plusminus" horiz-adv-x="500" unicode="±"/>
<glyph d="M47 706q57 24 96 24q79 0 113 -56q4 -7 7 -14q10 -22 10 -49q-1 -85 -86 -171q-11 -12 -35 -36q-49 -49 -72 -74l199 8v-43h-239v36q100 111 126 144l18 24q46 62 47 110q0 62 -52 85q-20 8 -44 8q-10 -1 -36 -15q-27 -17 -47 -24z" glyph-name="uni00B2" horiz-adv-x="319" unicode="²"/>
<glyph d="M314 420q0 -63 -64 -100q-44 -25 -97 -25q-62 1 -113 34l15 40q6 -4 18 -14q47 -38 77 -39q64 0 98 49q16 24 16 51q0 53 -59 87q-33 18 -65 19l7 22q62 0 84 43q8 16 8 34q0 54 -35 76q-13 8 -29 9q-27 -3 -81 -37q-7 -5 -11 -7l-17 39q42 29 109 29q71 0 102 -51 q15 -24 15 -54q-1 -64 -78 -89q57 -12 85 -63q15 -26 15 -53z" glyph-name="uni00B3" horiz-adv-x="354" unicode="³"/>
<glyph d="M100 104v-44h-200z" glyph-name="acute" horiz-adv-x="230" unicode="´"/>
<glyph d="M40 583q0 125 103 182q62 35 146 35h286v-52l-70 12v-820h-60l10 820h-130v-820h-60l10 440q-85 1 -160 59q-75 59 -75 144z" glyph-name="paragraph" horiz-adv-x="615" unicode="¶"/>
<glyph d="M82 318q-26 0 -38 25q-4 9 -4 17q0 26 25 38q9 4 17 4q26 0 38 -25q4 -9 4 -17q0 -26 -25 -38q-9 -4 -17 -4z" glyph-name="periodcentered" horiz-adv-x="164" unicode="·"/>
<glyph d="M157 14l-7 -16q6 -2 27 -7q107 -25 118 -52q2 -5 2 -9q0 -55 -100 -82q-53 -14 -108 -14q-32 0 -49 4l1 56q56 -10 104 -10q102 1 132 50q-45 16 -178 22h-9l35 66z" glyph-name="cedilla" horiz-adv-x="337" unicode="¸"/>
<glyph d="M40 293v24l49 -4v297l-5 72l-44 -6v23l105 31l8 -121l-6 -298l55 6v-24h-162z" glyph-name="uni00B9" horiz-adv-x="280" unicode="¹"/>
<glyph d="M138 692q-37 0 -53 -43q-5 -16 -5 -31q0 -45 35 -66q13 -8 25 -8q30 0 48 33q9 19 9 39q0 44 -30 66q-14 10 -29 10zM239 616q0 -52 -55 -74q-22 -8 -46 -8q-60 0 -87 44q-11 19 -11 39q0 47 44 72q25 13 55 13q55 0 84 -38q16 -22 16 -48z" glyph-name="ordmasculine" horiz-adv-x="279" unicode="º"/>
<glyph d="M434 360l-196 218q14 11 27 20q8 0 145 -135q53 -51 65 -61v-88q-14 -10 -68 -56.5t-101 -87.5l-48 -42q-2 1 -27 20zM243 360l-196 218q14 11 27 20q8 0 145 -135q53 -51 65 -61v-88q-14 -10 -68 -56.5t-102 -87.5l-47 -42q-2 1 -27 20z" glyph-name="guillemotright" horiz-adv-x="515" unicode="»"/>
<glyph d="M363 720h68l-195 -720h-66zM533 366l-144 -236h144v236zM533 100h-179v36l174 289h46v-295l52 3v-33h-52v-82l40 6v-24h-121v24l40 -6v82zM40 293v24l39 -4v297l-4 72l-35 -6v23l85 31l7 -121l-6 -298l45 6v-24h-131z" glyph-name="onequarter" horiz-adv-x="666" unicode="¼"/>
<glyph d="M40 293v24l39 -4v297l-4 72l-35 -6v23l85 31l7 -121l-6 -298l45 6v-24h-131zM363 720h68l-195 -720h-66zM417 411q57 24 96 24q79 0 113 -56q4 -7 7 -14q10 -22 10 -49q-1 -85 -86 -171q-11 -12 -35 -36q-49 -49 -72 -74l199 9v-44h-239v36q100 111 126 144l18 24 q46 62 47 110q0 62 -52 85q-20 8 -44 8q-10 -1 -36 -15q-27 -17 -47 -24z" glyph-name="onehalf" horiz-adv-x="689" unicode="½"/>
<glyph d="M473 720h68l-195 -720h-66zM314 420q0 -63 -64 -100q-44 -25 -97 -25q-62 1 -113 34l15 40q6 -4 18 -14q47 -38 77 -39q64 0 98 49q16 24 16 51q0 53 -59 87q-33 18 -65 19l7 22q62 0 84 43q8 16 8 34q0 54 -35 76q-13 8 -29 9q-27 -3 -81 -37q-7 -5 -11 -7l-17 39 q42 29 109 29q71 0 102 -51q15 -24 15 -54q-1 -64 -78 -89q57 -12 85 -63q15 -26 15 -53zM643 366l-144 -236h144v236zM643 100h-179v36l174 289h46v-295l52 3v-33h-52v-82l40 6v-24h-121v24l40 -6v82z" glyph-name="threequarters" horiz-adv-x="776" unicode="¾"/>
<glyph d="M255 732q26 0 38 -25q4 -9 4 -17q0 -26 -25 -38q-9 -4 -17 -4q-26 0 -38 25q-4 9 -4 17q0 26 25 38q9 4 17 4zM106 163q0 -105 96 -124q20 -4 42 -4q27 1 59 19q23 13 72 37l24 -60q-93 -41 -160 -41q-186 0 -198 149q-1 11 -1 21q0 106 82 169q17 12 35 21q38 18 82 18 l-3 134h41q22 -70 22 -152v-6q-54 -12 -100 -32q-70 -31 -88 -108q-5 -20 -5 -41z" glyph-name="questiondown" horiz-adv-x="439" unicode="¿"/>
<glyph d="M296 300l-66 330l-66 -330h132zM430 0h-90l-30 250h-160l-30 -250h-90l160 720h80zM118 794l201 -44h-201v44z" glyph-name="Agrave" horiz-adv-x="460" unicode="À"/>
<glyph d="M303 794v-44h-201zM296 300l-66 330l-66 -330h132zM430 0h-90l-30 250h-160l-30 -250h-90l160 720h80z" glyph-name="Aacute" horiz-adv-x="460" unicode="Á"/>
<glyph d="M296 300l-66 330l-66 -330h132zM430 0h-90l-30 250h-160l-30 -250h-90l160 720h80zM209 800l-60 -50h-55l115 95l122 -95h-55z" glyph-name="Acircumflex" horiz-adv-x="460" unicode="Â"/>
<glyph d="M296 300l-66 330l-66 -330h132zM430 0h-90l-30 250h-160l-30 -250h-90l160 720h80zM327 842v-4q-2 -82 -63 -83q-24 0 -55 29q-27 24 -44 25q-19 0 -26 -58v-1h-42v6q0 61 38 79q12 6 25 6q24 0 53 -29q27 -25 45 -26q21 0 26 51v5h43z" glyph-name="Atilde" horiz-adv-x="460" unicode="Ã"/>
<glyph d="M296 300l-66 330l-66 -330h132zM430 0h-90l-30 250h-160l-30 -250h-90l160 720h80zM282 750q-21 0 -29 20q-2 6 -2 11q0 22 20 30q6 2 11 2q27 0 31 -25q1 -4 1 -7q0 -21 -21 -29q-6 -2 -11 -2zM172 750q-22 0 -30 20q-2 6 -2 11q0 27 25 31q4 1 7 1q21 0 29 -21 q2 -6 2 -11q0 -21 -20 -29q-6 -2 -11 -2z" glyph-name="Adieresis" horiz-adv-x="460" unicode="Ä"/>
<glyph d="M296 300l-66 330l-66 -330h132zM430 0h-90l-30 250h-160l-30 -250h-90l160 720h80zM226 857q-29 0 -38 -33q-3 -9 -3 -17q0 -32 27 -46q9 -4 16 -4q23 0 36 26q5 11 5 23q0 31 -24 46q-9 5 -19 5zM299 806q0 -39 -45 -52q-14 -4 -28 -4q-46 0 -64 34q-6 12 -6 23 q0 34 36 50q17 7 35 7q45 0 64 -31q8 -13 8 -27z" glyph-name="Aring" horiz-adv-x="460" unicode="Å"/>
<glyph d="M340 416v304h236v-36l-156 6v-308l100 2v-34l-100 2l4 -322l156 4v-34h-158h-82l-30 250h-140l-30 -250h-100l160 720h80zM306 300l-66 330l-66 -330h132z" glyph-name="AE" horiz-adv-x="620" unicode="Æ"/>
<glyph d="M294 -26q6 -2 27 -7q107 -25 118 -52q2 -5 2 -9q0 -55 -100 -82q-53 -14 -108 -14q-32 0 -49 4l1 56q56 -10 104 -10q102 1 132 50q-45 16 -178 22h-9l31 59q-211 12 -232 306q-3 36 -3 77q0 162 73 262q69 93 183 94q105 -1 169 -50l-25 -64q-17 11 -46 35 q-50 41 -79 47q-10 2 -19 2q-83 0 -136 -132q-40 -102 -40 -208q4 -214 83 -297q39 -40 93 -43q33 0 54 10q19 10 67 52q23 20 38 30l22 -66q-66 -51 -166 -56z" glyph-name="Ccedilla" horiz-adv-x="507" unicode="Ç"/>
<glyph d="M280 0h-240v720h236v-36l-156 6v-308l100 2v-34l-100 2l4 -322l156 4v-34zM40 794l201 -44h-201v44z" glyph-name="Egrave" horiz-adv-x="320" unicode="È"/>
<glyph d="M280 0h-240v720h236v-36l-156 6v-308l100 2v-34l-100 2l4 -322l156 4v-34zM276 794v-44h-202z" glyph-name="Eacute" horiz-adv-x="320" unicode="É"/>
<glyph d="M280 0h-240v720h236v-36l-156 6v-308l100 2v-34l-100 2l4 -322l156 4v-34zM156 800l-60 -50h-55l115 95l121 -95h-55z" glyph-name="Ecircumflex" horiz-adv-x="320" unicode="Ê"/>
<glyph d="M280 0h-240v720h236v-36l-156 6v-308l100 2v-34l-100 2l4 -322l156 4v-34zM213 750q-21 0 -29 20q-2 6 -2 11q0 22 20 30q6 2 11 2q27 0 31 -25q1 -4 1 -7q0 -21 -21 -29q-6 -2 -11 -2zM103 750q-22 0 -30 20q-2 6 -2 11q0 27 25 31q4 1 7 1q21 0 29 -21q2 -6 2 -11 q0 -21 -20 -29q-6 -2 -11 -2z" glyph-name="Edieresis" horiz-adv-x="320" unicode="Ë"/>
<glyph d="M40 0v34l70 -4v660l-70 -7v37h220v-37l-70 7v-660l70 4v-34h-220zM40 794l201 -44h-201v44z" glyph-name="Igrave" horiz-adv-x="300" unicode="Ì"/>
<glyph d="M40 0v34l70 -4v660l-70 -7v37h220v-37l-70 7v-660l70 4v-34h-220zM260 794v-44h-202z" glyph-name="Iacute" horiz-adv-x="300" unicode="Í"/>
<glyph d="M40 0v34l70 -4v660l-70 -7v37h220v-37l-70 7v-660l70 4v-34h-220zM148 800l-56 -50h-51l107 95l113 -95h-51z" glyph-name="Icircumflex" horiz-adv-x="300" unicode="Î"/>
<glyph d="M40 0v34l70 -4v660l-70 -7v37h220v-37l-70 7v-660l70 4v-34h-220zM205 750q-21 0 -29 20q-2 6 -2 11q0 22 20 30q6 2 11 2q27 0 31 -25q1 -4 1 -7q0 -21 -21 -29q-6 -2 -11 -2zM95 750q-22 0 -30 20q-2 6 -2 11q0 27 25 31q4 1 7 1q21 0 29 -21q2 -6 2 -11q0 -21 -20 -29 q-6 -2 -11 -2z" glyph-name="Idieresis" horiz-adv-x="300" unicode="Ï"/>
<glyph d="M190 30q12 0 37 -1q23 -1 33 -1q44 0 67 14q91 59 128 185q18 62 18 128v13q-5 164 -93 263q-28 31 -60 50q-18 13 -55 13q-12 0 -37 -2h-6.5t-6 -0.5t-5 -0.5h-5h-4t-3 -0.5t-3 -0.5h-2.5h-2h-1v-304h114v-58h-114v-298zM40 328v58h70v334h166q151 0 225 -134 q52 -94 52 -226q-1 -171 -79 -265q-78 -95 -196 -95h-168v328h-70z" glyph-name="Eth" horiz-adv-x="593" unicode="Ð"/>
<glyph d="M381 102l-5 618h74v-720h-90l-250 630l10 -630h-80v720h84zM360 842v-4q-2 -82 -63 -83q-24 0 -55 29q-27 24 -44 25q-19 0 -26 -58v-1h-42v6q0 61 38 79q12 6 25 6q24 0 53 -29q27 -25 45 -26q21 0 26 51v5h43z" glyph-name="Ntilde" unicode="Ñ"/>
<glyph d="M275 26q127 0 158 203q8 56 8 121q0 81 -11 147q-32 167 -118 192q-18 5 -36 5q-113 0 -150 -167q-3 -14 -6 -30q-11 -83 -11 -153q0 -234 95 -297q32 -21 71 -21zM275 730q179 0 228 -205q17 -70 17 -156v-5q0 -91 -15 -163q-23 -123 -114 -180q-52 -31 -113 -31h-2 q-54 0 -104 23q-1 1 -2 1q-116 65 -135 254q-4 41 -5 94q3 277 142 345q45 21 103 23zM174 794l201 -44h-201v44z" glyph-name="Ograve" horiz-adv-x="550" unicode="Ò"/>
<glyph d="M275 26q127 0 158 203q8 56 8 121q0 81 -11 147q-32 167 -118 192q-18 5 -36 5q-113 0 -150 -167q-3 -14 -6 -30q-11 -83 -11 -153q0 -234 95 -297q32 -21 71 -21zM275 730q179 0 228 -205q17 -70 17 -156v-5q0 -91 -15 -163q-23 -123 -114 -180q-52 -31 -113 -31h-2 q-54 0 -104 23q-1 1 -2 1q-116 65 -135 254q-4 41 -5 94q3 277 142 345q45 21 103 23zM376 794v-44h-202z" glyph-name="Oacute" horiz-adv-x="550" unicode="Ó"/>
<glyph d="M275 26q127 0 158 203q8 56 8 121q0 81 -11 147q-32 167 -118 192q-18 5 -36 5q-113 0 -150 -167q-3 -14 -6 -30q-11 -83 -11 -153q0 -234 95 -297q32 -21 71 -21zM275 730q179 0 228 -205q17 -70 17 -156v-5q0 -91 -15 -163q-23 -123 -114 -180q-52 -31 -113 -31h-2 q-54 0 -104 23q-1 1 -2 1q-116 65 -135 254q-4 41 -5 94q3 277 142 345q45 21 103 23zM272 800l-60 -50h-54l114 95l123 -95h-55z" glyph-name="Ocircumflex" horiz-adv-x="550" unicode="Ô"/>
<glyph d="M275 26q127 0 158 203q8 56 8 121q0 81 -11 147q-32 167 -118 192q-18 5 -36 5q-113 0 -150 -167q-3 -14 -6 -30q-11 -83 -11 -153q0 -234 95 -297q32 -21 71 -21zM275 730q179 0 228 -205q17 -70 17 -156v-5q0 -91 -15 -163q-23 -123 -114 -180q-52 -31 -113 -31h-2 q-54 0 -104 23q-1 1 -2 1q-116 65 -135 254q-4 41 -5 94q3 277 142 345q45 21 103 23zM390 842v-4q-2 -82 -63 -83q-24 0 -55 29q-27 24 -44 25q-19 0 -26 -58v-1h-42v6q0 61 38 79q12 6 25 6q24 0 53 -29q27 -25 45 -26q21 0 26 51v5h43z" glyph-name="Otilde" horiz-adv-x="550" unicode="Õ"/>
<glyph d="M275 26q127 0 158 203q8 56 8 121q0 81 -11 147q-32 167 -118 192q-18 5 -36 5q-113 0 -150 -167q-3 -14 -6 -30q-11 -83 -11 -153q0 -234 95 -297q32 -21 71 -21zM275 730q179 0 228 -205q17 -70 17 -156v-5q0 -91 -15 -163q-23 -123 -114 -180q-52 -31 -113 -31h-2 q-54 0 -104 23q-1 1 -2 1q-116 65 -135 254q-4 41 -5 94q3 277 142 345q45 21 103 23zM332 750q-21 0 -29 20q-2 6 -2 11q0 22 20 30q6 2 11 2q27 0 31 -25q1 -4 1 -7q0 -21 -21 -29q-6 -2 -11 -2zM222 750q-22 0 -30 20q-2 6 -2 11q0 27 25 31q4 1 7 1q21 0 29 -21 q2 -6 2 -11q0 -21 -20 -29q-6 -2 -11 -2z" glyph-name="Odieresis" horiz-adv-x="550" unicode="Ö"/>
<glyph d="M215 402l123 124l43 -43l-123 -124l124 -124l-45 -45l-125 124l-128 -128l-43 43l128 128l-129 130l45 45z" glyph-name="multiply" horiz-adv-x="464" unicode="×"/>
<glyph d="M160 234l283 369q-44 90 -123 91q-113 0 -150 -167q-3 -14 -6 -30q-11 -83 -11 -153q0 -60 7 -110zM319 26q127 0 158 203q8 56 8 121q0 81 -11 147q-5 24 -7 32l-289 -376q41 -126 141 -127zM527 714l51 -42l-56 -73q42 -90 42 -230v-5q0 -91 -15 -163 q-23 -123 -114 -180q-52 -31 -113 -31h-2q-54 0 -104 23q-1 1 -2 1q-52 29 -83 79l-44 -57l-47 41l61 80q-25 76 -27 205q3 277 142 345q45 21 103 23q105 -1 165 -72z" glyph-name="Oslash" horiz-adv-x="570" unicode="Ø"/>
<glyph d="M450 230q0 -229 -185 -240h-17q-207 2 -208 240v490h80v-19q0 -35 -2 -180q-4 -212 -4 -287q0 -70 2 -80q10 -68 64 -104q31 -20 68 -20q78 0 112 76q10 23 14 48q2 21 2 80q0 82 -4 316q-2 133 -2 160v10h80v-490zM150 794l201 -44h-201v44z" glyph-name="Ugrave" unicode="Ù"/>
<glyph d="M450 230q0 -229 -185 -240h-17q-207 2 -208 240v490h80v-19q0 -35 -2 -180q-4 -212 -4 -287q0 -70 2 -80q10 -68 64 -104q31 -20 68 -20q78 0 112 76q10 23 14 48q2 21 2 80q0 82 -4 316q-2 133 -2 160v10h80v-490zM346 794v-44h-202z" glyph-name="Uacute" unicode="Ú"/>
<glyph d="M450 230q0 -229 -185 -240h-17q-207 2 -208 240v490h80v-19q0 -35 -2 -180q-4 -212 -4 -287q0 -70 2 -80q10 -68 64 -104q31 -20 68 -20q78 0 112 76q10 23 14 48q2 21 2 80q0 82 -4 316q-2 133 -2 160v10h80v-490zM242 800l-60 -50h-54l114 95l123 -95h-55z" glyph-name="Ucircumflex" unicode="Û"/>
<glyph d="M450 230q0 -229 -185 -240h-17q-207 2 -208 240v490h80v-19q0 -35 -2 -180q-4 -212 -4 -287q0 -70 2 -80q10 -68 64 -104q31 -20 68 -20q78 0 112 76q10 23 14 48q2 21 2 80q0 82 -4 316q-2 133 -2 160v10h80v-490zM300 750q-21 0 -29 20q-2 6 -2 11q0 22 20 30q6 2 11 2 q27 0 31 -25q1 -4 1 -7q0 -21 -21 -29q-6 -2 -11 -2zM190 750q-22 0 -30 20q-2 6 -2 11q0 27 25 31q4 1 7 1q21 0 29 -21q2 -6 2 -11q0 -21 -20 -29q-6 -2 -11 -2z" glyph-name="Udieresis" unicode="Ü"/>
<glyph d="M336 794v-44h-200zM280 330v-330h-70l10 330l-200 390h70l154 -330l156 330h72z" glyph-name="Yacute" horiz-adv-x="492" unicode="Ý"/>
<glyph d="M40 720h80v-140h112q80 -1 131 -42q42 -36 47 -127q1 -10 1 -18q0 -81 -36 -127q-6 -7 -12 -12q-48 -44 -127 -44h-116v-210h-80v575v5v140zM226 237q90 0 119 86q10 30 10 67q0 106 -62 146q-27 17 -63 17l-110 -3l-2 -314z" glyph-name="Thorn" horiz-adv-x="451" unicode="Þ"/>
<glyph d="M120 0h-80v538q3 149 135 183q33 9 69 9q158 0 168 -99q1 -8 1 -15q0 -78 -68 -106q-15 -6 -45 -14q-56 -15 -70 -33q-10 -14 -10 -33q2 -22 35 -22q15 0 55 5q53 7 81 7q106 -1 139 -75q25 -56 25 -120q0 -113 -68 -180q-56 -55 -139 -55q-66 0 -134 30l20 69 q15 -7 44 -24q47 -28 70 -35q11 -3 20 -3q50 0 89 62q33 55 33 122q-1 64 -32 114q-20 29 -105 29h-27q-19 -1 -28 -1q-97 0 -122 33q-12 17 -12 42q0 54 58 81q12 5 40 15q63 23 82 46q15 19 15 43q0 47 -47 72q-29 15 -68 15q-86 0 -110 -64q-13 -35 -14 -98v-538z" glyph-name="germandbls" horiz-adv-x="594" unicode="ß"/>
<glyph d="M296 300l-66 330l-66 -330h132zM430 0h-90l-30 250h-160l-30 -250h-90l160 720h80zM118 794l201 -44h-201v44z" glyph-name="agrave" horiz-adv-x="460" unicode="à"/>
<glyph d="M303 794v-44h-201zM296 300l-66 330l-66 -330h132zM430 0h-90l-30 250h-160l-30 -250h-90l160 720h80z" glyph-name="aacute" horiz-adv-x="460" unicode="á"/>
<glyph d="M296 300l-66 330l-66 -330h132zM430 0h-90l-30 250h-160l-30 -250h-90l160 720h80zM209 800l-60 -50h-55l115 95l122 -95h-55z" glyph-name="acircumflex" horiz-adv-x="460" unicode="â"/>
<glyph d="M296 300l-66 330l-66 -330h132zM430 0h-90l-30 250h-160l-30 -250h-90l160 720h80zM327 842v-4q-2 -82 -63 -83q-24 0 -55 29q-27 24 -44 25q-19 0 -26 -58v-1h-42v6q0 61 38 79q12 6 25 6q24 0 53 -29q27 -25 45 -26q21 0 26 51v5h43z" glyph-name="atilde" horiz-adv-x="460" unicode="ã"/>
<glyph d="M296 300l-66 330l-66 -330h132zM430 0h-90l-30 250h-160l-30 -250h-90l160 720h80zM282 750q-21 0 -29 20q-2 6 -2 11q0 22 20 30q6 2 11 2q27 0 31 -25q1 -4 1 -7q0 -21 -21 -29q-6 -2 -11 -2zM172 750q-22 0 -30 20q-2 6 -2 11q0 27 25 31q4 1 7 1q21 0 29 -21 q2 -6 2 -11q0 -21 -20 -29q-6 -2 -11 -2z" glyph-name="adieresis" horiz-adv-x="460" unicode="ä"/>
<glyph d="M296 300l-66 330l-66 -330h132zM430 0h-90l-30 250h-160l-30 -250h-90l160 720h80zM226 857q-29 0 -38 -33q-3 -9 -3 -17q0 -32 27 -46q9 -4 16 -4q23 0 36 26q5 11 5 23q0 31 -24 46q-9 5 -19 5zM299 806q0 -39 -45 -52q-14 -4 -28 -4q-46 0 -64 34q-6 12 -6 23 q0 34 36 50q17 7 35 7q45 0 64 -31q8 -13 8 -27z" glyph-name="aring" horiz-adv-x="460" unicode="å"/>
<glyph d="M340 416v304h236v-36l-156 6v-308l100 2v-34l-100 2l4 -322l156 4v-34h-158h-82l-30 250h-140l-30 -250h-100l160 720h80zM306 300l-66 330l-66 -330h132z" glyph-name="ae" horiz-adv-x="620" unicode="æ"/>
<glyph d="M294 -26q6 -2 27 -7q107 -25 118 -52q2 -5 2 -9q0 -55 -100 -82q-53 -14 -108 -14q-32 0 -49 4l1 56q56 -10 104 -10q102 1 132 50q-45 16 -178 22h-9l31 59q-211 12 -232 306q-3 36 -3 77q0 162 73 262q69 93 183 94q105 -1 169 -50l-25 -64q-17 11 -46 35 q-50 41 -79 47q-10 2 -19 2q-83 0 -136 -132q-40 -102 -40 -208q4 -214 83 -297q39 -40 93 -43q33 0 54 10q19 10 67 52q23 20 38 30l22 -66q-66 -51 -166 -56z" glyph-name="ccedilla" horiz-adv-x="507" unicode="ç"/>
<glyph d="M280 0h-240v720h236v-36l-156 6v-308l100 2v-34l-100 2l4 -322l156 4v-34zM40 794l201 -44h-201v44z" glyph-name="egrave" horiz-adv-x="320" unicode="è"/>
<glyph d="M280 0h-240v720h236v-36l-156 6v-308l100 2v-34l-100 2l4 -322l156 4v-34zM276 794v-44h-202z" glyph-name="eacute" horiz-adv-x="320" unicode="é"/>
<glyph d="M280 0h-240v720h236v-36l-156 6v-308l100 2v-34l-100 2l4 -322l156 4v-34zM156 800l-60 -50h-55l115 95l121 -95h-55z" glyph-name="ecircumflex" horiz-adv-x="320" unicode="ê"/>
<glyph d="M280 0h-240v720h236v-36l-156 6v-308l100 2v-34l-100 2l4 -322l156 4v-34zM213 750q-21 0 -29 20q-2 6 -2 11q0 22 20 30q6 2 11 2q27 0 31 -25q1 -4 1 -7q0 -21 -21 -29q-6 -2 -11 -2zM103 750q-22 0 -30 20q-2 6 -2 11q0 27 25 31q4 1 7 1q21 0 29 -21q2 -6 2 -11 q0 -21 -20 -29q-6 -2 -11 -2z" glyph-name="edieresis" horiz-adv-x="320" unicode="ë"/>
<glyph d="M40 0v34l70 -4v660l-70 -7v37h220v-37l-70 7v-660l70 4v-34h-220zM40 794l201 -44h-201v44z" glyph-name="igrave" horiz-adv-x="300" unicode="ì"/>
<glyph d="M40 0v34l70 -4v660l-70 -7v37h220v-37l-70 7v-660l70 4v-34h-220zM260 794v-44h-202z" glyph-name="iacute" horiz-adv-x="300" unicode="í"/>
<glyph d="M40 0v34l70 -4v660l-70 -7v37h220v-37l-70 7v-660l70 4v-34h-220zM148 800l-56 -50h-51l107 95l113 -95h-51z" glyph-name="icircumflex" horiz-adv-x="300" unicode="î"/>
<glyph d="M40 0v34l70 -4v660l-70 -7v37h220v-37l-70 7v-660l70 4v-34h-220zM205 750q-21 0 -29 20q-2 6 -2 11q0 22 20 30q6 2 11 2q27 0 31 -25q1 -4 1 -7q0 -21 -21 -29q-6 -2 -11 -2zM95 750q-22 0 -30 20q-2 6 -2 11q0 27 25 31q4 1 7 1q21 0 29 -21q2 -6 2 -11q0 -21 -20 -29 q-6 -2 -11 -2z" glyph-name="idieresis" horiz-adv-x="300" unicode="ï"/>
<glyph d="M277 -10q-132 0 -198 101q-44 68 -44 161q0 157 94 231q60 47 148 47q39 0 73 -9q-45 56 -73 84l-133 -38l-18 39l115 32q-61 54 -124 82h69l53 -28q29 -18 56 -38l137 38l17 -39l-114 -32q118 -104 162 -240q9 -27 15 -55v-4q1 -4 1 -5q5 -34 5 -64q0 -130 -83 -205 q-65 -58 -158 -58zM280 24q83 0 127 100q30 68 30 152q0 35 -6 66q-13 88 -70 130q-9 7 -18 11q-33 17 -67 17q-37 0 -69 -17q-61 -34 -81 -117q-3 -13 -5 -26q-7 -60 -7 -75q0 -24 11 -81q41 -159 155 -160z" glyph-name="eth" horiz-adv-x="553" unicode="ð"/>
<glyph d="M381 102l-5 618h74v-720h-90l-250 630l10 -630h-80v720h84zM360 842v-4q-2 -82 -63 -83q-24 0 -55 29q-27 24 -44 25q-19 0 -26 -58v-1h-42v6q0 61 38 79q12 6 25 6q24 0 53 -29q27 -25 45 -26q21 0 26 51v5h43z" glyph-name="ntilde" unicode="ñ"/>
<glyph d="M275 26q127 0 158 203q8 56 8 121q0 81 -11 147q-32 167 -118 192q-18 5 -36 5q-113 0 -150 -167q-3 -14 -6 -30q-11 -83 -11 -153q0 -234 95 -297q32 -21 71 -21zM275 730q179 0 228 -205q17 -70 17 -156v-5q0 -91 -15 -163q-23 -123 -114 -180q-52 -31 -113 -31h-2 q-54 0 -104 23q-1 1 -2 1q-116 65 -135 254q-4 41 -5 94q3 277 142 345q45 21 103 23zM174 794l201 -44h-201v44z" glyph-name="ograve" horiz-adv-x="550" unicode="ò"/>
<glyph d="M275 26q127 0 158 203q8 56 8 121q0 81 -11 147q-32 167 -118 192q-18 5 -36 5q-113 0 -150 -167q-3 -14 -6 -30q-11 -83 -11 -153q0 -234 95 -297q32 -21 71 -21zM275 730q179 0 228 -205q17 -70 17 -156v-5q0 -91 -15 -163q-23 -123 -114 -180q-52 -31 -113 -31h-2 q-54 0 -104 23q-1 1 -2 1q-116 65 -135 254q-4 41 -5 94q3 277 142 345q45 21 103 23zM376 794v-44h-202z" glyph-name="oacute" horiz-adv-x="550" unicode="ó"/>
<glyph d="M275 26q127 0 158 203q8 56 8 121q0 81 -11 147q-32 167 -118 192q-18 5 -36 5q-113 0 -150 -167q-3 -14 -6 -30q-11 -83 -11 -153q0 -234 95 -297q32 -21 71 -21zM275 730q179 0 228 -205q17 -70 17 -156v-5q0 -91 -15 -163q-23 -123 -114 -180q-52 -31 -113 -31h-2 q-54 0 -104 23q-1 1 -2 1q-116 65 -135 254q-4 41 -5 94q3 277 142 345q45 21 103 23zM272 800l-60 -50h-54l114 95l123 -95h-55z" glyph-name="ocircumflex" horiz-adv-x="550" unicode="ô"/>
<glyph d="M275 26q127 0 158 203q8 56 8 121q0 81 -11 147q-32 167 -118 192q-18 5 -36 5q-113 0 -150 -167q-3 -14 -6 -30q-11 -83 -11 -153q0 -234 95 -297q32 -21 71 -21zM275 730q179 0 228 -205q17 -70 17 -156v-5q0 -91 -15 -163q-23 -123 -114 -180q-52 -31 -113 -31h-2 q-54 0 -104 23q-1 1 -2 1q-116 65 -135 254q-4 41 -5 94q3 277 142 345q45 21 103 23zM390 842v-4q-2 -82 -63 -83q-24 0 -55 29q-27 24 -44 25q-19 0 -26 -58v-1h-42v6q0 61 38 79q12 6 25 6q24 0 53 -29q27 -25 45 -26q21 0 26 51v5h43z" glyph-name="otilde" horiz-adv-x="550" unicode="õ"/>
<glyph d="M275 26q127 0 158 203q8 56 8 121q0 81 -11 147q-32 167 -118 192q-18 5 -36 5q-113 0 -150 -167q-3 -14 -6 -30q-11 -83 -11 -153q0 -234 95 -297q32 -21 71 -21zM275 730q179 0 228 -205q17 -70 17 -156v-5q0 -91 -15 -163q-23 -123 -114 -180q-52 -31 -113 -31h-2 q-54 0 -104 23q-1 1 -2 1q-116 65 -135 254q-4 41 -5 94q3 277 142 345q45 21 103 23zM332 750q-21 0 -29 20q-2 6 -2 11q0 22 20 30q6 2 11 2q27 0 31 -25q1 -4 1 -7q0 -21 -21 -29q-6 -2 -11 -2zM222 750q-22 0 -30 20q-2 6 -2 11q0 27 25 31q4 1 7 1q21 0 29 -21 q2 -6 2 -11q0 -21 -20 -29q-6 -2 -11 -2z" glyph-name="odieresis" horiz-adv-x="550" unicode="ö"/>
<glyph d="M250 166q-26 0 -38 25q-4 9 -4 17q0 26 25 38q9 4 17 4q26 0 38 -25q4 -9 4 -17q0 -26 -25 -38q-9 -4 -17 -4zM250 460q-26 0 -38 25q-4 9 -4 17q0 26 25 38q9 4 17 4q26 0 38 -25q4 -9 4 -17q0 -26 -25 -38q-9 -4 -17 -4zM40 328v62h420v-62h-420z" glyph-name="divide" horiz-adv-x="500" unicode="÷"/>
<glyph d="M361 507l-92 -339q14 -2 21 -2q71 0 114 74q11 18 18 37q11 28 11 67q0 87 -53 145q-10 10 -19 18zM284 535q-76 0 -118 -79q-27 -50 -27 -107q0 -37 12 -68q20 -53 59 -86l91 339q-6 1 -17 1zM351 720h68l-47 -172q105 -31 146 -116q19 -41 19 -87q0 -108 -101 -166 q-68 -39 -152 -39q-15 0 -22 1l-38 -141h-66l41 152l-9 3q-101 33 -136 122q-14 35 -14 71q0 91 72 152q34 29 78 44q46 16 97 16q14 0 21 -1z" glyph-name="oslash" horiz-adv-x="577" unicode="ø"/>
<glyph d="M450 230q0 -229 -185 -240h-17q-207 2 -208 240v490h80v-19q0 -35 -2 -180q-4 -212 -4 -287q0 -70 2 -80q10 -68 64 -104q31 -20 68 -20q78 0 112 76q10 23 14 48q2 21 2 80q0 82 -4 316q-2 133 -2 160v10h80v-490zM150 794l201 -44h-201v44z" glyph-name="ugrave" unicode="ù"/>
<glyph d="M450 230q0 -229 -185 -240h-17q-207 2 -208 240v490h80v-19q0 -35 -2 -180q-4 -212 -4 -287q0 -70 2 -80q10 -68 64 -104q31 -20 68 -20q78 0 112 76q10 23 14 48q2 21 2 80q0 82 -4 316q-2 133 -2 160v10h80v-490zM346 794v-44h-202z" glyph-name="uacute" unicode="ú"/>
<glyph d="M450 230q0 -229 -185 -240h-17q-207 2 -208 240v490h80v-19q0 -35 -2 -180q-4 -212 -4 -287q0 -70 2 -80q10 -68 64 -104q31 -20 68 -20q78 0 112 76q10 23 14 48q2 21 2 80q0 82 -4 316q-2 133 -2 160v10h80v-490zM242 800l-60 -50h-54l114 95l123 -95h-55z" glyph-name="ucircumflex" unicode="û"/>
<glyph d="M450 230q0 -229 -185 -240h-17q-207 2 -208 240v490h80v-19q0 -35 -2 -180q-4 -212 -4 -287q0 -70 2 -80q10 -68 64 -104q31 -20 68 -20q78 0 112 76q10 23 14 48q2 21 2 80q0 82 -4 316q-2 133 -2 160v10h80v-490zM300 750q-21 0 -29 20q-2 6 -2 11q0 22 20 30q6 2 11 2 q27 0 31 -25q1 -4 1 -7q0 -21 -21 -29q-6 -2 -11 -2zM190 750q-22 0 -30 20q-2 6 -2 11q0 27 25 31q4 1 7 1q21 0 29 -21q2 -6 2 -11q0 -21 -20 -29q-6 -2 -11 -2z" glyph-name="udieresis" unicode="ü"/>
<glyph d="M336 794v-44h-200zM280 330v-330h-70l10 330l-200 390h70l154 -330l156 330h72z" glyph-name="yacute" horiz-adv-x="492" unicode="ý"/>
<glyph d="M40 720h80v-140h112q80 -1 131 -42q42 -36 47 -127q1 -10 1 -18q0 -81 -36 -127q-6 -7 -12 -12q-48 -44 -127 -44h-116v-210h-80v575v5v140zM226 237q90 0 119 86q10 30 10 67q0 106 -62 146q-27 17 -63 17l-110 -3l-2 -314z" glyph-name="thorn" horiz-adv-x="451" unicode="þ"/>
<glyph d="M296 300l-66 330l-66 -330h132zM430 0h-90l-30 250h-160l-30 -250h-90l160 720h80zM125 750v30h174v-30h-174z" glyph-name="Amacron" horiz-adv-x="460" unicode="Ā"/>
<glyph d="M296 300l-66 330l-66 -330h132zM430 0h-90l-30 250h-160l-30 -250h-90l160 720h80zM125 750v30h174v-30h-174z" glyph-name="amacron" horiz-adv-x="460" unicode="ā"/>
<glyph d="M296 300l-66 330l-66 -330h132zM430 0h-90l-30 250h-160l-30 -250h-90l160 720h80zM309 813q0 -42 -55 -57q-20 -6 -42 -6q-65 0 -89 35q-9 13 -9 28h22q0 -23 57 -28q10 -1 19 -1q61 0 73 22q2 4 2 7h22z" glyph-name="Abreve" horiz-adv-x="460" unicode="Ă"/>
<glyph d="M296 300l-66 330l-66 -330h132zM430 0h-90l-30 250h-160l-30 -250h-90l160 720h80zM125 750v30h174v-30h-174z" glyph-name="abreve" horiz-adv-x="460" unicode="ă"/>
<glyph d="M376 0l31 -58q-102 -3 -172 -18q-9 -2 -15 -4q31 -50 132 -50q48 0 104 10l1 -56q-18 -4 -49 -4q-101 0 -164 36q-43 26 -44 60q0 33 108 59q29 7 34 9l-2 16l-30 250h-160l-30 -250h-90l160 720h80l160 -720h-54zM296 300l-66 330l-66 -330h132z" glyph-name="Aogonek" horiz-adv-x="497" unicode="Ą"/>
<glyph d="M376 0l31 -58q-102 -3 -172 -18q-9 -2 -15 -4q31 -50 132 -50q48 0 104 10l1 -56q-18 -4 -49 -4q-101 0 -164 36q-43 26 -44 60q0 33 108 59q29 7 34 9l-2 16l-30 250h-160l-30 -250h-90l160 720h80l160 -720h-54zM296 300l-66 330l-66 -330h132z" glyph-name="aogonek" horiz-adv-x="497" unicode="ą"/>
<glyph d="M467 46q-72 -56 -181 -56q-218 0 -250 271q-6 51 -6 113q0 162 73 262q69 93 183 94q105 -1 169 -50l-25 -64q-17 11 -46 35q-50 41 -79 47q-10 2 -19 2q-83 0 -136 -132q-40 -102 -40 -208q4 -214 83 -297q39 -40 93 -43q33 0 54 10q19 10 67 52q23 20 38 30zM378 794 v-44h-202z" glyph-name="Cacute" horiz-adv-x="507" unicode="Ć"/>
<glyph d="M467 46q-72 -56 -181 -56q-218 0 -250 271q-6 51 -6 113q0 162 73 262q69 93 183 94q105 -1 169 -50l-25 -64q-17 11 -46 35q-50 41 -79 47q-10 2 -19 2q-83 0 -136 -132q-40 -102 -40 -208q4 -214 83 -297q39 -40 93 -43q33 0 54 10q19 10 67 52q23 20 38 30zM378 794 v-44h-202z" glyph-name="cacute" horiz-adv-x="507" unicode="ć"/>
<glyph d="M467 46q-72 -56 -181 -56q-218 0 -250 271q-6 51 -6 113q0 162 73 262q69 93 183 94q105 -1 169 -50l-25 -64q-17 11 -46 35q-50 41 -79 47q-10 2 -19 2q-83 0 -136 -132q-40 -102 -40 -208q4 -214 83 -297q39 -40 93 -43q33 0 54 10q19 10 67 52q23 20 38 30zM274 800 l-60 -50h-54l114 95l123 -95h-55z" glyph-name="Ccircumflex" horiz-adv-x="507" unicode="Ĉ"/>
<glyph d="M467 46q-72 -56 -181 -56q-218 0 -250 271q-6 51 -6 113q0 162 73 262q69 93 183 94q105 -1 169 -50l-25 -64q-17 11 -46 35q-50 41 -79 47q-10 2 -19 2q-83 0 -136 -132q-40 -102 -40 -208q4 -214 83 -297q39 -40 93 -43q33 0 54 10q19 10 67 52q23 20 38 30zM274 800 l-60 -50h-54l114 95l123 -95h-55z" glyph-name="ccircumflex" horiz-adv-x="507" unicode="ĉ"/>
<glyph d="M467 46q-72 -56 -181 -56q-218 0 -250 271q-6 51 -6 113q0 162 73 262q69 93 183 94q105 -1 169 -50l-25 -64q-17 11 -46 35q-50 41 -79 47q-10 2 -19 2q-83 0 -136 -132q-40 -102 -40 -208q4 -214 83 -297q39 -40 93 -43q33 0 54 10q19 10 67 52q23 20 38 30zM277 750 q-28 0 -41 27q-4 9 -4 18q0 28 27 41q9 4 18 4q28 0 41 -27q4 -9 4 -18q0 -28 -27 -41q-9 -4 -18 -4z" glyph-name="Cdotaccent" horiz-adv-x="507" unicode="Ċ"/>
<glyph d="M467 46q-72 -56 -181 -56q-218 0 -250 271q-6 51 -6 113q0 162 73 262q69 93 183 94q105 -1 169 -50l-25 -64q-17 11 -46 35q-50 41 -79 47q-10 2 -19 2q-83 0 -136 -132q-40 -102 -40 -208q4 -214 83 -297q39 -40 93 -43q33 0 54 10q19 10 67 52q23 20 38 30zM274 800 l-60 -50h-54l114 95l123 -95h-55z" glyph-name="cdotaccent" horiz-adv-x="507" unicode="ċ"/>
<glyph d="M467 46q-72 -56 -181 -56q-218 0 -250 271q-6 51 -6 113q0 162 73 262q69 93 183 94q105 -1 169 -50l-25 -64q-17 11 -46 35q-50 41 -79 47q-10 2 -19 2q-83 0 -136 -132q-40 -102 -40 -208q4 -214 83 -297q39 -40 93 -43q33 0 54 10q19 10 67 52q23 20 38 30zM280 795 l60 50h55l-115 -95l-122 95h56z" glyph-name="Ccaron" horiz-adv-x="507" unicode="Č"/>
<glyph d="M467 46q-72 -56 -181 -56q-218 0 -250 271q-6 51 -6 113q0 162 73 262q69 93 183 94q105 -1 169 -50l-25 -64q-17 11 -46 35q-50 41 -79 47q-10 2 -19 2q-83 0 -136 -132q-40 -102 -40 -208q4 -214 83 -297q39 -40 93 -43q33 0 54 10q19 10 67 52q23 20 38 30zM274 800 l-60 -50h-54l114 95l123 -95h-55z" glyph-name="ccaron" horiz-adv-x="507" unicode="č"/>
<glyph d="M120 30q12 0 37 -1q23 -1 33 -1q44 0 67 14q91 59 128 185q18 62 18 128v13q-5 164 -93 263q-28 31 -60 50q-18 13 -55 13q-12 0 -37 -2h-6.5t-6 -0.5t-5 -0.5h-5h-4t-3 -0.5t-3 -0.5h-2.5h-2h-1v-660zM206 720q151 0 225 -134q52 -94 52 -226q-1 -171 -79 -265 q-78 -95 -196 -95h-168v720h166zM165 795l60 50h55l-115 -95l-122 95h55z" glyph-name="Dcaron" horiz-adv-x="513" unicode="Ď"/>
<glyph d="M120 30q12 0 37 -1q23 -1 33 -1q44 0 67 14q91 59 128 185q18 62 18 128v13q-5 164 -93 263q-28 31 -60 50q-18 13 -55 13q-12 0 -37 -2h-6.5t-6 -0.5t-5 -0.5h-5h-4t-3 -0.5t-3 -0.5h-2.5h-2h-1v-660zM206 720q151 0 225 -134q52 -94 52 -226q-1 -171 -79 -265 q-78 -95 -196 -95h-168v720h166zM518 730q32 0 48 -33q6 -14 6 -28q-1 -77 -85 -120l-10 18q41 22 42 66q-31 4 -42 32q-4 9 -4 18q0 34 29 44q8 3 16 3z" glyph-name="dcaron" horiz-adv-x="612" unicode="ď"/>
<glyph d="M190 30q12 0 37 -1q23 -1 33 -1q44 0 67 14q91 59 128 185q18 62 18 128v13q-5 164 -93 263q-28 31 -60 50q-18 13 -55 13q-12 0 -37 -2h-6.5t-6 -0.5t-5 -0.5h-5h-4t-3 -0.5t-3 -0.5h-2.5h-2h-1v-304h114v-58h-114v-298zM40 328v58h70v334h166q151 0 225 -134 q52 -94 52 -226q-1 -171 -79 -265q-78 -95 -196 -95h-168v328h-70z" glyph-name="Dcroat" horiz-adv-x="593" unicode="Đ"/>
<glyph d="M190 30q12 0 37 -1q23 -1 33 -1q44 0 67 14q91 59 128 185q18 62 18 128v13q-5 164 -93 263q-28 31 -60 50q-18 13 -55 13q-12 0 -37 -2h-6.5t-6 -0.5t-5 -0.5h-5h-4t-3 -0.5t-3 -0.5h-2.5h-2h-1v-304h114v-58h-114v-298zM40 328v58h70v334h166q151 0 225 -134 q52 -94 52 -226q-1 -171 -79 -265q-78 -95 -196 -95h-168v328h-70z" glyph-name="dcroat" horiz-adv-x="593" unicode="đ"/>
<glyph d="M280 0h-240v720h236v-36l-156 6v-308l100 2v-34l-100 2l4 -322l156 4v-34zM71 750v30h174v-30h-174z" glyph-name="Emacron" horiz-adv-x="320" unicode="Ē"/>
<glyph d="M280 0h-240v720h236v-36l-156 6v-308l100 2v-34l-100 2l4 -322l156 4v-34zM71 750v30h174v-30h-174z" glyph-name="emacron" horiz-adv-x="320" unicode="ē"/>
<glyph d="M280 0h-240v720h236v-36l-156 6v-308l100 2v-34l-100 2l4 -322l156 4v-34zM256 813q0 -41 -55 -57q-21 -6 -43 -6q-65 0 -89 35q-9 13 -9 28h22q0 -23 57 -28q10 -1 19 -1q62 0 74 22q2 4 2 7h22z" glyph-name="Ebreve" horiz-adv-x="320" unicode="Ĕ"/>
<glyph d="M280 0h-240v720h236v-36l-156 6v-308l100 2v-34l-100 2l4 -322l156 4v-34zM256 813q0 -41 -55 -57q-21 -6 -43 -6q-65 0 -89 35q-9 13 -9 28h22q0 -23 57 -28q10 -1 19 -1q62 0 74 22q2 4 2 7h22z" glyph-name="ebreve" horiz-adv-x="320" unicode="ĕ"/>
<glyph d="M280 0h-240v720h236v-36l-156 6v-308l100 2v-34l-100 2l4 -322l156 4v-34zM158 750q-28 0 -41 27q-4 9 -4 18q0 28 27 41q9 4 18 4q28 0 41 -27q4 -9 4 -18q0 -28 -27 -41q-9 -4 -18 -4z" glyph-name="Edotaccent" horiz-adv-x="320" unicode="Ė"/>
<glyph d="M280 0h-240v720h236v-36l-156 6v-308l100 2v-34l-100 2l4 -322l156 4v-34zM158 750q-28 0 -41 27q-4 9 -4 18q0 28 27 41q9 4 18 4q28 0 41 -27q4 -9 4 -18q0 -28 -27 -41q-9 -4 -18 -4z" glyph-name="edotaccent" horiz-adv-x="320" unicode="ė"/>
<glyph d="M196 0l31 -58q-102 -3 -172 -18q-9 -2 -15 -4q31 -50 132 -50q48 0 104 10l1 -56q-18 -4 -49 -4q-101 0 -164 36q-43 26 -44 60q0 33 111 59q31 7 36 9l-7 16h-120v720h236v-36l-156 6v-308l100 2v-34l-100 2l4 -322l156 4v-34h-84z" glyph-name="Eogonek" horiz-adv-x="320" unicode="Ę"/>
<glyph d="M196 0l31 -58q-102 -3 -172 -18q-9 -2 -15 -4q31 -50 132 -50q48 0 104 10l1 -56q-18 -4 -49 -4q-101 0 -164 36q-43 26 -44 60q0 33 111 59q31 7 36 9l-7 16h-120v720h236v-36l-156 6v-308l100 2v-34l-100 2l4 -322l156 4v-34h-84z" glyph-name="eogonek" horiz-adv-x="320" unicode="ę"/>
<glyph d="M280 0h-240v720h236v-36l-156 6v-308l100 2v-34l-100 2l4 -322l156 4v-34zM161 795l60 50h55l-115 -95l-121 95h55z" glyph-name="Ecaron" horiz-adv-x="320" unicode="Ě"/>
<glyph d="M280 0h-240v720h236v-36l-156 6v-308l100 2v-34l-100 2l4 -322l156 4v-34zM161 795l60 50h55l-115 -95l-121 95h55z" glyph-name="ecaron" horiz-adv-x="320" unicode="ě"/>
<glyph d="M480 376l-19 -306q-76 -58 -119 -72q-26 -8 -51 -8h-5h-9q-173 0 -226 203q-21 79 -21 181q0 178 78 276q65 79 169 80h10q106 -2 169 -50l-25 -64q-17 11 -46 35q-51 41 -80 47q-10 2 -19 2q-84 0 -136 -133q-39 -101 -39 -207v-6q0 -178 63 -267q17 -22 35 -36 q31 -21 70 -21q54 0 111 50q9 8 15 14l-14 256l-120 -6v32h209zM275 800l-60 -50h-55l115 95l122 -95h-55z" glyph-name="Gcircumflex" horiz-adv-x="520" unicode="Ĝ"/>
<glyph d="M480 376l-19 -306q-76 -58 -119 -72q-26 -8 -51 -8h-5h-9q-173 0 -226 203q-21 79 -21 181q0 178 78 276q65 79 169 80h10q106 -2 169 -50l-25 -64q-17 11 -46 35q-51 41 -80 47q-10 2 -19 2q-84 0 -136 -133q-39 -101 -39 -207v-6q0 -178 63 -267q17 -22 35 -36 q31 -21 70 -21q54 0 111 50q9 8 15 14l-14 256l-120 -6v32h209zM275 800l-60 -50h-55l115 95l122 -95h-55z" glyph-name="gcircumflex" horiz-adv-x="520" unicode="ĝ"/>
<glyph d="M480 376l-19 -306q-76 -58 -119 -72q-26 -8 -51 -8h-5h-9q-173 0 -226 203q-21 79 -21 181q0 178 78 276q65 79 169 80h10q106 -2 169 -50l-25 -64q-17 11 -46 35q-51 41 -80 47q-10 2 -19 2q-84 0 -136 -133q-39 -101 -39 -207v-6q0 -178 63 -267q17 -22 35 -36 q31 -21 70 -21q54 0 111 50q9 8 15 14l-14 256l-120 -6v32h209zM375 813q0 -42 -55 -57q-20 -6 -42 -6q-65 0 -89 35q-9 13 -9 28h22q0 -23 57 -28q10 -1 19 -1q61 0 73 22q2 4 2 7h22z" glyph-name="Gbreve" horiz-adv-x="520" unicode="Ğ"/>
<glyph d="M480 376l-19 -306q-76 -58 -119 -72q-26 -8 -51 -8h-5h-9q-173 0 -226 203q-21 79 -21 181q0 178 78 276q65 79 169 80h10q106 -2 169 -50l-25 -64q-17 11 -46 35q-51 41 -80 47q-10 2 -19 2q-84 0 -136 -133q-39 -101 -39 -207v-6q0 -178 63 -267q17 -22 35 -36 q31 -21 70 -21q54 0 111 50q9 8 15 14l-14 256l-120 -6v32h209zM375 813q0 -42 -55 -57q-20 -6 -42 -6q-65 0 -89 35q-9 13 -9 28h22q0 -23 57 -28q10 -1 19 -1q61 0 73 22q2 4 2 7h22z" glyph-name="gbreve" horiz-adv-x="520" unicode="ğ"/>
<glyph d="M480 376l-19 -306q-76 -58 -119 -72q-26 -8 -51 -8h-5h-9q-173 0 -226 203q-21 79 -21 181q0 178 78 276q65 79 169 80h10q106 -2 169 -50l-25 -64q-17 11 -46 35q-51 41 -80 47q-10 2 -19 2q-84 0 -136 -133q-39 -101 -39 -207v-6q0 -178 63 -267q17 -22 35 -36 q31 -21 70 -21q54 0 111 50q9 8 15 14l-14 256l-120 -6v32h209zM277 750q-28 0 -41 27q-4 9 -4 18q0 28 27 41q9 4 18 4q28 0 41 -27q4 -9 4 -18q0 -28 -27 -41q-9 -4 -18 -4z" glyph-name="Gdotaccent" horiz-adv-x="520" unicode="Ġ"/>
<glyph d="M480 376l-19 -306q-76 -58 -119 -72q-26 -8 -51 -8h-5h-9q-173 0 -226 203q-21 79 -21 181q0 178 78 276q65 79 169 80h10q106 -2 169 -50l-25 -64q-17 11 -46 35q-51 41 -80 47q-10 2 -19 2q-84 0 -136 -133q-39 -101 -39 -207v-6q0 -178 63 -267q17 -22 35 -36 q31 -21 70 -21q54 0 111 50q9 8 15 14l-14 256l-120 -6v32h209zM277 750q-28 0 -41 27q-4 9 -4 18q0 28 27 41q9 4 18 4q28 0 41 -27q4 -9 4 -18q0 -28 -27 -41q-9 -4 -18 -4z" glyph-name="gdotaccent" horiz-adv-x="520" unicode="ġ"/>
<glyph d="M480 376l-19 -306q-76 -58 -119 -72q-26 -8 -51 -8h-5h-9q-173 0 -226 203q-21 79 -21 181q0 178 78 276q65 79 169 80h10q106 -2 169 -50l-25 -64q-17 11 -46 35q-51 41 -80 47q-10 2 -19 2q-84 0 -136 -133q-39 -101 -39 -207v-6q0 -178 63 -267q17 -22 35 -36 q31 -21 70 -21q54 0 111 50q9 8 15 14l-14 256l-120 -6v32h209zM279 -40q32 0 48 -33q6 -14 6 -28q-1 -77 -85 -120l-10 18q41 22 42 66q-31 4 -42 32q-4 9 -4 18q0 34 29 44q8 3 16 3z" glyph-name="uni0122" horiz-adv-x="520" unicode="Ģ"/>
<glyph d="M480 376l-19 -306q-76 -58 -119 -72q-26 -8 -51 -8h-5h-9q-173 0 -226 203q-21 79 -21 181q0 178 78 276q65 79 169 80h10q106 -2 169 -50l-25 -64q-17 11 -46 35q-51 41 -80 47q-10 2 -19 2q-84 0 -136 -133q-39 -101 -39 -207v-6q0 -178 63 -267q17 -22 35 -36 q31 -21 70 -21q54 0 111 50q9 8 15 14l-14 256l-120 -6v32h209zM282 780q-32 0 -48 33q-6 14 -6 28q1 77 85 120l10 -18q-41 -22 -42 -66q31 -4 42 -32q4 -9 4 -18q0 -34 -29 -44q-8 -3 -16 -3z" glyph-name="uni0123" horiz-adv-x="520" unicode="ģ"/>
<glyph d="M400 0h-80l10 390h-220l10 -390h-80v720h80l-10 -300h220l-10 300h80v-720zM218 800l-60 -50h-56l116 95l121 -95h-55z" glyph-name="Hcircumflex" horiz-adv-x="440" unicode="Ĥ"/>
<glyph d="M400 0h-80l10 390h-220l10 -390h-80v720h80l-10 -300h220l-10 300h80v-720zM218 800l-60 -50h-56l116 95l121 -95h-55z" glyph-name="hcircumflex" horiz-adv-x="440" unicode="ĥ"/>
<glyph d="M368 488h-216l-2 -68h220zM40 488v58h40v174h80l-6 -174h212l-6 174h80v-174h40v-58h-40v-488h-80l10 390h-220l10 -390h-80v488h-40z" glyph-name="Hbar" horiz-adv-x="520" unicode="Ħ"/>
<glyph d="M368 488h-216l-2 -68h220zM40 488v58h40v174h80l-6 -174h212l-6 174h80v-174h40v-58h-40v-488h-80l10 390h-220l10 -390h-80v488h-40z" glyph-name="hbar" horiz-adv-x="520" unicode="ħ"/>
<glyph d="M40 0v34l70 -4v660l-70 -7v37h220v-37l-70 7v-660l70 4v-34h-220zM260 842v-4q-2 -82 -60 -83q-23 0 -53 29q-26 24 -42 25q-18 0 -25 -58v-1h-40v6q0 61 36 79q12 6 24 6q23 0 51 -29q26 -25 43 -26q20 0 25 51v5h41z" glyph-name="Itilde" horiz-adv-x="300" unicode="Ĩ"/>
<glyph d="M40 0v34l70 -4v660l-70 -7v37h220v-37l-70 7v-660l70 4v-34h-220zM260 842v-4q-2 -82 -60 -83q-23 0 -53 29q-26 24 -42 25q-18 0 -25 -58v-1h-40v6q0 61 36 79q12 6 24 6q23 0 51 -29q26 -25 43 -26q20 0 25 51v5h41z" glyph-name="itilde" horiz-adv-x="300" unicode="ĩ"/>
<glyph d="M40 0v34l70 -4v660l-70 -7v37h220v-37l-70 7v-660l70 4v-34h-220zM63 750v30h174v-30h-174z" glyph-name="Imacron" horiz-adv-x="300" unicode="Ī"/>
<glyph d="M40 0v34l70 -4v660l-70 -7v37h220v-37l-70 7v-660l70 4v-34h-220zM63 750v30h174v-30h-174z" glyph-name="imacron" horiz-adv-x="300" unicode="ī"/>
<glyph d="M40 0v34l70 -4v660l-70 -7v37h220v-37l-70 7v-660l70 4v-34h-220zM248 813q0 -41 -55 -57q-21 -6 -43 -6q-65 0 -89 35q-9 13 -9 28h22q0 -23 57 -28q10 -1 19 -1q62 0 74 22q2 4 2 7h22z" glyph-name="Ibreve" horiz-adv-x="300" unicode="Ĭ"/>
<glyph d="M40 0v34l70 -4v660l-70 -7v37h220v-37l-70 7v-660l70 4v-34h-220zM248 813q0 -41 -55 -57q-21 -6 -43 -6q-65 0 -89 35q-9 13 -9 28h22q0 -23 57 -28q10 -1 19 -1q62 0 74 22q2 4 2 7h22z" glyph-name="ibreve" horiz-adv-x="300" unicode="ĭ"/>
<glyph d="M40 0v34l70 -4v660l-70 -7v37h220v-37l-70 7v-660l70 4v-34h-90l31 -58q-102 -3 -172 -18q-9 -2 -15 -4q31 -50 132 -50q48 0 104 10l1 -56q-18 -4 -49 -4q-101 0 -164 36q-43 26 -44 60q0 33 111 59q31 7 36 9l-7 16h-94z" glyph-name="Iogonek" horiz-adv-x="300" unicode="Į"/>
<glyph d="M40 0v34l70 -4v660l-70 -7v37h220v-37l-70 7v-660l70 4v-34h-90l31 -58q-102 -3 -172 -18q-9 -2 -15 -4q31 -50 132 -50q48 0 104 10l1 -56q-18 -4 -49 -4q-101 0 -164 36q-43 26 -44 60q0 33 111 59q31 7 36 9l-7 16h-94z" glyph-name="iogonek" horiz-adv-x="300" unicode="į"/>
<glyph d="M40 0v34l70 -4v660l-70 -7v37h220v-37l-70 7v-660l70 4v-34h-220zM150 750q-28 0 -41 27q-4 9 -4 18q0 28 27 41q9 4 18 4q28 0 41 -27q4 -9 4 -18q0 -28 -27 -41q-9 -4 -18 -4z" glyph-name="Idotaccent" horiz-adv-x="300" unicode="İ"/>
<glyph d="M40 0v34l70 -4v660l-70 -7v37h220v-37l-70 7v-660l70 4v-34h-220z" glyph-name="dotlessi" horiz-adv-x="300" unicode="ı"/>
<glyph d="M40 0v34l70 -4v660l-70 -7v37h220v-37l-70 7v-660l70 4v-34h-220zM280 30h2q50 0 82 50q26 43 26 110v530h70l1 -529q0 -156 -114 -192q-31 -9 -67 -9v40z" glyph-name="IJ" horiz-adv-x="561" unicode="Ĳ"/>
<glyph d="M40 0v34l70 -4v660l-70 -7v37h220v-37l-70 7v-660l70 4v-34h-220zM280 30h2q50 0 82 50q26 43 26 110v530h70l1 -529q0 -156 -114 -192q-31 -9 -67 -9v40z" glyph-name="ij" horiz-adv-x="561" unicode="ĳ"/>
<glyph d="M40 30h2q50 0 82 50q26 43 26 110v530h70l1 -529q0 -156 -114 -192q-31 -9 -67 -9v40zM182 800l-60 -50h-54l114 95l123 -95h-55z" glyph-name="Jcircumflex" horiz-adv-x="261" unicode="Ĵ"/>
<glyph d="M40 30h2q50 0 82 50q26 43 26 110v530h70l1 -529q0 -156 -114 -192q-31 -9 -67 -9v40zM182 800l-60 -50h-54l114 95l123 -95h-55z" glyph-name="jcircumflex" horiz-adv-x="261" unicode="ĵ"/>
<glyph d="M430 0h-100l-150 358l-70 -118l10 -240h-80v720h80l-10 -370l230 370h90l-222 -330zM230 -30q32 0 48 -33q7 -14 7 -28q-1 -77 -85 -120l-10 18q41 22 42 66q-31 4 -42 32q-4 9 -4 18q0 35 30 45q7 2 14 2z" glyph-name="uni0136" horiz-adv-x="450" unicode="Ķ"/>
<glyph d="M430 0h-100l-150 358l-70 -118l10 -240h-80v720h80l-10 -370l230 370h90l-222 -330zM230 -30q32 0 48 -33q7 -14 7 -28q-1 -77 -85 -120l-10 18q41 22 42 66q-31 4 -42 32q-4 9 -4 18q0 35 30 45q7 2 14 2z" glyph-name="uni0137" horiz-adv-x="450" unicode="ķ"/>
<glyph d="M430 0h-100l-150 358l-70 -118l10 -240h-80v720h80l-10 -370l230 370h90l-222 -330z" glyph-name="kgreenlandic" horiz-adv-x="470" unicode="ĸ"/>
<glyph d="M40 0v720h80v-690l110 10v-40h-190zM180 794v-44h-200z" glyph-name="Lacute" horiz-adv-x="270" unicode="Ĺ"/>
<glyph d="M40 0v720h80v-690l110 10v-40h-190zM180 794v-44h-200z" glyph-name="lacute" horiz-adv-x="270" unicode="ĺ"/>
<glyph d="M40 0v720h80v-690l110 10v-40h-190zM130 -40q32 0 48 -33q7 -14 7 -28q-1 -77 -85 -120l-10 18q41 22 42 66q-31 4 -42 32q-4 9 -4 18q0 35 30 45q7 2 14 2z" glyph-name="uni013B" horiz-adv-x="270" unicode="Ļ"/>
<glyph d="M40 0v720h80v-690l110 10v-40h-190zM130 -40q32 0 48 -33q7 -14 7 -28q-1 -77 -85 -120l-10 18q41 22 42 66q-31 4 -42 32q-4 9 -4 18q0 35 30 45q7 2 14 2z" glyph-name="uni013C" horiz-adv-x="270" unicode="ļ"/>
<glyph d="M40 0v720h80v-690l110 10v-40h-190zM235 730q32 0 48 -33q6 -14 6 -28q-1 -77 -85 -120l-10 18q41 22 42 66q-31 4 -42 32q-4 9 -4 18q0 34 29 44q8 3 16 3z" glyph-name="Lcaron" horiz-adv-x="329" unicode="Ľ"/>
<glyph d="M40 0v720h80v-690l110 10v-40h-190zM235 730q32 0 48 -33q6 -14 6 -28q-1 -77 -85 -120l-10 18q41 22 42 66q-31 4 -42 32q-4 9 -4 18q0 34 29 44q8 3 16 3z" glyph-name="lcaron" horiz-adv-x="329" unicode="ľ"/>
<glyph d="M40 0v720h80v-690l110 10v-40h-190zM188 318q-26 0 -38 25q-4 9 -4 17q0 26 25 38q9 4 17 4q26 0 38 -25q4 -9 4 -17q0 -26 -25 -38q-9 -4 -17 -4z" glyph-name="Ldot" horiz-adv-x="270" unicode="Ŀ"/>
<glyph d="M40 0v720h80v-690l110 10v-40h-190zM188 318q-26 0 -38 25q-4 9 -4 17q0 26 25 38q9 4 17 4q26 0 38 -25q4 -9 4 -17q0 -26 -25 -38q-9 -4 -17 -4z" glyph-name="ldot" horiz-adv-x="270" unicode="ŀ"/>
<glyph d="M63 301l-23 53l63 28v328h80v-293l44 19l23 -54l-67 -29v-333l110 10v-40h-190v329z" glyph-name="Lslash" horiz-adv-x="333" unicode="Ł"/>
<glyph d="M63 301l-23 53l63 28v328h80v-293l44 19l23 -54l-67 -29v-333l110 10v-40h-190v329z" glyph-name="lslash" horiz-adv-x="333" unicode="ł"/>
<glyph d="M346 794v-44h-202zM381 102l-5 618h74v-720h-90l-250 630l10 -630h-80v720h84z" glyph-name="Nacute" unicode="Ń"/>
<glyph d="M346 794v-44h-202zM381 102l-5 618h74v-720h-90l-250 630l10 -630h-80v720h84z" glyph-name="nacute" unicode="ń"/>
<glyph d="M381 102l-5 618h74v-720h-90l-250 630l10 -630h-80v720h84zM250 -10q32 0 48 -33q7 -14 7 -28q-1 -77 -85 -120l-10 18q41 22 42 66q-31 4 -42 32q-4 9 -4 18q0 35 30 45q7 2 14 2z" glyph-name="uni0145" unicode="Ņ"/>
<glyph d="M381 102l-5 618h74v-720h-90l-250 630l10 -630h-80v720h84zM250 -10q32 0 48 -33q7 -14 7 -28q-1 -77 -85 -120l-10 18q41 22 42 66q-31 4 -42 32q-4 9 -4 18q0 35 30 45q7 2 14 2z" glyph-name="uni0146" unicode="ņ"/>
<glyph d="M381 102l-5 618h74v-720h-90l-250 630l10 -630h-80v720h84zM248 795l60 50h55l-115 -95l-122 95h56z" glyph-name="Ncaron" unicode="Ň"/>
<glyph d="M381 102l-5 618h74v-720h-90l-250 630l10 -630h-80v720h84zM248 795l60 50h55l-115 -95l-122 95h56z" glyph-name="ncaron" unicode="ň"/>
<glyph d="M85 750q32 0 48 -33q6 -14 6 -28q-1 -77 -85 -120l-10 18q41 22 42 66q-31 4 -42 32q-4 9 -4 18q0 34 29 44q8 3 16 3zM520 102l-5 618h74v-720h-90l-250 630l10 -630h-80v720h84z" glyph-name="napostrophe" horiz-adv-x="629" unicode="ŉ"/>
<glyph d="M381 102l-5 618h74v-333l1 -387q0 -93 -58 -151q-49 -49 -123 -49v40h2q60 0 80 80q8 33 8 77v3l-250 630l10 -630h-80v720h84z" glyph-name="Eng" horiz-adv-x="491" unicode="Ŋ"/>
<glyph d="M381 102l-5 618h74v-333l1 -387q0 -93 -58 -151q-49 -49 -123 -49v40h2q60 0 80 80q8 33 8 77v3l-250 630l10 -630h-80v720h84z" glyph-name="eng" horiz-adv-x="491" unicode="ŋ"/>
<glyph d="M275 26q127 0 158 203q8 56 8 121q0 81 -11 147q-32 167 -118 192q-18 5 -36 5q-113 0 -150 -167q-3 -14 -6 -30q-11 -83 -11 -153q0 -234 95 -297q32 -21 71 -21zM275 730q179 0 228 -205q17 -70 17 -156v-5q0 -91 -15 -163q-23 -123 -114 -180q-52 -31 -113 -31h-2 q-54 0 -104 23q-1 1 -2 1q-116 65 -135 254q-4 41 -5 94q3 277 142 345q45 21 103 23zM188 750v30h174v-30h-174z" glyph-name="Omacron" horiz-adv-x="550" unicode="Ō"/>
<glyph d="M275 26q127 0 158 203q8 56 8 121q0 81 -11 147q-32 167 -118 192q-18 5 -36 5q-113 0 -150 -167q-3 -14 -6 -30q-11 -83 -11 -153q0 -234 95 -297q32 -21 71 -21zM275 730q179 0 228 -205q17 -70 17 -156v-5q0 -91 -15 -163q-23 -123 -114 -180q-52 -31 -113 -31h-2 q-54 0 -104 23q-1 1 -2 1q-116 65 -135 254q-4 41 -5 94q3 277 142 345q45 21 103 23zM188 750v30h174v-30h-174z" glyph-name="omacron" horiz-adv-x="550" unicode="ō"/>
<glyph d="M275 26q127 0 158 203q8 56 8 121q0 81 -11 147q-32 167 -118 192q-18 5 -36 5q-113 0 -150 -167q-3 -14 -6 -30q-11 -83 -11 -153q0 -234 95 -297q32 -21 71 -21zM275 730q179 0 228 -205q17 -70 17 -156v-5q0 -91 -15 -163q-23 -123 -114 -180q-52 -31 -113 -31h-2 q-54 0 -104 23q-1 1 -2 1q-116 65 -135 254q-4 41 -5 94q3 277 142 345q45 21 103 23zM372 813q0 -42 -55 -58q-20 -5 -41 -5q-65 0 -89 35q-9 13 -9 28h22q0 -23 57 -28q10 -1 19 -1q61 0 72 22q2 4 2 7h22z" glyph-name="Obreve" horiz-adv-x="550" unicode="Ŏ"/>
<glyph d="M275 26q127 0 158 203q8 56 8 121q0 81 -11 147q-32 167 -118 192q-18 5 -36 5q-113 0 -150 -167q-3 -14 -6 -30q-11 -83 -11 -153q0 -234 95 -297q32 -21 71 -21zM275 730q179 0 228 -205q17 -70 17 -156v-5q0 -91 -15 -163q-23 -123 -114 -180q-52 -31 -113 -31h-2 q-54 0 -104 23q-1 1 -2 1q-116 65 -135 254q-4 41 -5 94q3 277 142 345q45 21 103 23zM372 813q0 -42 -55 -58q-20 -5 -41 -5q-65 0 -89 35q-9 13 -9 28h22q0 -23 57 -28q10 -1 19 -1q61 0 72 22q2 4 2 7h22z" glyph-name="obreve" horiz-adv-x="550" unicode="ŏ"/>
<glyph d="M275 26q127 0 158 203q8 56 8 121q0 81 -11 147q-32 167 -118 192q-18 5 -36 5q-113 0 -150 -167q-3 -14 -6 -30q-11 -83 -11 -153q0 -234 95 -297q32 -21 71 -21zM275 730q179 0 228 -205q17 -70 17 -156v-5q0 -91 -15 -163q-23 -123 -114 -180q-52 -31 -113 -31h-2 q-54 0 -104 23q-1 1 -2 1q-116 65 -135 254q-4 41 -5 94q3 277 142 345q45 21 103 23zM320 846l-145 -96l111 167zM441 846l-146 -96l111 167z" glyph-name="Ohungarumlaut" horiz-adv-x="550" unicode="Ő"/>
<glyph d="M275 26q127 0 158 203q8 56 8 121q0 81 -11 147q-32 167 -118 192q-18 5 -36 5q-113 0 -150 -167q-3 -14 -6 -30q-11 -83 -11 -153q0 -234 95 -297q32 -21 71 -21zM275 730q179 0 228 -205q17 -70 17 -156v-5q0 -91 -15 -163q-23 -123 -114 -180q-52 -31 -113 -31h-2 q-54 0 -104 23q-1 1 -2 1q-116 65 -135 254q-4 41 -5 94q3 277 142 345q45 21 103 23zM320 846l-145 -96l111 167zM441 846l-146 -96l111 167z" glyph-name="ohungarumlaut" horiz-adv-x="550" unicode="ő"/>
<glyph d="M698 0h-240v193q-73 -53 -174 -53q-51 0 -94 15q-102 34 -137 123q-13 35 -13 71q0 92 73 153q34 27 77 42q46 16 96 16q101 -1 172 -56v216h236v-36l-156 6v-308l100 2v-34l-100 2l4 -322l156 4v-34zM284 535q-76 0 -118 -79q-27 -50 -27 -107q0 -37 12 -68 q33 -87 102 -109q18 -6 36 -6q73 0 116 76q10 16 17 35q11 28 11 67q0 85 -51 143q-42 47 -98 48z" glyph-name="OE" horiz-adv-x="738" unicode="Œ"/>
<glyph d="M698 0h-240v193q-73 -53 -174 -53q-51 0 -94 15q-102 34 -137 123q-13 35 -13 71q0 92 73 153q34 27 77 42q46 16 96 16q101 -1 172 -56v216h236v-36l-156 6v-308l100 2v-34l-100 2l4 -322l156 4v-34zM284 535q-76 0 -118 -79q-27 -50 -27 -107q0 -37 12 -68 q33 -87 102 -109q18 -6 36 -6q73 0 116 76q10 16 17 35q11 28 11 67q0 85 -51 143q-42 47 -98 48z" glyph-name="oe" horiz-adv-x="738" unicode="œ"/>
<glyph d="M208 390q142 0 151 131q1 10 1 19q0 136 -117 152q-15 2 -31 2l-102 -4v-300h98zM210 360h-100l10 -360h-80v720h176q154 0 193 -95q2 -5 3 -9q13 -34 13 -78q-2 -154 -155 -175l160 -363h-90zM318 794v-44h-200z" glyph-name="Racute" horiz-adv-x="470" unicode="Ŕ"/>
<glyph d="M208 390q142 0 151 131q1 10 1 19q0 136 -117 152q-15 2 -31 2l-102 -4v-300h98zM210 360h-100l10 -360h-80v720h176q154 0 193 -95q2 -5 3 -9q13 -34 13 -78q-2 -154 -155 -175l160 -363h-90zM318 794v-44h-200z" glyph-name="racute" horiz-adv-x="470" unicode="ŕ"/>
<glyph d="M208 390q142 0 151 131q1 10 1 19q0 136 -117 152q-15 2 -31 2l-102 -4v-300h98zM210 360h-100l10 -360h-80v720h176q154 0 193 -95q2 -5 3 -9q13 -34 13 -78q-2 -154 -155 -175l160 -363h-90zM230 -30q32 0 48 -33q7 -14 7 -28q-1 -77 -85 -120l-10 18q41 22 42 66 q-31 4 -42 32q-4 9 -4 18q0 35 30 45q7 2 14 2z" glyph-name="uni0156" horiz-adv-x="470" unicode="Ŗ"/>
<glyph d="M208 390q142 0 151 131q1 10 1 19q0 136 -117 152q-15 2 -31 2l-102 -4v-300h98zM210 360h-100l10 -360h-80v720h176q154 0 193 -95q2 -5 3 -9q13 -34 13 -78q-2 -154 -155 -175l160 -363h-90zM230 -30q32 0 48 -33q7 -14 7 -28q-1 -77 -85 -120l-10 18q41 22 42 66 q-31 4 -42 32q-4 9 -4 18q0 35 30 45q7 2 14 2z" glyph-name="uni0157" horiz-adv-x="470" unicode="ŗ"/>
<glyph d="M208 390q142 0 151 131q1 10 1 19q0 136 -117 152q-15 2 -31 2l-102 -4v-300h98zM210 360h-100l10 -360h-80v720h176q154 0 193 -95q2 -5 3 -9q13 -34 13 -78q-2 -154 -155 -175l160 -363h-90zM212 795l60 50h55l-115 -95l-122 95h54z" glyph-name="Rcaron" horiz-adv-x="470" unicode="Ř"/>
<glyph d="M208 390q142 0 151 131q1 10 1 19q0 136 -117 152q-15 2 -31 2l-102 -4v-300h98zM210 360h-100l10 -360h-80v720h176q154 0 193 -95q2 -5 3 -9q13 -34 13 -78q-2 -154 -155 -175l160 -363h-90zM212 795l60 50h54l-114 -95l-122 95h54z" glyph-name="rcaron" horiz-adv-x="470" unicode="ř"/>
<glyph d="M350 644q-10 5 -28 18q-51 32 -82 34h-2q-46 0 -92 -37q-14 -12 -22 -23q-24 -34 -24 -89q0 -58 77 -103q19 -11 62 -32q90 -44 120 -76q10 -10 16 -20q35 -52 35 -106q0 -122 -93 -183q-58 -37 -131 -37q-93 1 -156 37l20 67q9 -6 27 -19q60 -42 99 -47q8 -1 15 -1 q56 1 99 43q41 43 42 129q0 76 -86 126q-21 12 -66 33q-65 31 -89 50q-70 58 -71 134q0 115 103 164q52 24 117 24q78 0 135 -21zM300 794v-44h-200z" glyph-name="Sacute" horiz-adv-x="450" unicode="Ś"/>
<glyph d="M350 644q-10 5 -28 18q-51 32 -82 34h-2q-46 0 -92 -37q-14 -12 -22 -23q-24 -34 -24 -89q0 -58 77 -103q19 -11 62 -32q90 -44 120 -76q10 -10 16 -20q35 -52 35 -106q0 -122 -93 -183q-58 -37 -131 -37q-93 1 -156 37l20 67q9 -6 27 -19q60 -42 99 -47q8 -1 15 -1 q56 1 99 43q41 43 42 129q0 76 -86 126q-21 12 -66 33q-65 31 -89 50q-70 58 -71 134q0 115 103 164q52 24 117 24q78 0 135 -21zM300 794v-44h-200z" glyph-name="sacute" horiz-adv-x="450" unicode="ś"/>
<glyph d="M350 644q-10 5 -28 18q-51 32 -82 34h-2q-46 0 -92 -37q-14 -12 -22 -23q-24 -34 -24 -89q0 -58 77 -103q19 -11 62 -32q90 -44 120 -76q10 -10 16 -20q35 -52 35 -106q0 -122 -93 -183q-58 -37 -131 -37q-93 1 -156 37l20 67q9 -6 27 -19q60 -42 99 -47q8 -1 15 -1 q56 1 99 43q41 43 42 129q0 76 -86 126q-21 12 -66 33q-65 31 -89 50q-70 58 -71 134q0 115 103 164q52 24 117 24q78 0 135 -21zM218 800l-60 -50h-56l116 95l121 -95h-55z" glyph-name="Scircumflex" horiz-adv-x="450" unicode="Ŝ"/>
<glyph d="M350 644q-10 5 -28 18q-51 32 -82 34h-2q-46 0 -92 -37q-14 -12 -22 -23q-24 -34 -24 -89q0 -58 77 -103q19 -11 62 -32q90 -44 120 -76q10 -10 16 -20q35 -52 35 -106q0 -122 -93 -183q-58 -37 -131 -37q-93 1 -156 37l20 67q9 -6 27 -19q60 -42 99 -47q8 -1 15 -1 q56 1 99 43q41 43 42 129q0 76 -86 126q-21 12 -66 33q-65 31 -89 50q-70 58 -71 134q0 115 103 164q52 24 117 24q78 0 135 -21zM218 800l-60 -50h-56l116 95l121 -95h-55z" glyph-name="scircumflex" horiz-adv-x="450" unicode="ŝ"/>
<glyph d="M222 -10l-7 -16q6 -2 27 -7q107 -25 118 -52q2 -5 2 -9q0 -55 -100 -82q-53 -14 -108 -14q-32 0 -49 4l1 56q56 -10 104 -10q102 1 132 50q-45 16 -178 22h-9l31 58q-83 6 -136 37l20 67q9 -6 27 -19q60 -42 99 -47q8 -1 15 -1q56 1 99 43q41 43 42 129q0 76 -86 126 q-21 12 -66 33q-65 31 -89 50q-70 58 -71 134q0 115 103 164q52 24 117 24q78 0 135 -21l-25 -65q-10 5 -28 18q-51 32 -82 34h-2q-46 0 -92 -37q-14 -12 -22 -23q-24 -34 -24 -89q0 -58 77 -103q19 -11 62 -32q90 -44 120 -76q10 -10 16 -20q35 -52 35 -106 q0 -123 -94 -184q-51 -32 -114 -36z" glyph-name="Scedilla" horiz-adv-x="470" unicode="Ş"/>
<glyph d="M222 -10l-7 -16q6 -2 27 -7q107 -25 118 -52q2 -5 2 -9q0 -55 -100 -82q-53 -14 -108 -14q-32 0 -49 4l1 56q56 -10 104 -10q102 1 132 50q-45 16 -178 22h-9l31 58q-83 6 -136 37l20 67q9 -6 27 -19q60 -42 99 -47q8 -1 15 -1q56 1 99 43q41 43 42 129q0 76 -86 126 q-21 12 -66 33q-65 31 -89 50q-70 58 -71 134q0 115 103 164q52 24 117 24q78 0 135 -21l-25 -65q-10 5 -28 18q-51 32 -82 34h-2q-46 0 -92 -37q-14 -12 -22 -23q-24 -34 -24 -89q0 -58 77 -103q19 -11 62 -32q90 -44 120 -76q10 -10 16 -20q35 -52 35 -106 q0 -123 -94 -184q-51 -32 -114 -36z" glyph-name="scedilla" horiz-adv-x="470" unicode="ş"/>
<glyph d="M350 644q-10 5 -28 18q-51 32 -82 34h-2q-46 0 -92 -37q-14 -12 -22 -23q-24 -34 -24 -89q0 -58 77 -103q19 -11 62 -32q90 -44 120 -76q10 -10 16 -20q35 -52 35 -106q0 -122 -93 -183q-58 -37 -131 -37q-93 1 -156 37l20 67q9 -6 27 -19q60 -42 99 -47q8 -1 15 -1 q56 1 99 43q41 43 42 129q0 76 -86 126q-21 12 -66 33q-65 31 -89 50q-70 58 -71 134q0 115 103 164q52 24 117 24q78 0 135 -21zM244 795l60 50h55l-115 -95l-122 95h54z" glyph-name="Scaron" horiz-adv-x="450" unicode="Š"/>
<glyph d="M350 644q-10 5 -28 18q-51 32 -82 34h-2q-46 0 -92 -37q-14 -12 -22 -23q-24 -34 -24 -89q0 -58 77 -103q19 -11 62 -32q90 -44 120 -76q10 -10 16 -20q35 -52 35 -106q0 -122 -93 -183q-58 -37 -131 -37q-93 1 -156 37l20 67q9 -6 27 -19q60 -42 99 -47q8 -1 15 -1 q56 1 99 43q41 43 42 129q0 76 -86 126q-21 12 -66 33q-65 31 -89 50q-70 58 -71 134q0 115 103 164q52 24 117 24q78 0 135 -21zM244 795l60 50h55l-115 -95l-122 95h54z" glyph-name="scaron" horiz-adv-x="450" unicode="š"/>
<glyph d="M296 690l4 -690h-24l-7 -16q6 -2 27 -7q107 -25 118 -52q2 -5 2 -9q0 -55 -100 -82q-53 -14 -108 -14q-32 0 -49 4l1 56q56 -10 104 -10q102 1 132 50q-45 16 -178 22h-9l31 58h-20l4 690l-184 -14v44h440v-44z" glyph-name="uni0162" horiz-adv-x="520" unicode="Ţ"/>
<glyph d="M296 690l4 -690h-24l-7 -16q6 -2 27 -7q107 -25 118 -52q2 -5 2 -9q0 -55 -100 -82q-53 -14 -108 -14q-32 0 -49 4l1 56q56 -10 104 -10q102 1 132 50q-45 16 -178 22h-9l31 58h-20l4 690l-184 -14v44h440v-44z" glyph-name="uni0163" horiz-adv-x="520" unicode="ţ"/>
<glyph d="M286 690l4 -690h-80l4 690l-184 -14v44h440v-44zM254 795l60 50h55l-115 -95l-122 95h54z" glyph-name="Tcaron" horiz-adv-x="500" unicode="Ť"/>
<glyph d="M286 690l4 -690h-80l4 690l-184 -14v44h440v-44zM566 730q32 0 48 -33q6 -14 6 -28q-1 -77 -85 -120l-10 18q41 22 42 66q-31 4 -42 32q-4 9 -4 18q0 34 29 44q8 3 16 3z" glyph-name="tcaron" horiz-adv-x="660" unicode="ť"/>
<glyph d="M115 328v58h107l2 304l-184 -14v44h440v-44l-184 14l2 -304h101v-58h-101l2 -328h-80l2 328h-107z" glyph-name="Tbar" horiz-adv-x="520" unicode="Ŧ"/>
<glyph d="M115 328v58h107l2 304l-184 -14v44h440v-44l-184 14l2 -304h101v-58h-101l2 -328h-80l2 328h-107z" glyph-name="tbar" horiz-adv-x="520" unicode="ŧ"/>
<glyph d="M450 230q0 -229 -185 -240h-17q-207 2 -208 240v490h80v-19q0 -35 -2 -180q-4 -212 -4 -287q0 -70 2 -80q10 -68 64 -104q31 -20 68 -20q78 0 112 76q10 23 14 48q2 21 2 80q0 82 -4 316q-2 133 -2 160v10h80v-490zM360 842v-4q-2 -82 -63 -83q-24 0 -55 29 q-27 24 -44 25q-19 0 -26 -58v-1h-42v6q0 61 38 79q12 6 25 6q24 0 53 -29q27 -25 45 -26q21 0 26 51v5h43z" glyph-name="Utilde" unicode="Ũ"/>
<glyph d="M450 230q0 -229 -185 -240h-17q-207 2 -208 240v490h80v-19q0 -35 -2 -180q-4 -212 -4 -287q0 -70 2 -80q10 -68 64 -104q31 -20 68 -20q78 0 112 76q10 23 14 48q2 21 2 80q0 82 -4 316q-2 133 -2 160v10h80v-490zM360 842v-4q-2 -82 -63 -83q-24 0 -55 29 q-27 24 -44 25q-19 0 -26 -58v-1h-42v6q0 61 38 79q12 6 25 6q24 0 53 -29q27 -25 45 -26q21 0 26 51v5h43z" glyph-name="utilde" unicode="ũ"/>
<glyph d="M450 230q0 -229 -185 -240h-17q-207 2 -208 240v490h80v-19q0 -35 -2 -180q-4 -212 -4 -287q0 -70 2 -80q10 -68 64 -104q31 -20 68 -20q78 0 112 76q10 23 14 48q2 21 2 80q0 82 -4 316q-2 133 -2 160v10h80v-490zM158 750v30h174v-30h-174z" glyph-name="Umacron" unicode="Ū"/>
<glyph d="M450 230q0 -229 -185 -240h-17q-207 2 -208 240v490h80v-19q0 -35 -2 -180q-4 -212 -4 -287q0 -70 2 -80q10 -68 64 -104q31 -20 68 -20q78 0 112 76q10 23 14 48q2 21 2 80q0 82 -4 316q-2 133 -2 160v10h80v-490zM158 750v30h174v-30h-174z" glyph-name="umacron" unicode="ū"/>
<glyph d="M450 230q0 -229 -185 -240h-17q-207 2 -208 240v490h80v-19q0 -35 -2 -180q-4 -212 -4 -287q0 -70 2 -80q10 -68 64 -104q31 -20 68 -20q78 0 112 76q10 23 14 48q2 21 2 80q0 82 -4 316q-2 133 -2 160v10h80v-490zM342 813q0 -42 -55 -58q-20 -5 -41 -5q-65 0 -89 35 q-9 13 -9 28h22q0 -23 57 -28q10 -1 19 -1q61 0 72 22q2 4 2 7h22z" glyph-name="Ubreve" unicode="Ŭ"/>
<glyph d="M450 230q0 -229 -185 -240h-17q-207 2 -208 240v490h80v-19q0 -35 -2 -180q-4 -212 -4 -287q0 -70 2 -80q10 -68 64 -104q31 -20 68 -20q78 0 112 76q10 23 14 48q2 21 2 80q0 82 -4 316q-2 133 -2 160v10h80v-490zM342 813q0 -42 -55 -58q-20 -5 -41 -5q-65 0 -89 35 q-9 13 -9 28h22q0 -23 57 -28q10 -1 19 -1q61 0 72 22q2 4 2 7h22z" glyph-name="ubreve" unicode="ŭ"/>
<glyph d="M450 230q0 -229 -185 -240h-17q-207 2 -208 240v490h80v-19q0 -35 -2 -180q-4 -212 -4 -287q0 -70 2 -80q10 -68 64 -104q31 -20 68 -20q78 0 112 76q10 23 14 48q2 21 2 80q0 82 -4 316q-2 133 -2 160v10h80v-490zM244 857q-29 0 -38 -33q-3 -9 -3 -17q0 -32 27 -46 q9 -4 16 -4q23 0 35 26q5 11 5 23q0 32 -24 46q-9 5 -18 5zM316 806q0 -39 -44 -52q-14 -4 -28 -4q-46 0 -64 34q-6 12 -6 23q0 35 36 50q16 7 34 7q45 0 64 -31q8 -13 8 -27z" glyph-name="Uring" unicode="Ů"/>
<glyph d="M450 230q0 -229 -185 -240h-17q-207 2 -208 240v490h80v-19q0 -35 -2 -180q-4 -212 -4 -287q0 -70 2 -80q10 -68 64 -104q31 -20 68 -20q78 0 112 76q10 23 14 48q2 21 2 80q0 82 -4 316q-2 133 -2 160v10h80v-490zM244 857q-29 0 -38 -33q-3 -9 -3 -17q0 -32 27 -46 q9 -4 16 -4q23 0 35 26q5 11 5 23q0 32 -24 46q-9 5 -18 5zM316 806q0 -39 -44 -52q-14 -4 -28 -4q-46 0 -64 34q-6 12 -6 23q0 35 36 50q16 7 34 7q45 0 64 -31q8 -13 8 -27z" glyph-name="uring" unicode="ů"/>
<glyph d="M450 230q0 -229 -185 -240h-17q-207 2 -208 240v490h80v-19q0 -35 -2 -180q-4 -212 -4 -287q0 -70 2 -80q10 -68 64 -104q31 -20 68 -20q78 0 112 76q10 23 14 48q2 21 2 80q0 82 -4 316q-2 133 -2 160v10h80v-490zM280 846l-145 -96l111 167zM401 846l-146 -96l111 167z " glyph-name="Uhungarumlaut" unicode="Ű"/>
<glyph d="M450 230q0 -229 -185 -240h-17q-207 2 -208 240v490h80v-19q0 -35 -2 -180q-4 -212 -4 -287q0 -70 2 -80q10 -68 64 -104q31 -20 68 -20q78 0 112 76q10 23 14 48q2 21 2 80q0 82 -4 316q-2 133 -2 160v10h80v-490zM280 846l-145 -96l111 167zM401 846l-146 -96l111 167z " glyph-name="uhungarumlaut" unicode="ű"/>
<glyph d="M40 230v490h80v-19q0 -35 -2 -180q-4 -212 -4 -287q0 -70 2 -80q10 -68 64 -104q31 -20 68 -20q78 0 112 76q10 23 14 48q2 21 2 80q0 82 -4 316q-2 133 -2 160v10h80v-490q-2 -227 -182 -239l31 -59q-102 -3 -172 -18q-9 -2 -15 -4q31 -50 132 -50q48 0 104 10l1 -56 q-18 -4 -49 -4q-101 0 -164 36q-43 26 -44 60q0 33 111 59q31 7 36 9l-7 16q-192 9 -192 240z" glyph-name="Uogonek" unicode="Ų"/>
<glyph d="M40 230v490h80v-19q0 -35 -2 -180q-4 -212 -4 -287q0 -70 2 -80q10 -68 64 -104q31 -20 68 -20q78 0 112 76q10 23 14 48q2 21 2 80q0 82 -4 316q-2 133 -2 160v10h80v-490q-2 -227 -182 -239l31 -59q-102 -3 -172 -18q-9 -2 -15 -4q31 -50 132 -50q48 0 104 10l1 -56 q-18 -4 -49 -4q-101 0 -164 36q-43 26 -44 60q0 33 111 59q31 7 36 9l-7 16q-192 9 -192 240z" glyph-name="uogonek" unicode="ų"/>
<glyph d="M180 0h-90l-50 720h68l42 -620l130 320h30l130 -320l43 620h68l-51 -720h-90l-115 362zM293 800l-60 -50h-55l115 95l122 -95h-55z" glyph-name="Wcircumflex" horiz-adv-x="591" unicode="Ŵ"/>
<glyph d="M180 0h-90l-50 720h68l42 -620l130 320h30l130 -320l43 620h68l-51 -720h-90l-115 362zM293 800l-60 -50h-55l115 95l122 -95h-55z" glyph-name="wcircumflex" horiz-adv-x="591" unicode="ŵ"/>
<glyph d="M280 330v-330h-70l10 330l-200 390h70l154 -330l156 330h72zM244 800l-60 -50h-56l116 95l121 -95h-55z" glyph-name="Ycircumflex" horiz-adv-x="492" unicode="Ŷ"/>
<glyph d="M280 330v-330h-70l10 330l-200 390h70l154 -330l156 330h72zM244 800l-60 -50h-56l116 95l121 -95h-55z" glyph-name="ycircumflex" horiz-adv-x="492" unicode="ŷ"/>
<glyph d="M280 330v-330h-70l10 330l-200 390h70l154 -330l156 330h72zM301 750q-21 0 -29 20q-2 6 -2 11q0 22 20 30q6 2 11 2q27 0 31 -25q1 -4 1 -7q0 -21 -21 -29q-6 -2 -11 -2zM191 750q-22 0 -30 20q-2 6 -2 11q0 27 25 31q4 1 7 1q21 0 29 -21q2 -6 2 -11q0 -21 -20 -29 q-6 -2 -11 -2z" glyph-name="Ydieresis" horiz-adv-x="492" unicode="Ÿ"/>
<glyph d="M480 670l-356 -640l346 13v-43h-430v58l386 632l-376 -13v43h430v-50zM366 794v-44h-202z" glyph-name="Zacute" horiz-adv-x="520" unicode="Ź"/>
<glyph d="M480 670l-356 -640l346 13v-43h-430v58l386 632l-376 -13v43h430v-50zM366 794v-44h-202z" glyph-name="zacute" horiz-adv-x="520" unicode="ź"/>
<glyph d="M480 670l-356 -640l346 13v-43h-430v58l386 632l-376 -13v43h430v-50zM265 750q-28 0 -41 27q-4 9 -4 18q0 28 27 41q9 4 18 4q28 0 41 -27q4 -9 4 -18q0 -28 -27 -41q-9 -4 -18 -4z" glyph-name="Zdotaccent" horiz-adv-x="520" unicode="Ż"/>
<glyph d="M480 670l-356 -640l346 13v-43h-430v58l386 632l-376 -13v43h430v-50zM265 750q-28 0 -41 27q-4 9 -4 18q0 28 27 41q9 4 18 4q28 0 41 -27q4 -9 4 -18q0 -28 -27 -41q-9 -4 -18 -4z" glyph-name="zdotaccent" horiz-adv-x="520" unicode="ż"/>
<glyph d="M480 670l-356 -640l346 13v-43h-430v58l386 632l-376 -13v43h430v-50zM268 796l60 50h55l-115 -95l-122 95h56z" glyph-name="Zcaron" horiz-adv-x="520" unicode="Ž"/>
<glyph d="M480 670l-356 -640l346 13v-43h-430v58l386 632l-376 -13v43h430v-50zM268 796l60 50h55l-115 -95l-122 95h56z" glyph-name="zcaron" horiz-adv-x="520" unicode="ž"/>
<glyph d="M275 26q127 0 158 203q8 56 8 121q0 81 -11 147q-32 167 -118 192q-18 5 -36 5q-113 0 -150 -167q-3 -14 -6 -30q-11 -83 -11 -153q0 -234 95 -297q32 -21 71 -21zM275 730q179 0 228 -205q17 -70 17 -156v-5q0 -91 -15 -163q-23 -123 -114 -180q-52 -31 -113 -31h-2 q-54 0 -104 23q-1 1 -2 1q-116 65 -135 254q-4 41 -5 94q3 277 142 345q45 21 103 23zM515 579v18q38 26 39 43q0 15 -26 19v71h79q0 -37 -9.5 -66.5t-23 -44.5t-27 -25t-23.5 -12z" glyph-name="Ohorn" horiz-adv-x="647" unicode="Ơ"/>
<glyph d="M275 26q127 0 158 203q8 56 8 121q0 81 -11 147q-32 167 -118 192q-18 5 -36 5q-113 0 -150 -167q-3 -14 -6 -30q-11 -83 -11 -153q0 -234 95 -297q32 -21 71 -21zM275 730q179 0 228 -205q17 -70 17 -156v-5q0 -91 -15 -163q-23 -123 -114 -180q-52 -31 -113 -31h-2 q-54 0 -104 23q-1 1 -2 1q-116 65 -135 254q-4 41 -5 94q3 277 142 345q45 21 103 23zM515 579v18q38 26 39 43q0 15 -26 19v71h79q0 -37 -9.5 -66.5t-23 -44.5t-27 -25t-23.5 -12z" glyph-name="ohorn" horiz-adv-x="647" unicode="ơ"/>
<glyph d="M120 30q12 0 37 -1q23 -1 33 -1q44 0 67 14q91 59 128 185q18 62 18 128v13q-5 164 -93 263q-28 31 -60 50q-18 13 -55 13q-12 0 -37 -2h-6.5t-6 -0.5t-5 -0.5h-5h-4t-3 -0.5t-3 -0.5h-2.5h-2h-1v-660zM206 720q151 0 225 -134q52 -94 52 -226q-1 -171 -79 -265 q-78 -95 -196 -95h-168v720h166zM903 670l-356 -640l346 13v-43h-430v58l386 632l-376 -13v43h430v-50zM692 796l60 50h55l-115 -95l-122 95h54z" glyph-name="uni01C4" horiz-adv-x="943" unicode="Ǆ"/>
<glyph d="M120 30q12 0 37 -1q23 -1 33 -1q44 0 67 14q91 59 128 185q18 62 18 128v13q-5 164 -93 263q-28 31 -60 50q-18 13 -55 13q-12 0 -37 -2h-6.5t-6 -0.5t-5 -0.5h-5h-4t-3 -0.5t-3 -0.5h-2.5h-2h-1v-660zM206 720q151 0 225 -134q52 -94 52 -226q-1 -171 -79 -265 q-78 -95 -196 -95h-168v720h166zM903 670l-356 -640l346 13v-43h-430v58l386 632l-376 -13v43h430v-50zM692 796l60 50h55l-115 -95l-122 95h54z" glyph-name="uni01C5" horiz-adv-x="943" unicode="ǅ"/>
<glyph d="M120 30q12 0 37 -1q23 -1 33 -1q44 0 67 14q91 59 128 185q18 62 18 128v13q-5 164 -93 263q-28 31 -60 50q-18 13 -55 13q-12 0 -37 -2h-6.5t-6 -0.5t-5 -0.5h-5h-4t-3 -0.5t-3 -0.5h-2.5h-2h-1v-660zM206 720q151 0 225 -134q52 -94 52 -226q-1 -171 -79 -265 q-78 -95 -196 -95h-168v720h166zM903 670l-356 -640l346 13v-43h-430v58l386 632l-376 -13v43h430v-50zM692 796l60 50h55l-115 -95l-122 95h54z" glyph-name="uni01C6" horiz-adv-x="943" unicode="ǆ"/>
<glyph d="M40 0v720h80v-690l110 10v-40h-190zM250 30h2q50 0 82 50q26 43 26 110v530h70l1 -529q0 -156 -114 -192q-31 -9 -67 -9v40z" glyph-name="uni01C7" horiz-adv-x="471" unicode="Ǉ"/>
<glyph d="M40 0v720h80v-690l110 10v-40h-190zM250 30h2q50 0 82 50q26 43 26 110v530h70l1 -529q0 -156 -114 -192q-31 -9 -67 -9v40z" glyph-name="uni01C8" horiz-adv-x="471" unicode="ǈ"/>
<glyph d="M40 0v720h80v-690l110 10v-40h-190zM250 30h2q50 0 82 50q26 43 26 110v530h70l1 -529q0 -156 -114 -192q-31 -9 -67 -9v40z" glyph-name="uni01C9" horiz-adv-x="471" unicode="ǉ"/>
<glyph d="M480 30h2q50 0 82 50q26 43 26 110v530h70l1 -529q0 -156 -114 -192q-31 -9 -67 -9v40zM381 102l-5 618h74v-720h-90l-250 630l10 -630h-80v720h84z" glyph-name="uni01CA" horiz-adv-x="701" unicode="Ǌ"/>
<glyph d="M480 30h2q50 0 82 50q26 43 26 110v530h70l1 -529q0 -156 -114 -192q-31 -9 -67 -9v40zM381 102l-5 618h74v-720h-90l-250 630l10 -630h-80v720h84z" glyph-name="uni01CB" horiz-adv-x="701" unicode="ǋ"/>
<glyph d="M480 30h2q50 0 82 50q26 43 26 110v530h70l1 -529q0 -156 -114 -192q-31 -9 -67 -9v40zM381 102l-5 618h74v-720h-90l-250 630l10 -630h-80v720h84z" glyph-name="uni01CC" horiz-adv-x="701" unicode="ǌ"/>
<glyph d="M296 300l-66 330l-66 -330h132zM430 0h-90l-30 250h-160l-30 -250h-90l160 720h80zM215 795l60 50h55l-115 -95l-122 95h55z" glyph-name="uni01CD" horiz-adv-x="460" unicode="Ǎ"/>
<glyph d="M296 300l-66 330l-66 -330h132zM430 0h-90l-30 250h-160l-30 -250h-90l160 720h80zM215 795l60 50h55l-115 -95l-122 95h55z" glyph-name="uni01CE" horiz-adv-x="460" unicode="ǎ"/>
<glyph d="M40 0v34l70 -4v660l-70 -7v37h220v-37l-70 7v-660l70 4v-34h-220zM154 795l60 50h55l-115 -95l-122 95h54z" glyph-name="uni01CF" horiz-adv-x="300" unicode="Ǐ"/>
<glyph d="M40 0v34l70 -4v660l-70 -7v37h220v-37l-70 7v-660l70 4v-34h-220zM154 795l60 50h55l-115 -95l-122 95h54z" glyph-name="uni01D0" horiz-adv-x="300" unicode="ǐ"/>
<glyph d="M275 26q127 0 158 203q8 56 8 121q0 81 -11 147q-32 167 -118 192q-18 5 -36 5q-113 0 -150 -167q-3 -14 -6 -30q-11 -83 -11 -153q0 -234 95 -297q32 -21 71 -21zM275 730q179 0 228 -205q17 -70 17 -156v-5q0 -91 -15 -163q-23 -123 -114 -180q-52 -31 -113 -31h-2 q-54 0 -104 23q-1 1 -2 1q-116 65 -135 254q-4 41 -5 94q3 277 142 345q45 21 103 23zM278 795l60 50h55l-115 -95l-122 95h56z" glyph-name="uni01D1" horiz-adv-x="550" unicode="Ǒ"/>
<glyph d="M275 26q127 0 158 203q8 56 8 121q0 81 -11 147q-32 167 -118 192q-18 5 -36 5q-113 0 -150 -167q-3 -14 -6 -30q-11 -83 -11 -153q0 -234 95 -297q32 -21 71 -21zM275 730q179 0 228 -205q17 -70 17 -156v-5q0 -91 -15 -163q-23 -123 -114 -180q-52 -31 -113 -31h-2 q-54 0 -104 23q-1 1 -2 1q-116 65 -135 254q-4 41 -5 94q3 277 142 345q45 21 103 23zM278 795l60 50h55l-115 -95l-122 95h56z" glyph-name="uni01D2" horiz-adv-x="550" unicode="ǒ"/>
<glyph d="M450 230q0 -229 -185 -240h-17q-207 2 -208 240v490h80v-19q0 -35 -2 -180q-4 -212 -4 -287q0 -70 2 -80q10 -68 64 -104q31 -20 68 -20q78 0 112 76q10 23 14 48q2 21 2 80q0 82 -4 316q-2 133 -2 160v10h80v-490zM248 795l60 50h55l-115 -95l-122 95h56z" glyph-name="uni01D3" unicode="Ǔ"/>
<glyph d="M450 230q0 -229 -185 -240h-17q-207 2 -208 240v490h80v-19q0 -35 -2 -180q-4 -212 -4 -287q0 -70 2 -80q10 -68 64 -104q31 -20 68 -20q78 0 112 76q10 23 14 48q2 21 2 80q0 82 -4 316q-2 133 -2 160v10h80v-490zM248 795l60 50h55l-115 -95l-122 95h56z" glyph-name="uni01D4" unicode="ǔ"/>
<glyph d="M450 230q0 -229 -185 -240h-17q-207 2 -208 240v490h80v-19q0 -35 -2 -180q-4 -212 -4 -287q0 -70 2 -80q10 -68 64 -104q31 -20 68 -20q78 0 112 76q10 23 14 48q2 21 2 80q0 82 -4 316q-2 133 -2 160v10h80v-490zM300 750q-21 0 -29 20q-2 6 -2 11q0 22 20 30q6 2 11 2 q27 0 31 -25q1 -4 1 -7q0 -21 -21 -29q-6 -2 -11 -2zM190 750q-22 0 -30 20q-2 6 -2 11q0 27 25 31q4 1 7 1q21 0 29 -21q2 -6 2 -11q0 -21 -20 -29q-6 -2 -11 -2zM158 873v30h174v-30h-174z" glyph-name="uni01D5" unicode="Ǖ"/>
<glyph d="M450 230q0 -229 -185 -240h-17q-207 2 -208 240v490h80v-19q0 -35 -2 -180q-4 -212 -4 -287q0 -70 2 -80q10 -68 64 -104q31 -20 68 -20q78 0 112 76q10 23 14 48q2 21 2 80q0 82 -4 316q-2 133 -2 160v10h80v-490zM300 750q-21 0 -29 20q-2 6 -2 11q0 22 20 30q6 2 11 2 q27 0 31 -25q1 -4 1 -7q0 -21 -21 -29q-6 -2 -11 -2zM190 750q-22 0 -30 20q-2 6 -2 11q0 27 25 31q4 1 7 1q21 0 29 -21q2 -6 2 -11q0 -21 -20 -29q-6 -2 -11 -2zM158 873v30h174v-30h-174z" glyph-name="uni01D6" unicode="ǖ"/>
<glyph d="M450 230q0 -229 -185 -240h-17q-207 2 -208 240v490h80v-19q0 -35 -2 -180q-4 -212 -4 -287q0 -70 2 -80q10 -68 64 -104q31 -20 68 -20q78 0 112 76q10 23 14 48q2 21 2 80q0 82 -4 316q-2 133 -2 160v10h80v-490zM300 750q-21 0 -29 20q-2 6 -2 11q0 22 20 30q6 2 11 2 q27 0 31 -25q1 -4 1 -7q0 -21 -21 -29q-6 -2 -11 -2zM190 750q-22 0 -30 20q-2 6 -2 11q0 27 25 31q4 1 7 1q21 0 29 -21q2 -6 2 -11q0 -21 -20 -29q-6 -2 -11 -2zM346 907v-44h-202z" glyph-name="uni01D7" unicode="Ǘ"/>
<glyph d="M450 230q0 -229 -185 -240h-17q-207 2 -208 240v490h80v-19q0 -35 -2 -180q-4 -212 -4 -287q0 -70 2 -80q10 -68 64 -104q31 -20 68 -20q78 0 112 76q10 23 14 48q2 21 2 80q0 82 -4 316q-2 133 -2 160v10h80v-490zM300 750q-21 0 -29 20q-2 6 -2 11q0 22 20 30q6 2 11 2 q27 0 31 -25q1 -4 1 -7q0 -21 -21 -29q-6 -2 -11 -2zM190 750q-22 0 -30 20q-2 6 -2 11q0 27 25 31q4 1 7 1q21 0 29 -21q2 -6 2 -11q0 -21 -20 -29q-6 -2 -11 -2zM346 907v-44h-202z" glyph-name="uni01D8" unicode="ǘ"/>
<glyph d="M450 230q0 -229 -185 -240h-17q-207 2 -208 240v490h80v-19q0 -35 -2 -180q-4 -212 -4 -287q0 -70 2 -80q10 -68 64 -104q31 -20 68 -20q78 0 112 76q10 23 14 48q2 21 2 80q0 82 -4 316q-2 133 -2 160v10h80v-490zM300 750q-21 0 -29 20q-2 6 -2 11q0 22 20 30q6 2 11 2 q27 0 31 -25q1 -4 1 -7q0 -21 -21 -29q-6 -2 -11 -2zM190 750q-22 0 -30 20q-2 6 -2 11q0 27 25 31q4 1 7 1q21 0 29 -21q2 -6 2 -11q0 -21 -20 -29q-6 -2 -11 -2zM248 898l60 50h55l-115 -95l-122 95h56z" glyph-name="uni01D9" unicode="Ǚ"/>
<glyph d="M450 230q0 -229 -185 -240h-17q-207 2 -208 240v490h80v-19q0 -35 -2 -180q-4 -212 -4 -287q0 -70 2 -80q10 -68 64 -104q31 -20 68 -20q78 0 112 76q10 23 14 48q2 21 2 80q0 82 -4 316q-2 133 -2 160v10h80v-490zM300 750q-21 0 -29 20q-2 6 -2 11q0 22 20 30q6 2 11 2 q27 0 31 -25q1 -4 1 -7q0 -21 -21 -29q-6 -2 -11 -2zM190 750q-22 0 -30 20q-2 6 -2 11q0 27 25 31q4 1 7 1q21 0 29 -21q2 -6 2 -11q0 -21 -20 -29q-6 -2 -11 -2zM248 898l60 50h55l-115 -95l-122 95h56z" glyph-name="uni01DA" unicode="ǚ"/>
<glyph d="M450 230q0 -229 -185 -240h-17q-207 2 -208 240v490h80v-19q0 -35 -2 -180q-4 -212 -4 -287q0 -70 2 -80q10 -68 64 -104q31 -20 68 -20q78 0 112 76q10 23 14 48q2 21 2 80q0 82 -4 316q-2 133 -2 160v10h80v-490zM300 750q-21 0 -29 20q-2 6 -2 11q0 22 20 30q6 2 11 2 q27 0 31 -25q1 -4 1 -7q0 -21 -21 -29q-6 -2 -11 -2zM190 750q-22 0 -30 20q-2 6 -2 11q0 27 25 31q4 1 7 1q21 0 29 -21q2 -6 2 -11q0 -21 -20 -29q-6 -2 -11 -2zM144 907l201 -44h-201v44z" glyph-name="uni01DB" unicode="Ǜ"/>
<glyph d="M450 230q0 -229 -185 -240h-17q-207 2 -208 240v490h80v-19q0 -35 -2 -180q-4 -212 -4 -287q0 -70 2 -80q10 -68 64 -104q31 -20 68 -20q78 0 112 76q10 23 14 48q2 21 2 80q0 82 -4 316q-2 133 -2 160v10h80v-490zM300 750q-21 0 -29 20q-2 6 -2 11q0 22 20 30q6 2 11 2 q27 0 31 -25q1 -4 1 -7q0 -21 -21 -29q-6 -2 -11 -2zM190 750q-22 0 -30 20q-2 6 -2 11q0 27 25 31q4 1 7 1q21 0 29 -21q2 -6 2 -11q0 -21 -20 -29q-6 -2 -11 -2zM144 907l201 -44h-201v44z" glyph-name="uni01DC" unicode="ǜ"/>
<glyph d="M40 0v34l156 -4l4 322l-100 -2v34l100 -2v308l-156 -6v36h236v-720h-240z" glyph-name="uni01DD" horiz-adv-x="320" unicode="ǝ"/>
<glyph d="M296 300l-66 330l-66 -330h132zM430 0h-90l-30 250h-160l-30 -250h-90l160 720h80zM282 750q-21 0 -29 20q-2 6 -2 11q0 22 20 30q6 2 11 2q27 0 31 -25q1 -4 1 -7q0 -21 -21 -29q-6 -2 -11 -2zM172 750q-22 0 -30 20q-2 6 -2 11q0 27 25 31q4 1 7 1q21 0 29 -21 q2 -6 2 -11q0 -21 -20 -29q-6 -2 -11 -2zM135 853v30h174v-30h-174z" glyph-name="uni01DE" horiz-adv-x="460" unicode="Ǟ"/>
<glyph d="M296 300l-66 330l-66 -330h132zM430 0h-90l-30 250h-160l-30 -250h-90l160 720h80zM282 750q-21 0 -29 20q-2 6 -2 11q0 22 20 30q6 2 11 2q27 0 31 -25q1 -4 1 -7q0 -21 -21 -29q-6 -2 -11 -2zM172 750q-22 0 -30 20q-2 6 -2 11q0 27 25 31q4 1 7 1q21 0 29 -21 q2 -6 2 -11q0 -21 -20 -29q-6 -2 -11 -2zM135 853v30h174v-30h-174z" glyph-name="uni01DF" horiz-adv-x="460" unicode="ǟ"/>
<glyph d="M296 300l-66 330l-66 -330h132zM430 0h-90l-30 250h-160l-30 -250h-90l160 720h80zM212 750q-28 0 -41 27q-4 9 -4 18q0 28 27 41q9 4 18 4q28 0 41 -27q4 -9 4 -18q0 -28 -27 -41q-9 -4 -18 -4zM125 860v30h174v-30h-174z" glyph-name="uni01E0" horiz-adv-x="460" unicode="Ǡ"/>
<glyph d="M296 300l-66 330l-66 -330h132zM430 0h-90l-30 250h-160l-30 -250h-90l160 720h80zM212 750q-28 0 -41 27q-4 9 -4 18q0 28 27 41q9 4 18 4q28 0 41 -27q4 -9 4 -18q0 -28 -27 -41q-9 -4 -18 -4zM125 860v30h174v-30h-174z" glyph-name="uni01E1" horiz-adv-x="460" unicode="ǡ"/>
<glyph d="M340 416v304h236v-36l-156 6v-308l100 2v-34l-100 2l4 -322l156 4v-34h-158h-82l-30 250h-140l-30 -250h-100l160 720h80zM306 300l-66 330l-66 -330h132zM147 750v30h174v-30h-174z" glyph-name="uni01E2" horiz-adv-x="620" unicode="Ǣ"/>
<glyph d="M340 416v304h236v-36l-156 6v-308l100 2v-34l-100 2l4 -322l156 4v-34h-158h-82l-30 250h-140l-30 -250h-100l160 720h80zM306 300l-66 330l-66 -330h132zM147 750v30h174v-30h-174z" glyph-name="uni01E3" horiz-adv-x="620" unicode="ǣ"/>
<glyph d="M480 376l-19 -306q-76 -58 -119 -72q-26 -8 -51 -8h-5h-9q-173 0 -226 203q-21 79 -21 181q0 178 78 276q65 79 169 80h10q106 -2 169 -50l-25 -64q-17 11 -46 35q-51 41 -80 47q-10 2 -19 2q-84 0 -136 -133q-39 -101 -39 -207v-6q0 -178 63 -267q17 -22 35 -36 q31 -21 70 -21q54 0 111 50q9 8 15 14l-14 256l-120 -6v32h209zM286 795l60 50h55l-115 -95l-122 95h54z" glyph-name="Gcaron" horiz-adv-x="520" unicode="Ǧ"/>
<glyph d="M480 376l-19 -306q-76 -58 -119 -72q-26 -8 -51 -8h-5h-9q-173 0 -226 203q-21 79 -21 181q0 178 78 276q65 79 169 80h10q106 -2 169 -50l-25 -64q-17 11 -46 35q-51 41 -80 47q-10 2 -19 2q-84 0 -136 -133q-39 -101 -39 -207v-6q0 -178 63 -267q17 -22 35 -36 q31 -21 70 -21q54 0 111 50q9 8 15 14l-14 256l-120 -6v32h209zM286 795l60 50h55l-115 -95l-122 95h54z" glyph-name="gcaron" horiz-adv-x="520" unicode="ǧ"/>
<glyph d="M430 0h-100l-150 358l-70 -118l10 -240h-80v720h80l-10 -370l230 370h90l-222 -330zM238 795l60 50h55l-115 -95l-122 95h56z" glyph-name="uni01E8" horiz-adv-x="450" unicode="Ǩ"/>
<glyph d="M430 0h-100l-150 358l-70 -118l10 -240h-80v720h80l-10 -370l230 370h90l-222 -330zM238 795l60 50h55l-115 -95l-122 95h56z" glyph-name="uni01E9" horiz-adv-x="450" unicode="ǩ"/>
<glyph d="M285 730q179 0 228 -205q17 -70 17 -156v-5q0 -91 -15 -163q-24 -124 -115 -180q-43 -25 -93 -30l31 -59q-102 -3 -172 -18q-9 -2 -15 -4q31 -50 132 -50q48 0 104 10l1 -56q-18 -4 -49 -4q-101 0 -164 36q-43 26 -44 60q0 33 111 59q31 7 36 9l-6 17q-51 4 -92 23 q-116 65 -135 254q-4 41 -5 94q3 277 142 345q45 21 103 23zM285 26q127 0 158 203q8 56 8 121q0 81 -11 147q-32 167 -118 192q-18 5 -36 5q-113 0 -150 -167q-3 -14 -6 -30q-11 -83 -11 -153q0 -234 95 -297q32 -21 71 -21z" glyph-name="uni01EA" horiz-adv-x="570" unicode="Ǫ"/>
<glyph d="M285 730q179 0 228 -205q17 -70 17 -156v-5q0 -91 -15 -163q-24 -124 -115 -180q-43 -25 -93 -30l31 -59q-102 -3 -172 -18q-9 -2 -15 -4q31 -50 132 -50q48 0 104 10l1 -56q-18 -4 -49 -4q-101 0 -164 36q-43 26 -44 60q0 33 111 59q31 7 36 9l-6 17q-51 4 -92 23 q-116 65 -135 254q-4 41 -5 94q3 277 142 345q45 21 103 23zM285 26q127 0 158 203q8 56 8 121q0 81 -11 147q-32 167 -118 192q-18 5 -36 5q-113 0 -150 -167q-3 -14 -6 -30q-11 -83 -11 -153q0 -234 95 -297q32 -21 71 -21z" glyph-name="uni01EB" horiz-adv-x="570" unicode="ǫ"/>
<glyph d="M285 730q179 0 228 -205q17 -70 17 -156v-5q0 -91 -15 -163q-24 -124 -115 -180q-43 -25 -93 -30l31 -59q-102 -3 -172 -18q-9 -2 -15 -4q31 -50 132 -50q48 0 104 10l1 -56q-18 -4 -49 -4q-101 0 -164 36q-43 26 -44 60q0 33 111 59q31 7 36 9l-6 17q-51 4 -92 23 q-116 65 -135 254q-4 41 -5 94q3 277 142 345q45 21 103 23zM285 26q127 0 158 203q8 56 8 121q0 81 -11 147q-32 167 -118 192q-18 5 -36 5q-113 0 -150 -167q-3 -14 -6 -30q-11 -83 -11 -153q0 -234 95 -297q32 -21 71 -21zM198 750v30h174v-30h-174z" glyph-name="uni01EC" horiz-adv-x="570" unicode="Ǭ"/>
<glyph d="M285 730q179 0 228 -205q17 -70 17 -156v-5q0 -91 -15 -163q-24 -124 -115 -180q-43 -25 -93 -30l31 -59q-102 -3 -172 -18q-9 -2 -15 -4q31 -50 132 -50q48 0 104 10l1 -56q-18 -4 -49 -4q-101 0 -164 36q-43 26 -44 60q0 33 111 59q31 7 36 9l-6 17q-51 4 -92 23 q-116 65 -135 254q-4 41 -5 94q3 277 142 345q45 21 103 23zM285 26q127 0 158 203q8 56 8 121q0 81 -11 147q-32 167 -118 192q-18 5 -36 5q-113 0 -150 -167q-3 -14 -6 -30q-11 -83 -11 -153q0 -234 95 -297q32 -21 71 -21zM198 750v30h174v-30h-174z" glyph-name="uni01ED" horiz-adv-x="570" unicode="ǭ"/>
<glyph d="M40 30h2q50 0 82 50q26 43 26 110v530h70l1 -529q0 -156 -114 -192q-31 -9 -67 -9v40zM188 795l60 50h55l-115 -95l-122 95h56z" glyph-name="uni01F0" horiz-adv-x="261" unicode="ǰ"/>
<glyph d="M120 30q12 0 37 -1q23 -1 33 -1q44 0 67 14q91 59 128 185q18 62 18 128v13q-5 164 -93 263q-28 31 -60 50q-18 13 -55 13q-12 0 -37 -2h-6.5t-6 -0.5t-5 -0.5h-5h-4t-3 -0.5t-3 -0.5h-2.5h-2h-1v-660zM206 720q151 0 225 -134q52 -94 52 -226q-1 -171 -79 -265 q-78 -95 -196 -95h-168v720h166zM903 670l-356 -640l346 13v-43h-430v58l386 632l-376 -13v43h430v-50z" glyph-name="uni01F1" horiz-adv-x="943" unicode="Ǳ"/>
<glyph d="M120 30q12 0 37 -1q23 -1 33 -1q44 0 67 14q91 59 128 185q18 62 18 128v13q-5 164 -93 263q-28 31 -60 50q-18 13 -55 13q-12 0 -37 -2h-6.5t-6 -0.5t-5 -0.5h-5h-4t-3 -0.5t-3 -0.5h-2.5h-2h-1v-660zM206 720q151 0 225 -134q52 -94 52 -226q-1 -171 -79 -265 q-78 -95 -196 -95h-168v720h166zM903 670l-356 -640l346 13v-43h-430v58l386 632l-376 -13v43h430v-50z" glyph-name="uni01F2" horiz-adv-x="943" unicode="ǲ"/>
<glyph d="M120 30q12 0 37 -1q23 -1 33 -1q44 0 67 14q91 59 128 185q18 62 18 128v13q-5 164 -93 263q-28 31 -60 50q-18 13 -55 13q-12 0 -37 -2h-6.5t-6 -0.5t-5 -0.5h-5h-4t-3 -0.5t-3 -0.5h-2.5h-2h-1v-660zM206 720q151 0 225 -134q52 -94 52 -226q-1 -171 -79 -265 q-78 -95 -196 -95h-168v720h166zM903 670l-356 -640l346 13v-43h-430v58l386 632l-376 -13v43h430v-50z" glyph-name="uni01F3" horiz-adv-x="943" unicode="ǳ"/>
<glyph d="M480 376l-19 -306q-76 -58 -119 -72q-26 -8 -51 -8h-5h-9q-173 0 -226 203q-21 79 -21 181q0 178 78 276q65 79 169 80h10q106 -2 169 -50l-25 -64q-17 11 -46 35q-51 41 -80 47q-10 2 -19 2q-84 0 -136 -133q-39 -101 -39 -207v-6q0 -178 63 -267q17 -22 35 -36 q31 -21 70 -21q54 0 111 50q9 8 15 14l-14 256l-120 -6v32h209zM382 794v-44h-200z" glyph-name="uni01F4" horiz-adv-x="520" unicode="Ǵ"/>
<glyph d="M480 376l-19 -306q-76 -58 -119 -72q-26 -8 -51 -8h-5h-9q-173 0 -226 203q-21 79 -21 181q0 178 78 276q65 79 169 80h10q106 -2 169 -50l-25 -64q-17 11 -46 35q-51 41 -80 47q-10 2 -19 2q-84 0 -136 -133q-39 -101 -39 -207v-6q0 -178 63 -267q17 -22 35 -36 q31 -21 70 -21q54 0 111 50q9 8 15 14l-14 256l-120 -6v32h209zM382 794v-44h-200z" glyph-name="uni01F5" horiz-adv-x="520" unicode="ǵ"/>
<glyph d="M381 102l-5 618h74v-720h-90l-250 630l10 -630h-80v720h84zM144 794l201 -44h-201v44z" glyph-name="uni01F8" unicode="Ǹ"/>
<glyph d="M381 102l-5 618h74v-720h-90l-250 630l10 -630h-80v720h84zM144 794l201 -44h-201v44z" glyph-name="uni01F9" unicode="ǹ"/>
<glyph d="M296 300l-66 330l-66 -330h132zM430 0h-90l-30 250h-160l-30 -250h-90l160 720h80zM226 857q-29 0 -38 -33q-3 -9 -3 -17q0 -32 27 -46q9 -4 16 -4q23 0 36 26q5 11 5 23q0 31 -24 46q-9 5 -19 5zM299 806q0 -39 -45 -52q-14 -4 -28 -4q-46 0 -64 34q-6 12 -6 23 q0 34 36 50q17 7 35 7q45 0 64 -31q8 -13 8 -27zM313 938v-44h-201z" glyph-name="Aringacute" horiz-adv-x="460" unicode="Ǻ"/>
<glyph d="M296 300l-66 330l-66 -330h132zM430 0h-90l-30 250h-160l-30 -250h-90l160 720h80zM226 857q-29 0 -38 -33q-3 -9 -3 -17q0 -32 27 -46q9 -4 16 -4q23 0 36 26q5 11 5 23q0 31 -24 46q-9 5 -19 5zM299 806q0 -39 -45 -52q-14 -4 -28 -4q-46 0 -64 34q-6 12 -6 23 q0 34 36 50q17 7 35 7q45 0 64 -31q8 -13 8 -27zM313 938v-44h-201z" glyph-name="aringacute" horiz-adv-x="460" unicode="ǻ"/>
<glyph d="M340 416v304h236v-36l-156 6v-308l100 2v-34l-100 2l4 -322l156 4v-34h-158h-82l-30 250h-140l-30 -250h-100l160 720h80zM306 300l-66 330l-66 -330h132zM434 794v-44h-200z" glyph-name="AEacute" horiz-adv-x="620" unicode="Ǽ"/>
<glyph d="M340 416v304h236v-36l-156 6v-308l100 2v-34l-100 2l4 -322l156 4v-34h-158h-82l-30 250h-140l-30 -250h-100l160 720h80zM306 300l-66 330l-66 -330h132zM434 794v-44h-200z" glyph-name="aeacute" horiz-adv-x="620" unicode="ǽ"/>
<glyph d="M160 234l283 369q-44 90 -123 91q-113 0 -150 -167q-3 -14 -6 -30q-11 -83 -11 -153q0 -60 7 -110zM319 26q127 0 158 203q8 56 8 121q0 81 -11 147q-5 24 -7 32l-289 -376q41 -126 141 -127zM527 714l51 -42l-56 -73q42 -90 42 -230v-5q0 -91 -15 -163 q-23 -123 -114 -180q-52 -31 -113 -31h-2q-54 0 -104 23q-1 1 -2 1q-52 29 -83 79l-44 -57l-47 41l61 80q-25 76 -27 205q3 277 142 345q45 21 103 23q105 -1 165 -72zM410 794v-44h-202z" glyph-name="Oslashacute" horiz-adv-x="570" unicode="Ǿ"/>
<glyph d="M389 794v-44h-201zM361 507l-92 -339q14 -2 21 -2q71 0 114 74q11 18 18 37q11 28 11 67q0 87 -53 145q-10 10 -19 18zM284 535q-76 0 -118 -79q-27 -50 -27 -107q0 -37 12 -68q20 -53 59 -86l91 339q-6 1 -17 1zM351 720h68l-47 -172q105 -31 146 -116q19 -41 19 -87 q0 -108 -101 -166q-68 -39 -152 -39q-15 0 -22 1l-38 -141h-66l41 152l-9 3q-101 33 -136 122q-14 35 -14 71q0 91 72 152q34 29 78 44q46 16 97 16q14 0 21 -1z" glyph-name="oslashacute" horiz-adv-x="577" unicode="ǿ"/>
<glyph d="M296 300l-66 330l-66 -330h132zM430 0h-90l-30 250h-160l-30 -250h-90l160 720h80zM177 846l34 71l111 -167zM56 846l35 71l111 -167z" glyph-name="uni0200" horiz-adv-x="460" unicode="Ȁ"/>
<glyph d="M296 300l-66 330l-66 -330h132zM430 0h-90l-30 250h-160l-30 -250h-90l160 720h80zM177 846l34 71l111 -167zM56 846l35 71l111 -167z" glyph-name="uni0201" horiz-adv-x="460" unicode="ȁ"/>
<glyph d="M296 300l-66 330l-66 -330h132zM430 0h-90l-30 250h-160l-30 -250h-90l160 720h80zM324 750h-22q0 23 -57 28q-10 1 -19 1q-62 0 -74 -22q-2 -4 -2 -7h-22q0 42 56 57q20 6 42 6q63 0 88 -34q10 -14 10 -29z" glyph-name="uni0202" horiz-adv-x="460" unicode="Ȃ"/>
<glyph d="M296 300l-66 330l-66 -330h132zM430 0h-90l-30 250h-160l-30 -250h-90l160 720h80zM324 750h-22q0 23 -57 28q-10 1 -19 1q-62 0 -74 -22q-2 -4 -2 -7h-22q0 42 56 57q20 6 42 6q63 0 88 -34q10 -14 10 -29z" glyph-name="uni0203" horiz-adv-x="460" unicode="ȃ"/>
<glyph d="M280 0h-240v720h236v-36l-156 6v-308l100 2v-34l-100 2l4 -322l156 4v-34zM123 846l34 71l111 -167zM2 846l35 71l111 -167z" glyph-name="uni0204" horiz-adv-x="320" unicode="Ȅ"/>
<glyph d="M280 0h-240v720h236v-36l-156 6v-308l100 2v-34l-100 2l4 -322l156 4v-34zM123 846l34 71l111 -167zM2 846l35 71l111 -167z" glyph-name="uni0205" horiz-adv-x="320" unicode="ȅ"/>
<glyph d="M280 0h-240v720h236v-36l-156 6v-308l100 2v-34l-100 2l4 -322l156 4v-34zM256 750h-22q0 23 -57 28q-10 1 -19 1q-62 0 -74 -22q-2 -4 -2 -7h-22q0 41 55 57q21 6 43 6q63 0 88 -34q10 -14 10 -29z" glyph-name="uni0206" horiz-adv-x="320" unicode="Ȇ"/>
<glyph d="M280 0h-240v720h236v-36l-156 6v-308l100 2v-34l-100 2l4 -322l156 4v-34zM256 750h-22q0 23 -57 28q-10 1 -19 1q-62 0 -74 -22q-2 -4 -2 -7h-22q0 41 55 57q21 6 43 6q63 0 88 -34q10 -14 10 -29z" glyph-name="uni0207" horiz-adv-x="320" unicode="ȇ"/>
<glyph d="M40 0v34l70 -4v660l-70 -7v37h220v-37l-70 7v-660l70 4v-34h-220zM138 846l34 71l111 -167zM17 846l35 71l111 -167z" glyph-name="uni0208" horiz-adv-x="300" unicode="Ȉ"/>
<glyph d="M40 0v34l70 -4v660l-70 -7v37h220v-37l-70 7v-660l70 4v-34h-220zM138 846l34 71l111 -167zM17 846l35 71l111 -167z" glyph-name="uni0209" horiz-adv-x="300" unicode="ȉ"/>
<glyph d="M40 0v34l70 -4v660l-70 -7v37h220v-37l-70 7v-660l70 4v-34h-220zM248 750h-22q0 23 -57 28q-10 1 -19 1q-62 0 -74 -22q-2 -4 -2 -7h-22q0 41 55 57q21 6 43 6q63 0 88 -34q10 -14 10 -29z" glyph-name="uni020A" horiz-adv-x="300" unicode="Ȋ"/>
<glyph d="M40 0v34l70 -4v660l-70 -7v37h220v-37l-70 7v-660l70 4v-34h-220zM248 750h-22q0 23 -57 28q-10 1 -19 1q-62 0 -74 -22q-2 -4 -2 -7h-22q0 41 55 57q21 6 43 6q63 0 88 -34q10 -14 10 -29z" glyph-name="uni020B" horiz-adv-x="300" unicode="ȋ"/>
<glyph d="M275 26q127 0 158 203q8 56 8 121q0 81 -11 147q-32 167 -118 192q-18 5 -36 5q-113 0 -150 -167q-3 -14 -6 -30q-11 -83 -11 -153q0 -234 95 -297q32 -21 71 -21zM275 730q179 0 228 -205q17 -70 17 -156v-5q0 -91 -15 -163q-23 -123 -114 -180q-52 -31 -113 -31h-2 q-54 0 -104 23q-1 1 -2 1q-116 65 -135 254q-4 41 -5 94q3 277 142 345q45 21 103 23zM250 846l34 71l111 -167zM129 846l35 71l111 -167z" glyph-name="uni020C" horiz-adv-x="550" unicode="Ȍ"/>
<glyph d="M275 26q127 0 158 203q8 56 8 121q0 81 -11 147q-32 167 -118 192q-18 5 -36 5q-113 0 -150 -167q-3 -14 -6 -30q-11 -83 -11 -153q0 -234 95 -297q32 -21 71 -21zM275 730q179 0 228 -205q17 -70 17 -156v-5q0 -91 -15 -163q-23 -123 -114 -180q-52 -31 -113 -31h-2 q-54 0 -104 23q-1 1 -2 1q-116 65 -135 254q-4 41 -5 94q3 277 142 345q45 21 103 23zM250 846l34 71l111 -167zM129 846l35 71l111 -167z" glyph-name="uni020D" horiz-adv-x="550" unicode="ȍ"/>
<glyph d="M275 26q127 0 158 203q8 56 8 121q0 81 -11 147q-32 167 -118 192q-18 5 -36 5q-113 0 -150 -167q-3 -14 -6 -30q-11 -83 -11 -153q0 -234 95 -297q32 -21 71 -21zM275 730q179 0 228 -205q17 -70 17 -156v-5q0 -91 -15 -163q-23 -123 -114 -180q-52 -31 -113 -31h-2 q-54 0 -104 23q-1 1 -2 1q-116 65 -135 254q-4 41 -5 94q3 277 142 345q45 21 103 23zM372 750h-22q0 23 -56 28q-9 1 -18 1q-62 0 -74 -22q-2 -4 -2 -7h-22q0 43 57 58q20 5 41 5q63 0 87 -34q9 -14 9 -29z" glyph-name="uni020E" horiz-adv-x="550" unicode="Ȏ"/>
<glyph d="M275 26q127 0 158 203q8 56 8 121q0 81 -11 147q-32 167 -118 192q-18 5 -36 5q-113 0 -150 -167q-3 -14 -6 -30q-11 -83 -11 -153q0 -234 95 -297q32 -21 71 -21zM275 730q179 0 228 -205q17 -70 17 -156v-5q0 -91 -15 -163q-23 -123 -114 -180q-52 -31 -113 -31h-2 q-54 0 -104 23q-1 1 -2 1q-116 65 -135 254q-4 41 -5 94q3 277 142 345q45 21 103 23zM372 750h-22q0 23 -56 28q-9 1 -18 1q-62 0 -74 -22q-2 -4 -2 -7h-22q0 43 57 58q20 5 41 5q63 0 87 -34q9 -14 9 -29z" glyph-name="uni020F" horiz-adv-x="550" unicode="ȏ"/>
<glyph d="M208 390q142 0 151 131q1 10 1 19q0 136 -117 152q-15 2 -31 2l-102 -4v-300h98zM210 360h-100l10 -360h-80v720h176q154 0 193 -95q2 -5 3 -9q13 -34 13 -78q-2 -154 -155 -175l160 -363h-90zM163 846l34 71l111 -167zM42 846l35 71l111 -167z" glyph-name="uni0210" horiz-adv-x="470" unicode="Ȑ"/>
<glyph d="M208 390q142 0 151 131q1 10 1 19q0 136 -117 152q-15 2 -31 2l-102 -4v-300h98zM210 360h-100l10 -360h-80v720h176q154 0 193 -95q2 -5 3 -9q13 -34 13 -78q-2 -154 -155 -175l160 -363h-90zM163 846l34 71l111 -167zM42 846l35 71l111 -167z" glyph-name="uni0211" horiz-adv-x="470" unicode="ȑ"/>
<glyph d="M208 390q142 0 151 131q1 10 1 19q0 136 -117 152q-15 2 -31 2l-102 -4v-300h98zM210 360h-100l10 -360h-80v720h176q154 0 193 -95q2 -5 3 -9q13 -34 13 -78q-2 -154 -155 -175l160 -363h-90zM306 750h-22q0 23 -57 28q-10 1 -19 1q-62 0 -74 -22q-2 -4 -2 -7h-22 q0 41 55 57q21 6 43 6q63 0 88 -34q10 -14 10 -29z" glyph-name="uni0212" horiz-adv-x="470" unicode="Ȓ"/>
<glyph d="M208 390q142 0 151 131q1 10 1 19q0 136 -117 152q-15 2 -31 2l-102 -4v-300h98zM210 360h-100l10 -360h-80v720h176q154 0 193 -95q2 -5 3 -9q13 -34 13 -78q-2 -154 -155 -175l160 -363h-90zM306 750h-22q0 23 -57 28q-10 1 -19 1q-62 0 -74 -22q-2 -4 -2 -7h-22 q0 41 55 57q21 6 43 6q63 0 88 -34q10 -14 10 -29z" glyph-name="uni0213" horiz-adv-x="470" unicode="ȓ"/>
<glyph d="M450 230q0 -229 -185 -240h-17q-207 2 -208 240v490h80v-19q0 -35 -2 -180q-4 -212 -4 -287q0 -70 2 -80q10 -68 64 -104q31 -20 68 -20q78 0 112 76q10 23 14 48q2 21 2 80q0 82 -4 316q-2 133 -2 160v10h80v-490zM220 847l34 71l111 -167zM99 847l35 71l111 -167z" glyph-name="uni0214" unicode="Ȕ"/>
<glyph d="M450 230q0 -229 -185 -240h-17q-207 2 -208 240v490h80v-19q0 -35 -2 -180q-4 -212 -4 -287q0 -70 2 -80q10 -68 64 -104q31 -20 68 -20q78 0 112 76q10 23 14 48q2 21 2 80q0 82 -4 316q-2 133 -2 160v10h80v-490zM220 847l34 71l111 -167zM99 847l35 71l111 -167z" glyph-name="uni0215" unicode="ȕ"/>
<glyph d="M450 230q0 -229 -185 -240h-17q-207 2 -208 240v490h80v-19q0 -35 -2 -180q-4 -212 -4 -287q0 -70 2 -80q10 -68 64 -104q31 -20 68 -20q78 0 112 76q10 23 14 48q2 21 2 80q0 82 -4 316q-2 133 -2 160v10h80v-490zM342 750h-22q0 23 -56 28q-9 1 -18 1q-62 0 -74 -22 q-2 -4 -2 -7h-22q0 43 57 58q20 5 41 5q63 0 87 -34q9 -14 9 -29z" glyph-name="uni0216" unicode="Ȗ"/>
<glyph d="M450 230q0 -229 -185 -240h-17q-207 2 -208 240v490h80v-19q0 -35 -2 -180q-4 -212 -4 -287q0 -70 2 -80q10 -68 64 -104q31 -20 68 -20q78 0 112 76q10 23 14 48q2 21 2 80q0 82 -4 316q-2 133 -2 160v10h80v-490zM342 750h-22q0 23 -56 28q-9 1 -18 1q-62 0 -74 -22 q-2 -4 -2 -7h-22q0 43 57 58q20 5 41 5q63 0 87 -34q9 -14 9 -29z" glyph-name="uni0217" unicode="ȗ"/>
<glyph d="M350 644q-10 5 -28 18q-51 32 -82 34h-2q-46 0 -92 -37q-14 -12 -22 -23q-24 -34 -24 -89q0 -58 77 -103q19 -11 62 -32q90 -44 120 -76q10 -10 16 -20q35 -52 35 -106q0 -122 -93 -183q-58 -37 -131 -37q-93 1 -156 37l20 67q9 -6 27 -19q60 -42 99 -47q8 -1 15 -1 q56 1 99 43q41 43 42 129q0 76 -86 126q-21 12 -66 33q-65 31 -89 50q-70 58 -71 134q0 115 103 164q52 24 117 24q78 0 135 -21zM182 -40q32 0 47 -35q6 -13 6 -26q-1 -77 -85 -120l-10 18q41 22 42 66q-31 4 -42 32q-4 9 -4 18q0 32 28 44q9 3 18 3z" glyph-name="uni0218" horiz-adv-x="450" unicode="Ș"/>
<glyph d="M350 644q-10 5 -28 18q-51 32 -82 34h-2q-46 0 -92 -37q-14 -12 -22 -23q-24 -34 -24 -89q0 -58 77 -103q19 -11 62 -32q90 -44 120 -76q10 -10 16 -20q35 -52 35 -106q0 -122 -93 -183q-58 -37 -131 -37q-93 1 -156 37l20 67q9 -6 27 -19q60 -42 99 -47q8 -1 15 -1 q56 1 99 43q41 43 42 129q0 76 -86 126q-21 12 -66 33q-65 31 -89 50q-70 58 -71 134q0 115 103 164q52 24 117 24q78 0 135 -21zM182 -40q32 0 47 -35q6 -13 6 -26q-1 -77 -85 -120l-10 18q41 22 42 66q-31 4 -42 32q-4 9 -4 18q0 32 28 44q9 3 18 3z" glyph-name="uni0219" horiz-adv-x="450" unicode="ș"/>
<glyph d="M286 690l4 -690h-80l4 690l-184 -14v44h440v-44zM246 -30q32 0 47 -35q6 -13 6 -26q-1 -77 -85 -120l-10 18q41 22 42 66q-31 4 -42 32q-4 9 -4 18q0 32 28 44q9 3 18 3z" glyph-name="uni021A" horiz-adv-x="500" unicode="Ț"/>
<glyph d="M286 690l4 -690h-80l4 690l-184 -14v44h440v-44zM246 -30q32 0 47 -35q6 -13 6 -26q-1 -77 -85 -120l-10 18q41 22 42 66q-31 4 -42 32q-4 9 -4 18q0 32 28 44q9 3 18 3z" glyph-name="uni021B" horiz-adv-x="500" unicode="ț"/>
<glyph d="M296 300l-66 330l-66 -330h132zM430 0h-90l-30 250h-160l-30 -250h-90l160 720h80zM212 750q-28 0 -41 27q-4 9 -4 18q0 28 27 41q9 4 18 4q28 0 41 -27q4 -9 4 -18q0 -28 -27 -41q-9 -4 -18 -4z" glyph-name="uni0226" horiz-adv-x="460" unicode="Ȧ"/>
<glyph d="M296 300l-66 330l-66 -330h132zM430 0h-90l-30 250h-160l-30 -250h-90l160 720h80zM212 750q-28 0 -41 27q-4 9 -4 18q0 28 27 41q9 4 18 4q28 0 41 -27q4 -9 4 -18q0 -28 -27 -41q-9 -4 -18 -4z" glyph-name="uni0227" horiz-adv-x="460" unicode="ȧ"/>
<glyph d="M146 0l-7 -16q6 -2 27 -7q107 -25 118 -52q2 -5 2 -9q0 -55 -100 -82q-53 -14 -108 -14q-32 0 -49 4l1 56q56 -10 104 -10q102 1 132 50q-45 16 -178 22h-9l31 58h-70v720h236v-36l-156 6v-308l100 2v-34l-100 2l4 -322l156 4v-34h-134z" glyph-name="uni0228" horiz-adv-x="320" unicode="Ȩ"/>
<glyph d="M146 0l-7 -16q6 -2 27 -7q107 -25 118 -52q2 -5 2 -9q0 -55 -100 -82q-53 -14 -108 -14q-32 0 -49 4l1 56q56 -10 104 -10q102 1 132 50q-45 16 -178 22h-9l31 58h-70v720h236v-36l-156 6v-308l100 2v-34l-100 2l4 -322l156 4v-34h-134z" glyph-name="uni0229" horiz-adv-x="320" unicode="ȩ"/>
<glyph d="M275 26q127 0 158 203q8 56 8 121q0 81 -11 147q-32 167 -118 192q-18 5 -36 5q-113 0 -150 -167q-3 -14 -6 -30q-11 -83 -11 -153q0 -234 95 -297q32 -21 71 -21zM275 730q179 0 228 -205q17 -70 17 -156v-5q0 -91 -15 -163q-23 -123 -114 -180q-52 -31 -113 -31h-2 q-54 0 -104 23q-1 1 -2 1q-116 65 -135 254q-4 41 -5 94q3 277 142 345q45 21 103 23zM332 750q-21 0 -29 20q-2 6 -2 11q0 22 20 30q6 2 11 2q27 0 31 -25q1 -4 1 -7q0 -21 -21 -29q-6 -2 -11 -2zM222 750q-22 0 -30 20q-2 6 -2 11q0 27 25 31q4 1 7 1q21 0 29 -21 q2 -6 2 -11q0 -21 -20 -29q-6 -2 -11 -2zM190 853v30h174v-30h-174z" glyph-name="uni022A" horiz-adv-x="550" unicode="Ȫ"/>
<glyph d="M275 26q127 0 158 203q8 56 8 121q0 81 -11 147q-32 167 -118 192q-18 5 -36 5q-113 0 -150 -167q-3 -14 -6 -30q-11 -83 -11 -153q0 -234 95 -297q32 -21 71 -21zM275 730q179 0 228 -205q17 -70 17 -156v-5q0 -91 -15 -163q-23 -123 -114 -180q-52 -31 -113 -31h-2 q-54 0 -104 23q-1 1 -2 1q-116 65 -135 254q-4 41 -5 94q3 277 142 345q45 21 103 23zM332 750q-21 0 -29 20q-2 6 -2 11q0 22 20 30q6 2 11 2q27 0 31 -25q1 -4 1 -7q0 -21 -21 -29q-6 -2 -11 -2zM222 750q-22 0 -30 20q-2 6 -2 11q0 27 25 31q4 1 7 1q21 0 29 -21 q2 -6 2 -11q0 -21 -20 -29q-6 -2 -11 -2zM190 853v30h174v-30h-174z" glyph-name="uni022B" horiz-adv-x="550" unicode="ȫ"/>
<glyph d="M275 26q127 0 158 203q8 56 8 121q0 81 -11 147q-32 167 -118 192q-18 5 -36 5q-113 0 -150 -167q-3 -14 -6 -30q-11 -83 -11 -153q0 -234 95 -297q32 -21 71 -21zM275 730q179 0 228 -205q17 -70 17 -156v-5q0 -91 -15 -163q-23 -123 -114 -180q-52 -31 -113 -31h-2 q-54 0 -104 23q-1 1 -2 1q-116 65 -135 254q-4 41 -5 94q3 277 142 345q45 21 103 23zM390 842v-4q-2 -82 -63 -83q-24 0 -55 29q-27 24 -44 25q-19 0 -26 -58v-1h-42v6q0 61 38 79q12 6 25 6q24 0 53 -29q27 -25 45 -26q21 0 26 51v5h43zM192 872v30h174v-30h-174z" glyph-name="uni022C" horiz-adv-x="550" unicode="Ȭ"/>
<glyph d="M275 26q127 0 158 203q8 56 8 121q0 81 -11 147q-32 167 -118 192q-18 5 -36 5q-113 0 -150 -167q-3 -14 -6 -30q-11 -83 -11 -153q0 -234 95 -297q32 -21 71 -21zM275 730q179 0 228 -205q17 -70 17 -156v-5q0 -91 -15 -163q-23 -123 -114 -180q-52 -31 -113 -31h-2 q-54 0 -104 23q-1 1 -2 1q-116 65 -135 254q-4 41 -5 94q3 277 142 345q45 21 103 23zM390 842v-4q-2 -82 -63 -83q-24 0 -55 29q-27 24 -44 25q-19 0 -26 -58v-1h-42v6q0 61 38 79q12 6 25 6q24 0 53 -29q27 -25 45 -26q21 0 26 51v5h43zM192 872v30h174v-30h-174z" glyph-name="uni022D" horiz-adv-x="550" unicode="ȭ"/>
<glyph d="M275 26q127 0 158 203q8 56 8 121q0 81 -11 147q-32 167 -118 192q-18 5 -36 5q-113 0 -150 -167q-3 -14 -6 -30q-11 -83 -11 -153q0 -234 95 -297q32 -21 71 -21zM275 730q179 0 228 -205q17 -70 17 -156v-5q0 -91 -15 -163q-23 -123 -114 -180q-52 -31 -113 -31h-2 q-54 0 -104 23q-1 1 -2 1q-116 65 -135 254q-4 41 -5 94q3 277 142 345q45 21 103 23zM275 750q-28 0 -41 27q-4 9 -4 18q0 28 27 41q9 4 18 4q28 0 41 -27q4 -9 4 -18q0 -28 -27 -41q-9 -4 -18 -4z" glyph-name="uni022E" horiz-adv-x="550" unicode="Ȯ"/>
<glyph d="M275 26q127 0 158 203q8 56 8 121q0 81 -11 147q-32 167 -118 192q-18 5 -36 5q-113 0 -150 -167q-3 -14 -6 -30q-11 -83 -11 -153q0 -234 95 -297q32 -21 71 -21zM275 730q179 0 228 -205q17 -70 17 -156v-5q0 -91 -15 -163q-23 -123 -114 -180q-52 -31 -113 -31h-2 q-54 0 -104 23q-1 1 -2 1q-116 65 -135 254q-4 41 -5 94q3 277 142 345q45 21 103 23zM275 750q-28 0 -41 27q-4 9 -4 18q0 28 27 41q9 4 18 4q28 0 41 -27q4 -9 4 -18q0 -28 -27 -41q-9 -4 -18 -4z" glyph-name="uni022F" horiz-adv-x="550" unicode="ȯ"/>
<glyph d="M275 26q127 0 158 203q8 56 8 121q0 81 -11 147q-32 167 -118 192q-18 5 -36 5q-113 0 -150 -167q-3 -14 -6 -30q-11 -83 -11 -153q0 -234 95 -297q32 -21 71 -21zM275 730q179 0 228 -205q17 -70 17 -156v-5q0 -91 -15 -163q-23 -123 -114 -180q-52 -31 -113 -31h-2 q-54 0 -104 23q-1 1 -2 1q-116 65 -135 254q-4 41 -5 94q3 277 142 345q45 21 103 23zM275 750q-28 0 -41 27q-4 9 -4 18q0 28 27 41q9 4 18 4q28 0 41 -27q4 -9 4 -18q0 -28 -27 -41q-9 -4 -18 -4zM188 860v30h174v-30h-174z" glyph-name="uni0230" horiz-adv-x="550" unicode="Ȱ"/>
<glyph d="M275 26q127 0 158 203q8 56 8 121q0 81 -11 147q-32 167 -118 192q-18 5 -36 5q-113 0 -150 -167q-3 -14 -6 -30q-11 -83 -11 -153q0 -234 95 -297q32 -21 71 -21zM275 730q179 0 228 -205q17 -70 17 -156v-5q0 -91 -15 -163q-23 -123 -114 -180q-52 -31 -113 -31h-2 q-54 0 -104 23q-1 1 -2 1q-116 65 -135 254q-4 41 -5 94q3 277 142 345q45 21 103 23zM275 750q-28 0 -41 27q-4 9 -4 18q0 28 27 41q9 4 18 4q28 0 41 -27q4 -9 4 -18q0 -28 -27 -41q-9 -4 -18 -4zM188 860v30h174v-30h-174z" glyph-name="uni0231" horiz-adv-x="550" unicode="ȱ"/>
<glyph d="M280 330v-330h-70l10 330l-200 390h70l154 -330l156 330h72zM159 750v30h174v-30h-174z" glyph-name="uni0232" horiz-adv-x="492" unicode="Ȳ"/>
<glyph d="M280 330v-330h-70l10 330l-200 390h70l154 -330l156 330h72zM159 750v30h174v-30h-174z" glyph-name="uni0233" horiz-adv-x="492" unicode="ȳ"/>
<glyph d="M442 331h-402v58h402v-58z" glyph-name="endash" horiz-adv-x="482" unicode="–"/>
<glyph d="M596 330h-556v58h556v-58z" glyph-name="NameMe.488" horiz-adv-x="636" unicode="—"/>
<glyph d="M94 569q-32 0 -48 33q-6 14 -6 28q1 77 85 120l10 -18q-41 -22 -42 -66q31 -4 42 -32q4 -9 4 -18q0 -34 -29 -44q-8 -3 -16 -3z" glyph-name="quoteleft" horiz-adv-x="179" unicode="‘"/>
<glyph d="M85 750q32 0 48 -33q6 -14 6 -28q-1 -77 -85 -120l-10 18q41 22 42 66q-31 4 -42 32q-4 9 -4 18q0 34 29 44q8 3 16 3z" glyph-name="quoteright" horiz-adv-x="179" unicode="’"/>
<glyph d="M85 87q32 0 48 -33q6 -14 6 -28q-1 -77 -85 -120l-10 18q41 22 42 66q-31 4 -42 32q-4 9 -4 18q0 34 29 44q8 3 16 3z" glyph-name="quotesinglbase" horiz-adv-x="179" unicode="‚"/>
<glyph d="M253 619q-32 0 -48 33q-6 14 -6 28q1 77 85 120l10 -18q-41 -22 -42 -66q31 -4 42 -32q4 -9 4 -18q0 -34 -29 -44q-8 -3 -16 -3zM94 619q-32 0 -48 33q-6 14 -6 28q1 77 85 120l10 -18q-41 -22 -42 -66q31 -4 42 -32q4 -9 4 -18q0 -34 -29 -44q-8 -3 -16 -3z" glyph-name="quotedblleft" horiz-adv-x="338" unicode="“"/>
<glyph d="M85 800q32 0 48 -33q6 -14 6 -28q-1 -77 -85 -120l-10 18q41 22 42 66q-31 4 -42 32q-4 9 -4 18q0 34 29 44q8 3 16 3zM244 800q32 0 48 -33q6 -14 6 -28q-1 -77 -85 -120l-10 18q41 22 42 66q-31 4 -42 32q-4 9 -4 18q0 34 29 44q8 3 16 3z" glyph-name="NameMe.494" horiz-adv-x="338" unicode="”"/>
<glyph d="M85 87q32 0 48 -33q6 -14 6 -28q-1 -77 -85 -120l-10 18q41 22 42 66q-31 4 -42 32q-4 9 -4 18q0 34 29 44q8 3 16 3zM244 87q32 0 48 -33q6 -14 6 -28q-1 -77 -85 -120l-10 18q41 22 42 66q-31 4 -42 32q-4 9 -4 18q0 34 29 44q8 3 16 3z" glyph-name="quotedblbase" horiz-adv-x="338" unicode="„"/>
<glyph d="M210 530l-170 -20v80h66l104 -10l-10 120v100h80v-100l-10 -120l106 10h64v-80l-170 20l10 -494v-96h-70v96v494z" glyph-name="dagger" horiz-adv-x="480" unicode="†"/>
<glyph d="M210 210v320l-170 -20v80h66l104 -10l-10 120v100h80v-100l-10 -120l106 10h64v-80l-170 20v-320l170 20v-80h-65l-105 10l10 -124v-96h-80v96l10 124l-105 -10h-65v80z" glyph-name="daggerdbl" horiz-adv-x="480" unicode="‡"/>
<glyph d="M40 361q0 54 44 77q20 10 42 10q51 0 76 -44q11 -21 11 -44q-1 -57 -54 -83q-15 -7 -33 -7q-49 0 -74 44q-12 22 -12 47z" glyph-name="bullet" horiz-adv-x="253" unicode="•"/>
<glyph d="M82 -10q-26 0 -38 25q-4 9 -4 17q0 26 25 38q9 4 17 4q26 0 38 -25q4 -9 4 -17q0 -26 -25 -38q-9 -4 -17 -4zM216 -10q-26 0 -38 25q-4 9 -4 17q0 26 25 38q9 4 17 4q26 0 38 -25q4 -9 4 -17q0 -26 -25 -38q-9 -4 -17 -4zM350 -10q-26 0 -38 25q-4 9 -4 17q0 26 25 38 q9 4 17 4q26 0 38 -25q4 -9 4 -17q0 -26 -25 -38q-9 -4 -17 -4z" glyph-name="ellipsis" horiz-adv-x="432" unicode="…"/>
<glyph d="M184 131q0 -49 55 -73q26 -11 53 -11q23 0 40 7q56 22 66 67q1 7 1 13q0 50 -60 76q-3 1 -5 2q-19 6 -38 6q-60 0 -94 -38q-18 -22 -18 -49zM294 278q71 0 103 -70q16 -36 16 -76q0 -30 -9 -55q-22 -67 -84 -83q-14 -4 -28 -4q-63 0 -98 55q-9 15 -15 32q-10 26 -10 56 q0 74 49 117q33 28 76 28zM472 131q0 -49 55 -73q26 -11 53 -11q23 0 40 7q56 22 66 67q1 7 1 13q0 50 -60 76q-3 1 -5 2q-19 6 -38 6q-60 0 -94 -38q-18 -22 -18 -49zM582 278q71 0 103 -70q16 -36 16 -76q0 -30 -9 -55q-22 -67 -84 -83q-14 -4 -28 -4q-63 0 -98 55 q-9 15 -15 32q-10 26 -10 56q0 74 49 117q33 28 76 28zM110 585q0 -49 55 -73q26 -11 53 -11q23 0 40 7q56 22 66 67q1 7 1 13q0 50 -60 76q-3 1 -5 2q-19 6 -38 6q-60 0 -94 -38q-18 -22 -18 -49zM220 732q71 0 103 -70q16 -36 16 -76q0 -30 -9 -55q-22 -67 -84 -83 q-14 -4 -28 -4q-63 0 -98 55q-9 15 -15 32q-10 26 -10 56q0 74 49 117q33 28 76 28zM777 442l20 -57l-737 -76l-20 56z" glyph-name="perthousand" horiz-adv-x="837" unicode="‰"/>
<glyph d="M81 360l203 -212l-27 -20l-203 175q-9 8 -14 11v88q7 5 131 126q71 69 79 70q14 -9 27 -20z" glyph-name="guilsinglleft" horiz-adv-x="324" unicode="‹"/>
<glyph d="M243 360l-196 218q14 11 27 20q8 0 145 -135q53 -51 65 -61v-88q-14 -10 -68 -56.5t-102 -87.5l-47 -42q-2 1 -27 20z" glyph-name="guilsinglright" horiz-adv-x="324" unicode="›"/>
<glyph d="M223 117l83 -77l-70 -36l-52 96l-2 -3q-27 -63 -72 -93l-52 36l86 76q-53 6 -104 28l20 76l104 -60l-20 120l78 1q-4 -66 -19 -120l103 59l22 -76l-48 -16q-29 -8 -57 -11zM673 117l83 -77l-70 -36l-52 96l-2 -3q-27 -63 -72 -93l-52 36l86 76q-53 6 -104 28l20 76 l104 -60l-20 120l78 1q-4 -66 -19 -120l103 59l22 -76l-48 -16q-29 -8 -57 -11zM447 557l83 -77l-70 -36l-52 96l-2 -3q-27 -63 -72 -93l-52 36l86 76q-53 6 -104 28l20 76l104 -60l-20 120l78 1q-4 -66 -19 -120l103 59l22 -76l-48 -16q-29 -8 -57 -11z" glyph-name="uni2042" horiz-adv-x="818" unicode="⁂"/>
<glyph d="M273 720h68l-195 -720h-66z" glyph-name="fraction" horiz-adv-x="341" unicode="⁄"/>
<glyph d="M565 46q-72 -56 -179 -56h-2q-211 2 -247 259h-97l26 62h65v23q-1 16 -1 24v23h-90l26 62h68q19 182 121 252q52 35 121 35h10q106 -2 169 -50l-25 -64q-17 11 -46 35q-51 41 -80 47q-10 2 -19 2q-48 -1 -105 -80q-55 -71 -66 -177h324l-22 -62h-306v-21q0 -18 2 -49h326 l-22 -62h-297q24 -136 104 -198q47 -30 72 -31q27 0 45 10q19 10 67 52q23 20 38 30z" glyph-name="euro" horiz-adv-x="605" unicode="€"/>
</font>
</defs>
</svg>
