<svg xmlns="http://www.w3.org/2000/svg" width="1000" height="1000" viewBox="0 0 1000 1000"><defs><style>.a{fill:#1d1d1b;}</style></defs><path class="a" d="M693,734.16c-51.35,40.49-112.75,55.67-178.59,56C314.26,791.22,259,619.4,258.19,422.17c-4-172.78,56.68-378.68,256.22-372,58.49,1.41,122.05,14,168.59,50l-24.81,63.61c-55.82-36.71-90-83.61-145.19-83.61-33.1,0-68.42,28.92-104.81,80-58.38,75.16-69.9,156.61-70,260,2,113.53,21.49,240.65,112.87,308.71,20.17,13.44,46.15,30.43,71.94,31.29,14.84.49,31.61-3.46,45.18-10,38.16-18.95,68-59,104.82-82Z"/><path class="a" d="M512.13,785.53,505,802.45c33.44,9.22,144.66,26.36,147.09,66.62,1,83.06-185.61,108.56-257,92.46l1-56c66.95,12.37,196.71,27.58,236-40-35.24-11.82-150.67-20.7-187.19-21.5l35.19-66.5Z"/></svg>