<svg xmlns="http://www.w3.org/2000/svg" width="1000" height="1000" viewBox="0 0 1000 1000"><defs><style>.a{fill:#1d1d1b;}</style></defs><path class="a" d="M710.67,602q17,39,17,79,0,42-17,76a148.1,148.1,0,0,1-20,31.5,232.28,232.28,0,0,1-27,27.5q-29,25-70,39a301.72,301.72,0,0,1-92,14,316.35,316.35,0,0,1-48.5-3.5,268.54,268.54,0,0,1-43.5-10.5q-42-13-72-39-32-26-49-59a4.51,4.51,0,0,0-.5-2,4.32,4.32,0,0,1-.5-2l-2-2q-2-6-4.5-12.5t-4.5-13.5a291.65,291.65,0,0,1-11.5-53q-3.51-28-4.5-56t-.5-53.5q.49-25.5,2.5-46.5,2-28,8-64.5t16-74.5a682.17,682.17,0,0,1,24-74q14-36,31-63,68-110,192-110,85,0,145,25l-13,60a203,203,0,0,1-35-15.5q-17-9.5-33-18a320,320,0,0,0-31-14.5,80.25,80.25,0,0,0-30-6,101.21,101.21,0,0,0-42,9.5,181.2,181.2,0,0,0-39.5,24.5,262.12,262.12,0,0,0-35,34.5,301.5,301.5,0,0,0-28.5,39.5q-23,39-31,97.5a903,903,0,0,0-8,122.5l-1,39q25-17,58-28,42-15,92-15t92,15a256.06,256.06,0,0,1,37.5,16.5,158.53,158.53,0,0,1,32.5,23.5A186.74,186.74,0,0,1,710.67,602Zm-89,142a143.5,143.5,0,0,0,8.5-30.5,204.66,204.66,0,0,0,2.5-32.5q0-30-11-63a186.63,186.63,0,0,0-29-56,158,158,0,0,0-44-40q-26-14-52-14a113.33,113.33,0,0,0-53,13,155.12,155.12,0,0,0-42,39,160.33,160.33,0,0,0-28,54,197.81,197.81,0,0,0-10,63,203.49,203.49,0,0,0,2.5,32.5,142.91,142.91,0,0,0,8.5,30.5,31.51,31.51,0,0,0,2,9,2.85,2.85,0,0,0,1,2,151.06,151.06,0,0,0,26,43,119.73,119.73,0,0,0,20,21,218.4,218.4,0,0,0,24,17,103.08,103.08,0,0,0,54,15q26,0,51-14a150,150,0,0,0,42-37,163.83,163.83,0,0,0,15.5-25A244.06,244.06,0,0,0,621.67,744Z"/></svg>