<svg xmlns="http://www.w3.org/2000/svg" width="1000" height="1000" viewBox="0 0 1000 1000"><defs><style>.a,.b{fill:#1d1d1b;}.a{fill-rule:evenodd;}</style></defs><path class="a" d="M758,417H286l-26,62H736Z"/><path class="a" d="M758,549H286l-26,62H736Z"/><path class="b" d="M785,814c-51.35,40.5-112.75,55.68-178.59,56C406.26,871.06,351,699.24,350.19,502c-4-172.78,56.68-378.68,256.22-372,58.49,1.41,122.05,14,168.59,50l-24.81,63.62C694.37,206.9,660.19,160,605,160c-33.1,0-68.42,28.92-104.81,80-58.38,75.16-69.9,156.61-70,260,2,113.52,21.49,240.65,112.87,308.71C563.23,822.15,589.21,839.14,615,840c14.84.49,31.61-3.46,45.18-10,38.16-19,68-59,104.82-82Z"/></svg>