<svg xmlns="http://www.w3.org/2000/svg" width="1000" height="1000" viewBox="0 0 1000 1000"><defs><style>.a{fill:#1d1d1b;}</style></defs><path d="M378,940.94S470,923.18,470,790H391.49v71s66.24,8.88-13.49,62.15Z"/><polygon points="260 450 296 450 323 280 263 280 260 383.89 260 450"/><path class="a" d="M702.11,375.84a52.52,52.52,0,0,1-32.85-16.14Q656,345.87,656,326.27t12.11-33.44Q680.21,279,701,279t37.47,17.87q16.7,17.88,16.72,43.23,0,76.09-85.32,119.9l-10.37-18.45Q683.67,430,692.89,411T702.11,375.84Z"/><path class="a" d="M260,828q0-17,12.5-29.5T302,786q17,0,29.5,12.5T344,828q0,17-12.5,29.5T302,870q-17,0-29.5-12.5T260,828Z"/><path class="a" d="M510,828q0-17,12.5-29.5T552,786q17,0,29.5,12.5T594,828q0,17-12.5,29.5T552,870q-17,0-29.5-12.5T510,828Z"/><path class="a" d="M510,518q0-17,12.5-29.5T552,476q17,0,29.5,12.5T594,518q0,17-12.5,29.5T552,560q-17,0-29.5-12.5T510,518Z"/><path class="a" d="M518,222q-9,31-20.5,64.5t-24,65q-12.51,31.5-25,58T426,453l-54,6q8-22,16.5-50.5t16-59q7.5-30.5,14-61.5T429,231Z"/></svg>