<svg xmlns="http://www.w3.org/2000/svg" width="1000" height="1000" viewBox="0 0 1000 1000"><defs><style>.a{fill:#1d1d1b;}</style></defs><path class="a" d="M505.28,130C699.69,130,751.18,321.13,750,496c-.4,58.62-5.38,115.41-14.66,162.57C711.48,788.3,618.77,871,506,870a256.18,256.18,0,0,1-106.44-24.16c-120.25-67.94-137.9-211.7-139.94-347.35C262,304.94,308.61,135.87,505.28,130Zm0,704c186.09,0,175-343.56,154.79-470.83C643.18,274.71,609.23,166,506,166,399.43,166,365.89,273.73,350,363.17c-4.76,33.28-9.21,81.59-9.87,134.83C338.2,649.12,366.79,834,505.28,834Z"/><polygon class="a" points="460 480 820 830.01 792 870 432 520 460 480"/></svg>