<svg xmlns="http://www.w3.org/2000/svg" width="1000" height="1000" viewBox="0 0 1000 1000"><defs><style>.a{fill:#1d1d1b;}</style></defs><path class="a" d="M748.22,505.17c0-61.74-25-111.3-63.75-147.21l57.64-57.64-42.43-42.43-65,65c-69.2-36.75-158.41-43.56-233.24-16a252,252,0,0,0-36.67,15.48l-64.46-64.46-42.43,42.43L315,357.45C231.8,435.66,230.09,565.2,313.53,644l-55.64,55.64,42.43,42.43,62.91-62.91a257.3,257.3,0,0,0,38.21,16.14c73.62,24.48,164,18,234.06-17.41l64.18,64.18,42.43-42.43-56-56C723.87,610,748.22,563.61,748.22,505.17ZM596.1,638.53c-54.9,62.82-136.29,61-192.3.1-12.82-13.93-24.31-31-33.85-51q-4.06-8.57-7.66-17.87c-18.19-47.26-14.75-108,6.77-158.26,8.3-19.4,19.3-37.21,32.79-52.07C425.79,333.06,457.55,316,496,316c40,0,73.25,18.71,98.18,47.35A197.31,197.31,0,0,1,626.48,416c21.22,50,25.13,109.9,7.34,157.36q-2.49,6.63-5.22,12.86C619.51,607,608.49,624.38,596.1,638.53Z"/></svg>