<svg xmlns="http://www.w3.org/2000/svg" width="1000" height="1000" viewBox="0 0 1000 1000"><defs><style>.a{fill:#1d1d1b;}</style></defs><path class="a" d="M581.84,635.33c44.36-31.17,74.54-82.53,74.54-152.21,0-34.52-10.23-61.36-29.49-90.52C571,308,392.18,297.33,392.18,196.09c0-24.76,6.34-55.38,20.49-76.37,17-25.23,65.05-51.65,98.83-50.8,36.67,2,62.86,27.06,93.9,44l21.06-55C591.45,45.32,552.4,40,511.5,40,415.47,40,324,89.68,324,200.18c0,46,26,86.19,60.39,114,11.88,9.59,26.21,18,41.71,25.89C367.55,362,324,409.32,324,485.57c0,46,26,86.18,60.39,114,65.74,53.07,206.38,68.89,205.23,179.09-1.56,35.93-8.23,81.93-35.13,108.83-29.29,29.29-76.41,47.3-118.68,30.85-30.91-13-57.84-32.78-86.24-50.93l-17,56.93C373.17,948,419.22,956,465.47,956c98.87,0,190.91-65.81,190.91-187.5,0-34.51-10.23-61.36-29.49-90.52C615.88,661.31,600.09,647.51,581.84,635.33ZM392.18,481.47c0-24.75,6.34-55.38,20.49-76.37,11-16.37,35.13-33.23,59.92-42.83,59.24,27.92,117.77,59.72,117,131-1.56,35.92-8.23,81.93-35.13,108.83a129.12,129.12,0,0,1-12,10.55C472.67,576.55,392.18,549.4,392.18,481.47Z"/></svg>