<svg xmlns="http://www.w3.org/2000/svg" width="1000" height="1000" viewBox="0 0 1000 1000"><defs><style>.a{fill:#1d1d1b;}</style></defs><path class="a" d="M536.77,460.89c113.77,25,192.72,166.56,133.37,271.76-28.33,51.77-76.58,88.42-131.87,109.3C511.52,856,462,860,410,860H260V140H410c90,0,155.4,7.07,193,44.63,95.55,82.84,70.18,239.82-66.18,274.26ZM340,450c82.87.23,190.82,12.33,227.85-80.36,19.26-49.12,1.85-116.45-23.56-154.43C502,152,410,170.11,340,170.11Zm0,380c366.91,43.08,354.55-386.38,0-350Z"/></svg>