<svg xmlns="http://www.w3.org/2000/svg" width="1000" height="1000" viewBox="0 0 1000 1000"><defs><style>.a{fill:#1d1d1b;}</style></defs><path class="a" d="M580.19,215.61C543.76,195.75,513,166.38,470,164c-39.63-1-96,30-116,59.6-16.61,24.63-24,60.57-24,89.61C330,432,539.81,444.5,605.4,543.79,628,578,640,609.5,640,650c0,142.78-108,220-224,220-54.27,0-108.3-9.34-156-37.2L280,766c33.33,21.3,64.93,44.48,101.19,59.76,49.6,19.3,104.89-1.83,139.25-36.19C552,758,559.84,704,561.67,661.88,563,532.57,398,514,320.86,451.74,280.47,419.14,250,372,250,318c0-129.66,107.32-187.95,220-187.95,48,0,93.81,6.24,134.9,21Z"/><rect class="a" x="420" y="90" width="40" height="830" transform="translate(-58.17 57.28) rotate(-6.99)"/></svg>