<svg xmlns="http://www.w3.org/2000/svg" width="1000" height="1000" viewBox="0 0 1000 1000"><defs><style>.a{fill:#1d1d1b;}</style></defs><path class="a" d="M260,140H422q42,0,74,10.5A170.25,170.25,0,0,1,553,182q12,10,21,27a200.39,200.39,0,0,1,15,37.5,297.28,297.28,0,0,1,9,41.5,276.94,276.94,0,0,1,3,39,264.21,264.21,0,0,1-12,77,199.07,199.07,0,0,1-15,35.5Q565,456,553,466q-47,44-127,44H340V860H260Zm78,344,78-1q32,0,56.5-11.92A112,112,0,0,0,513,438.3q16-20.87,24-49.19A220.37,220.37,0,0,0,545,329a240.63,240.63,0,0,0-8-62.59q-8-29.82-24-51.68a122.33,122.33,0,0,0-39-34.78Q451,167,420,167l-80,3.11Z"/></svg>