<svg xmlns="http://www.w3.org/2000/svg" width="1000" height="1000" viewBox="0 0 1000 1000"><defs><style>.a{fill:#1d1d1b;}</style></defs><path class="a" d="M710.43,483.91,690,790c-52.24,40.3-106.67,81.63-174.62,80-190,5.63-257.23-184-255.38-368-4-172.78,56.69-378.68,256.23-372,58.49,1.41,122,14,168.58,50L660,243.61C604.19,206.9,570,160,514.81,160c-33.09,0-68.41,28.92-104.81,80-58.38,75.16-69.9,156.61-70,260H340c-1.49,126.28,27.55,257.64,98,308.64C458.35,823.13,482,830,508,830c50,0,105-39.76,126-64L620,510l-120,6V484Z"/></svg>