<svg xmlns="http://www.w3.org/2000/svg" width="1000" height="1000" viewBox="0 0 1000 1000"><defs><style>.a{fill:#1d1d1b;}</style></defs><path class="a" d="M673.5,860h-88l-23-144h-124l-24,144h-88l138-611h72Zm-111-190-62-327-62,327Z"/><path class="a" d="M384.5,222q-2-40,15.5-65.5T447.5,131a52.69,52.69,0,0,1,28.5,8.5,236.5,236.5,0,0,1,26,19q12.5,10.5,23.5,19t20,8.5q11,0,18-17.5a118.33,118.33,0,0,0,8-38.5h43q1,42-15,64.5t-48,22.5a56.77,56.77,0,0,1-30-8.5A247.83,247.83,0,0,1,495,190q-12.51-10-23-18.5T452.5,163q-6,0-10.5,6a54,54,0,0,0-7.5,14.5,130.39,130.39,0,0,0-5,19q-2,10.5-3,19.5Z"/></svg>