<svg xmlns="http://www.w3.org/2000/svg" width="1000" height="1000" viewBox="0 0 1000 1000"><defs><style>.a{fill:#1d1d1b;}</style></defs><path class="a" d="M827.76,462,848,519.32,111,594.67,91.39,539Z"/><path class="a" d="M271,172c98.43,0,137.93,118.89,110.48,201.46-39,117.23-187.42,114.62-225.68,0C124.59,288.64,169.34,172,271,172ZM161.13,318.51c0,67.59,90.55,99.57,147.4,77.69,86.47-33.28,91.28-124.28,2.06-157.74C252.09,216.53,161.13,251.38,161.13,318.51Z"/><path class="a" d="M633,626c98.42,0,137.93,118.89,110.47,201.46-39,117.23-187.42,114.62-225.68,0C486.57,742.64,531.33,626,633,626ZM523.11,772.51c0,67.59,90.55,99.57,147.4,77.69,86.47-33.28,91.28-124.28,2.07-157.74C614.07,670.53,523.11,705.38,523.11,772.51Z"/><path class="a" d="M345,626c98.42,0,137.93,118.89,110.47,201.46-39,117.23-187.42,114.62-225.68,0C198.57,742.64,243.33,626,345,626ZM235.11,772.51c0,67.59,90.55,99.57,147.4,77.69,86.47-33.28,91.28-124.28,2.07-157.74C326.07,670.53,235.11,705.38,235.11,772.51Z"/></svg>