<svg xmlns="http://www.w3.org/2000/svg" width="1000" height="1000" viewBox="0 0 1000 1000"><defs><style>.a{fill:#1d1d1b;}</style></defs><path class="a" d="M664.55,656.71q-30,17-75.1,25.54t-84.12,8.51a248.65,248.65,0,0,1-96.13-19.53,219.38,219.38,0,0,1-80.92-57.58Q260,538.56,260,410.38q0-64.08,16.82-115.16t51.46-89.12Q395.17,130,505.33,130q37,0,81.11,7.51T664.55,158l-26,71.09a247.9,247.9,0,0,1-34-18.52q-18-11.51-35.55-22.53t-34-19.53q-16.51-8.49-29.54-8.51-41.07,0-68.09,17.52t-50.07,45.57q-12,15-20,37.05a374.77,374.77,0,0,0-21,98.63q-2,26.54-2,51.57a463.94,463.94,0,0,0,8,87.12q8,42,40.06,86.11,24,32.07,49.57,52.57t63.58,20.53q16,0,34.55-8a309.21,309.21,0,0,0,37.55-19.53q19-11.49,37.55-23a184.43,184.43,0,0,1,35.55-17.52Zm-183.25,32-4,13a265.19,265.19,0,0,1,32.55,10.52,159.63,159.63,0,0,1,30,15.52,98,98,0,0,1,22,19.52,36.58,36.58,0,0,1,8.51,23.54q0,45.06-34,72.09-33,27-86.11,27-11,0-21-1t-22-3V815.93q21,3,38.55,6.51a87.54,87.54,0,0,0,33.55.5q16-3,31.54-15.52t31.54-40.56q-20-7-35.05-11t-33-7.51a183.24,183.24,0,0,0-35.05-3.51l19-58.08Z"/></svg>