<svg xmlns="http://www.w3.org/2000/svg" width="1000" height="1000" viewBox="0 0 1000 1000"><defs><style>.a{fill:#1d1d1b;}</style></defs><path class="a" d="M655,884.27q-94.24,30.59-197.81,16.53Q312.9,881.2,238.05,769.11q-77.46-110.43-54.44-279.87,27.31-201.15,132.81-305.91Q419.58,78.27,563.89,97.85q132.68,18,202.79,121.4Q838,322.78,816.83,478.35,801.1,594.29,736,663.16q-32,35-63.69,54.42t-71.74,8.93q-22.89-6.13-36.28-16.53a79.16,79.16,0,0,1-21-24.05,103.41,103.41,0,0,1-10.91-28.73,258.23,258.23,0,0,1-4.76-30.42,222.76,222.76,0,0,1-23.82,27,234,234,0,0,1-28.72,23.85,116.11,116.11,0,0,1-31.79,15.87q-16.73,5.3-31.85,3.24-44.25-6-69-50.74-25-42.75-16-109.14,14-103,73.19-163.64,61.65-61.26,137.3-51,26.76,3.63,58,27.05l3.94-11.58,74.49,10.12q-25.77,76.23-45.88,137.07Q619.19,511,611,536.18t-14.47,45.47Q590.26,602,586,615.54t-4.62,16.53c-.27,2-1,6.26-2.33,12.8a61.77,61.77,0,0,0-.43,20.63,38.85,38.85,0,0,0,9.15,19.92q7.65,9.12,26.27,11.64c7,.94,13.95-1,20.93-5.74A148.81,148.81,0,0,0,656.46,673a197.91,197.91,0,0,0,21.29-25.87q10.28-14.73,20.46-28.5,42.22-57.85,54.61-149,17.89-131.78-35.48-218.77-13.76-21-29.73-42.89a267.07,267.07,0,0,0-35.51-39.64A228.61,228.61,0,0,0,610,137.92a143,143,0,0,0-105.53-12.81A227.52,227.52,0,0,0,451.7,147.2a314.24,314.24,0,0,0-49.87,35.62,499,499,0,0,0-45.14,44.33q-83.82,93.59-107.91,270.94-19.51,143.69,39.91,238.54A456.74,456.74,0,0,0,321.37,784a333.38,333.38,0,0,0,39.32,42.17,236.76,236.76,0,0,0,46,32.48A156.31,156.31,0,0,0,460.58,876a175.65,175.65,0,0,0,47.43-.12A345.56,345.56,0,0,0,556.2,865.8q24-6.81,47-14.8t45.17-14ZM579.38,402.71a70.16,70.16,0,0,1-8.85-13.31Q565.76,380.68,561,372a68.43,68.43,0,0,0-11-15.11q-6.25-6.39-13.23-7.35-48.89-6.64-84.57,38-8.6,10.95-16.84,28a330.38,330.38,0,0,0-15.14,37.3,378.67,378.67,0,0,0-11.67,42.32q-4.77,22.05-7.47,41.88l-6.66,49q-3.57,26.28,2.7,41.24,5.24,13.85,16.8,29T437.18,673q8.13,1.11,24-10.87a295.38,295.38,0,0,0,30.94-27.08Q507.2,620,519.19,606t12.38-17Z"/></svg>