<svg xmlns="http://www.w3.org/2000/svg" width="1000" height="1000" viewBox="0 0 1000 1000"><defs><style>.a{fill:#1d1d1b;}</style></defs><path class="a" d="M610,140h68L483,860H417Z"/><path class="a" d="M385.63,172c98.42,0,137.93,118.89,110.47,201.46-39,117.23-187.42,114.62-225.67,0C239.2,288.64,284,172,385.63,172ZM275.74,318.51c0,67.59,90.55,99.57,147.4,77.69,86.47-33.28,91.28-124.28,2.07-157.74C366.7,216.53,275.74,251.38,275.74,318.51Z"/><path class="a" d="M717,540c98.42,0,137.93,118.89,110.47,201.46-39,117.23-187.42,114.62-225.68,0C570.57,656.64,615.33,540,717,540ZM607.11,686.51c0,67.59,90.55,99.57,147.4,77.69,86.47-33.28,91.28-124.28,2.07-157.74C698.07,584.53,607.11,619.38,607.11,686.51Z"/></svg>