<svg xmlns="http://www.w3.org/2000/svg" width="1000" height="1000" viewBox="0 0 1000 1000"><defs><style>.a{fill:#1d1d1b;}</style></defs><path class="a" d="M500,162c186.67,0,338,151.33,338,338S686.67,838,500,838,162,686.67,162,500,313.33,162,500,162m0-32a369,369,0,1,0,144,29.1A367.7,367.7,0,0,0,500,130Z"/><path class="a" d="M499,500H434.87l6.41,230.77H390V269.23H502.82A236.63,236.63,0,0,1,558.27,276q25.32,6.1,43.91,20.84t26.6,39.1a157.1,157.1,0,0,1,8,49.36,152.35,152.35,0,0,1-8,49.68,85.17,85.17,0,0,1-26.6,38.78q-21.79,18.6-64.74,24.36L640,730.77H582.31Zm-64.11-19.23h62.82c32.47,0,56.73-7.69,72.76-24.36s24.68-41,24.68-71.79c0-63.25-32-98.72-94.87-98.72l-65.39,2.63Z"/></svg>