<svg xmlns="http://www.w3.org/2000/svg" width="1000" height="1000" viewBox="0 0 1000 1000"><defs><style>.a{fill:#1d1d1b;}</style></defs><path class="a" d="M384.85,655.52c-103.26,0-144.71-124.74-115.9-211.37,40.89-123,196.63-120.25,236.77,0C538.48,533.14,491.52,655.52,384.85,655.52ZM500.14,501.8c0-70.91-95-104.47-154.64-81.51-90.73,34.92-95.77,130.4-2.17,165.5C404.71,608.8,500.14,572.23,500.14,501.8Z"/><path class="a" d="M626.84,655.52c-103.27,0-144.71-124.74-115.91-211.37,40.9-123,196.64-120.25,236.78,0C780.47,533.14,733.51,655.52,626.84,655.52ZM742.13,501.8c0-70.91-95-104.47-154.65-81.51-90.72,34.92-95.77,130.4-2.17,165.5C646.7,608.8,742.13,572.23,742.13,501.8Z"/></svg>