<svg xmlns="http://www.w3.org/2000/svg" width="1000" height="1000" viewBox="0 0 1000 1000"><defs><style>.a{fill:#1d1d1b;}</style></defs><path class="a" d="M451,859.18,420,881Q307,802.79,247,699.16q-59-104.53-59-219.11,0-117.3,59-219.12Q305,160,420,80l21,30.91Q349,186.39,307,270q-20,41.84-30.5,95.92A593.15,593.15,0,0,0,266,479.14,603.65,603.65,0,0,0,277,596q11,55.9,32,96.83,21,41.82,59,85.46A712.59,712.59,0,0,0,451,859.18Z"/><path class="a" d="M540,859.18,571,881q113-78.21,173-181.84,59-104.53,59-219.11,0-117.3-59-219.12Q686,160,571,80l-21,30.91Q642,186.39,684,270q20,41.84,30.5,95.92A593.15,593.15,0,0,1,725,479.14,603.65,603.65,0,0,1,714,596q-11,55.9-32,96.83-21,41.82-59,85.46A712.59,712.59,0,0,1,540,859.18Z"/></svg>