<svg xmlns="http://www.w3.org/2000/svg" width="1000" height="1000" viewBox="0 0 1000 1000"><defs><style>.a{fill:#1d1d1b;}</style></defs><path class="a" d="M260.35,680q-2-35,7.5-64.5t28-50.5q18.5-21,46-33t61.5-12a150.64,150.64,0,0,1,65.5,15,536.43,536.43,0,0,1,59.5,33q28,18,53,33t47,15q12,0,29-8.5a144,144,0,0,0,32-22,146.06,146.06,0,0,0,26-31q11-17.49,12-36.5h58q2,74-35,113.5t-109,39.5a161.54,161.54,0,0,1-68.5-15,583.79,583.79,0,0,1-61-32.5Q483.35,606,459.35,591t-44-15q-14,0-30,10a153,153,0,0,0-30.5,25.5,197,197,0,0,0-25.5,34q-11,18.51-13,34.5Z"/><path class="a" d="M339.94,340q-2-40,15.5-65.5t47.5-25.5a52.69,52.69,0,0,1,28.5,8.5,236.5,236.5,0,0,1,26,19q12.49,10.5,23.5,19t20,8.5q11,0,18-17.5a118.33,118.33,0,0,0,8-38.5h43q1,42-15,64.5t-48,22.5a56.77,56.77,0,0,1-30-8.5,247.83,247.83,0,0,1-26.5-18.5q-12.51-10-23-18.5t-19.5-8.5q-6,0-10.5,6a54,54,0,0,0-7.5,14.5,130.39,130.39,0,0,0-5,19q-2,10.5-3,19.5Z"/></svg>