<svg xmlns="http://www.w3.org/2000/svg" width="1000" height="1000" viewBox="0 0 1000 1000"><defs><style>.a{fill:#1d1d1b;}</style></defs><path class="a" d="M647.41,795.31a190.33,190.33,0,0,0,14.4,19.13Z"/><path class="a" d="M666.52,819.67,666,820l-4.16-5.53C663.39,816.27,665,818,666.52,819.67Z"/><path class="a" d="M697.74,834a124.41,124.41,0,0,0,16.52-1.5q10.51-1.5,20.53-3.51v31h-71.6q-20.54,0-33.54-9t-32-32q-19-23-40.05-51.07Q479.45,870,366.29,870q-45.06,0-84.11-15.52t-68.1-42.06a190.87,190.87,0,0,1-45.56-63.08Q152,712.8,152,670.73a183.19,183.19,0,0,1,8.64-56.08q8.63-27,28.94-54.07T242,505.51q32.13-28,79.2-61.09-22-25-40.06-48.06a451.79,451.79,0,0,1-31-44.56,243,243,0,0,1-20.53-42.06,123,123,0,0,1-7.51-42.55q0-32,13-57.58A129.34,129.34,0,0,1,270,166.55a162.37,162.37,0,0,1,50.92-27A194,194,0,0,1,381.81,130a186.35,186.35,0,0,1,59.38,9.51,169.8,169.8,0,0,1,50.41,26.54A119.52,119.52,0,0,1,526,208.61q12.48,25.53,12.48,56.57v1a123.06,123.06,0,0,1-2.5,25,169.85,169.85,0,0,1-6.51,23q-12,25-23.53,38.55a194,194,0,0,1-26.54,25.54q-15,12-37.05,27.53t-56.07,44.56l152.2,183.25q17-45.06,29.54-75.6t21.53-47.57a329.09,329.09,0,0,1,22-38.55q14-21.52,30-34.54,15,5,32.05,9a247.45,247.45,0,0,0,30,6.51,194.75,194.75,0,0,0,30,2.5v55.07q-10,0-25-3a247.71,247.71,0,0,1-30-8q-18-5-37.05-12-10,41.07-17.52,72.1t-16.52,68.09q-9,37.07-17,71.1a570,570,0,0,1,34.55,55.07q13.51,25,24.53,43.06t22,27.54A38.5,38.5,0,0,0,697.74,834ZM496.47,713.79q2-5,3.5-9a58.11,58.11,0,0,0,2.5-9L346.26,477.47q-63.08,44.07-86.61,93.13t-23.54,97.13q0,40,11,71.09t29.54,52.57q18.51,21.55,42.06,33.05A111.21,111.21,0,0,0,368.29,836q43.05,0,77.11-32.54T496.47,713.79ZM304.11,331.27q21.9,42.06,59.75,85.12,26.89-19,47.82-36.05T446,345.79a137.89,137.89,0,0,0,20.42-36.55q7-19,7-42.05v-1a126.27,126.27,0,0,0-9-48.06,134.8,134.8,0,0,0-22.91-38.05,108.82,108.82,0,0,0-30.88-25q-16.95-9-31.87-9a68.61,68.61,0,0,0-36.37,10,110.53,110.53,0,0,0-29.38,26.53,122,122,0,0,0-19.92,38.05,141,141,0,0,0-7,43.56,176.61,176.61,0,0,0,3,31.54Q292.16,312.25,304.11,331.27Z"/></svg>