<svg xmlns="http://www.w3.org/2000/svg" width="1000" height="1000" viewBox="0 0 1000 1000"><defs><style>.a{fill:#1d1d1b;}</style></defs><path class="a" d="M684,654.66c1.33,97.18-78.26,171-163.5,200.83C426.71,885.81,323.69,868.09,247,812l24-68c36.44,28.3,73.75,61.79,114.5,82.61,28.5,15.39,79,4.08,102-4.56,91.85-30.55,150.5-144,96-232.35C546.75,530.16,475.45,485.55,407,484l10-37c81.26,3.06,148-49,148-130.52,0-64.83-29.5-141.13-103-146.37C408,177.18,359.08,218.3,315,246l-26-67c47.91-35.19,111.74-49,173-49,50,0,94.59,21.45,130,45.92C650,216,673.37,343.35,617,403q-32,35.43-92,55.37v2C611.67,480.55,682.64,566.07,684,654.66Z"/></svg>