<svg xmlns="http://www.w3.org/2000/svg" width="1000" height="1000" viewBox="0 0 1000 1000"><defs><style>.a{fill:#1d1d1b;}</style></defs><path class="a" d="M715,595c48.79,105.61-9,217-122,261-28.18,11-61.16,14.2-95,14-61.81-.36-132-20-170-54-44.71-40-68-92-68-138,0-89.62,64.64-176.67,168-198-185.1-44.13-192.61-272.69-15-336,101-36,232.32-5.18,280,96,48.29,105-15.48,214-125,240C631.28,494.58,689.39,534.36,715,595ZM624,740c36-94.47-24.5-242.5-129.5-242.5-96.66,0-155.17,121.11-137,207C389,864.14,562,907.38,624,740ZM407,418c88.28,110.94,217.24,14.61,213-105,2.58-115.62-126.22-229.91-214-112C357.82,261.51,356.94,358.22,407,418Z"/></svg>