<svg xmlns="http://www.w3.org/2000/svg" width="1000" height="1000" viewBox="0 0 1000 1000"><defs><style>.a{fill:#1d1d1b;}</style></defs><path class="a" d="M505.28,32C699.69,32,751.18,223.13,750,398c-.4,58.62-5.38,115.41-14.66,162.57C711.48,690.3,618.77,773,506,772a256.18,256.18,0,0,1-106.44-24.16c-120.25-67.94-137.9-211.7-139.94-347.35C262,206.94,308.61,37.87,505.28,32Zm0,704c186.09,0,175-343.56,154.79-470.83C643.18,176.71,609.23,68,506,68,399.43,68,365.89,175.73,350,265.17c-4.76,33.28-9.21,81.59-9.87,134.83C338.2,551.12,366.79,736,505.28,736Z"/><path class="a" d="M648,716,783,902l-63,50L592,751"/></svg>