<svg xmlns="http://www.w3.org/2000/svg" width="1000" height="1000" viewBox="0 0 1000 1000"><defs><style>.a{fill:#1d1d1b;}</style></defs><path class="a" d="M462.82,500q0-17,12.5-29.5t29.5-12.5q17,0,29.5,12.5t12.5,29.5q0,17-12.5,29.5T504.82,542q-17,0-29.5-12.5T462.82,500Z"/><path class="a" d="M505.28,130C699.69,130,751.18,321.13,750,496c-.4,58.62-5.38,115.41-14.66,162.57C711.48,788.3,618.77,871,506,870a256,256,0,0,1-106.44-24.17C279.31,777.9,261.66,634.14,259.62,498.49,262,304.94,308.61,135.86,505.28,130Zm0,704c186.09,0,175-343.56,154.79-470.83C643.18,274.71,609.23,166,506,166,399.43,166,365.89,273.72,350,363.16c-4.76,33.29-9.21,81.59-9.87,134.84C338.2,649.11,366.79,834,505.28,834Z"/></svg>