<svg xmlns="http://www.w3.org/2000/svg" width="1000" height="1000" viewBox="0 0 1000 1000"><defs><style>.a{fill:#1d1d1b;}</style></defs><path class="a" d="M694.81,814c-51.35,40.5-112.75,55.68-178.59,56C316.08,871.06,260.78,699.24,260,502c-4-172.78,56.69-378.68,256.23-372,58.49,1.41,122,14,168.58,50L660,243.61C604.19,206.9,570,160,514.81,160c-33.09,0-68.41,28.92-104.81,80-58.38,75.16-69.9,156.61-70,260,2,113.52,21.5,240.65,112.88,308.71C473.05,822.15,499,839.14,524.81,840c14.84.49,31.62-3.46,45.19-10,38.15-19,68-59,104.81-82Z"/></svg>