<svg xmlns="http://www.w3.org/2000/svg" width="1000" height="1000" viewBox="0 0 1000 1000"><defs><style>.a{fill:#1d1d1b;}</style></defs><path class="a" d="M438,169q91-41,160-41,96,0,147.5,42.5T797,298a213.12,213.12,0,0,1-14,76,209.9,209.9,0,0,1-40.5,66.5,206.66,206.66,0,0,1-63,47.5Q643,506,598,506l3,134H560q-7-22-12-45a370.94,370.94,0,0,1-8-44,394.69,394.69,0,0,1-3-49V492a50.7,50.7,0,0,1,1-10q33-7,55-14.5T638,450q23-10,35-22,33-32,45.5-63A169.67,169.67,0,0,0,731,301q0-63-36-95.5T593,173q-26,0-59,18.5T462,229ZM541,828q0,17,12.5,29.5T583,870q17,0,29.5-12.5T625,828q0-17-12.5-29.5T583,786q-17,0-29.5,12.5T541,828Z"/><polygon class="a" points="196 640 179 328 168 130 250 140 255 325 238 640 196 640"/><path class="a" d="M174,828q0,17,12.5,29.5T216,870q17,0,29.5-12.5T258,828q0-17-12.5-29.5T216,786q-17,0-29.5,12.5T174,828Z"/></svg>