<svg xmlns="http://www.w3.org/2000/svg" width="1000" height="1000" viewBox="0 0 1000 1000"><defs><style>.a{fill:#1d1d1b;}</style></defs><path class="a" d="M260,328.55C260,150,401.49,130,464,130c119.47,0,178.6,38.6,168,136-10,92-192,90.54-192,184,0,53.46,124.3,91.13,180,102,82,16,154,46.74,154,128,0,190-153.61,190-206,190-49.49,0-93-12.42-134-30l20-68.71C493.07,790.18,536.94,802,576,802c76,0,146-20,146-122,0-62.68-73-73-135-93-44.76-14.44-203-33-203-135S516.83,350.3,564,290c36-46,6.78-130-100-130s-124.3,64-124.3,185.65"/><path class="a" d="M340,322V860H260V322Z"/></svg>