<svg xmlns="http://www.w3.org/2000/svg" width="1000" height="1000" viewBox="0 0 1000 1000"><defs><style>.a{fill:#1d1d1b;}</style></defs><path class="a" d="M260,448v64s86-4.8,86,62.37-66,92.76-66,193.51C280,889.42,500,880,500,880l-30-50s-140,30.62-140-46.15,70-112,70-207.9c0-70.37-90-94.36-90-94.36v-3.2s90-24,90-94.36c0-96-70-131.14-70-207.9S470,122,470,122l30-42S280,70.58,280,192.13c0,100.75,66,126.34,66,193.51S260,448,260,448v0Z"/><path class="a" d="M810,448v64s-86-4.8-86,62.37,66,92.76,66,193.51C790,889.42,570,880,570,880l30-50s140,30.62,140-46.15-70-112-70-207.9c0-70.37,90-94.36,90-94.36v-3.2s-90-24-90-94.36c0-96,70-131.14,70-207.9S600,122,600,122L570,80s220-9.42,220,112.13c0,100.75-66,126.34-66,193.51S810,448,810,448v0Z"/></svg>