<svg xmlns="http://www.w3.org/2000/svg" width="1000" height="1000" viewBox="0 0 1000 1000"><defs><style>.a{fill:#1d1d1b;}</style></defs><path class="a" d="M658,836a228.37,228.37,0,0,1-34,15,295.92,295.92,0,0,1-39.5,10.82q-20.5,4.1-41.5,6.17T503,870a253.72,253.72,0,0,1-94.5-18.5A205,205,0,0,1,328.81,795Q261,721,261,596q0-126,67.81-199Q395,322,503,322q35,0,78.5,7.5T658,350l-25,69a201.19,201.19,0,0,1-33-17.5Q582,390,565,379a316.37,316.37,0,0,0-33.5-19q-16.5-8-28.5-8-40,0-66.5,17T387,412.88q-12,15-20,35.92a285.83,285.83,0,0,0-13,45.9,423.35,423.35,0,0,0-7,50.91q-2,25.95-2,49.89a448.38,448.38,0,0,0,8,85.33q8,41.42,39,83.33,23,30.93,48,51.39T503,836q16,0,33.5-8a378.22,378.22,0,0,0,36-19Q591,798,609,786.5A171.62,171.62,0,0,1,644,769Z"/><path class="a" d="M533,200h68L406,920H340Z"/></svg>