<svg xmlns="http://www.w3.org/2000/svg" width="1000" height="1000" viewBox="0 0 1000 1000"><defs><style>.a{fill:#1d1d1b;}</style></defs><path class="a" d="M500,162c186.67,0,338,151.33,338,338S686.67,838,500,838,162,686.67,162,500,313.33,162,500,162m0-32a369,369,0,1,0,144,29.1A367.7,367.7,0,0,0,500,130Z"/><path class="a" d="M618,702c-33,26-72.53,35.82-114.89,36-128.76.68-164.33-109.85-164.83-236.74-2.59-111.15,36.47-243.61,164.83-239.32,37.63.91,78.52,9,108.46,32.17l-16,40.92c-35.91-23.62-57.9-53.79-93.41-53.79-21.29,0-44,18.61-67.42,51.47-37.56,48.35-45,100.75-45,167.26,1.29,73,13.83,154.82,72.62,198.6,13,8.65,29.69,19.58,46.28,20.13a65.28,65.28,0,0,0,29.07-6.42c24.54-12.2,43.75-37.94,67.42-52.77Z"/></svg>