<svg xmlns="http://www.w3.org/2000/svg" width="1000" height="1000" viewBox="0 0 1000 1000"><defs><style>.a{fill:#1d1d1b;}</style></defs><path class="a" d="M654,860H260V800q75-84,123.5-139.5T455,576q22-28,43-57.5A342.84,342.84,0,0,0,533,457q14-32,28-62.5T575,333q0-69-42-112.5T417,177q-12,0-27,7.5T358.5,202q-16.5,10-36,21.5c-13,7.67-28.5,13.84-42.5,18.5l-9-72a714.93,714.93,0,0,1,77.5-27.5C374.83,134.84,402,130,430,130a260.38,260.38,0,0,1,87.5,15Q557,159,585,185.5a185.77,185.77,0,0,1,43.5,63Q644,285,644,330q0,62-30,126T536,579q-12,15-33.5,37.5t-49.5,51Q425,696,392.5,730T326,801l328-14Z"/></svg>