<svg xmlns="http://www.w3.org/2000/svg" width="1000" height="1000" viewBox="0 0 1000 1000"><defs><style>.a{fill:#1d1d1b;}</style></defs><path class="a" d="M341,430q9-2,21.5-3.5t26-2.5q13.5-1,26.5-1.5t21-.5q100,0,160,61a256.69,256.69,0,0,1,46.5,69.5Q660,591,660,638q0,49-20,89.5T586,803c-46.67,44.67-101,69-165,69-32,0-63.5-5.56-92.5-12.69S274.33,843.75,253,834l15-71a376.7,376.7,0,0,1,36.5,20Q324,795,344,807a343.13,343.13,0,0,0,39.5,20.5Q403,836,421,836a86.07,86.07,0,0,0,33-7,183.05,183.05,0,0,0,32-17,259.3,259.3,0,0,0,28.5-22.06A310.77,310.77,0,0,0,538,766.81q20-20.05,33.5-55.15A202.15,202.15,0,0,0,585,638.45a194.21,194.21,0,0,0-12.5-69.18Q560,536.17,540,517.12q-19-20-49-33.07C471,475.36,449.33,470,430,470c-15.34,0-30,2.67-44,12s-24,18-36,28l-56-26V140H590v70L360,200Z"/></svg>