<svg xmlns="http://www.w3.org/2000/svg" width="1000" height="1000" viewBox="0 0 1000 1000"><defs><style>.a{fill:#1d1d1b;}</style></defs><path class="a" d="M275.53,397.36q-17-39-17-79.11,0-42,17-76.1a148.16,148.16,0,0,1,20-31.54,235.27,235.27,0,0,1,27-27.54q29-25,70.09-39a302.17,302.17,0,0,1,92.13-14,317.24,317.24,0,0,1,48.56,3.5A270.34,270.34,0,0,1,576.93,144q42.06,14,72.1,39,32,26.06,49.07,59.08a4.18,4.18,0,0,0,.5,2,4.59,4.59,0,0,1,.5,2l2,2q2,6,4.51,12.52t4.5,13.51a466.71,466.71,0,0,1,11,53.58,516.69,516.69,0,0,1,5,55.57q1,28.05,0,53.57t-2,46.57q-2,28-8,64.58t-16,74.61a688.42,688.42,0,0,1-24,74.1q-14,36-31.05,63.08Q576.92,870,452.76,870q-85.11,0-145.19-25l13-60.09a205,205,0,0,1,35,15.53q17,9.52,33.05,18a317.43,317.43,0,0,0,31,14.52,80.27,80.27,0,0,0,30,6,101.18,101.18,0,0,0,42.06-9.51,181.17,181.17,0,0,0,39.55-24.54,263.39,263.39,0,0,0,35-34.54A301.71,301.71,0,0,0,595,730.81q23-39,31-97.63a906.92,906.92,0,0,0,8-122.67l1-39.05q-25,17-58.08,28-42.06,15-92.12,15t-92.13-15A252.2,252.2,0,0,1,355.13,483a157.64,157.64,0,0,1-32.54-23.53A186.75,186.75,0,0,1,275.53,397.36Zm89.12-142.19q-11,28.05-11,63.08,0,30,11,63.09a186.1,186.1,0,0,0,29,56.08,157.92,157.92,0,0,0,44.06,40.05q26,14,52.07,14a113.49,113.49,0,0,0,53.08-13,155.2,155.2,0,0,0,42.05-39.05,160.75,160.75,0,0,0,28-54.07,198.37,198.37,0,0,0,10-63.09q0-35-11-63.09,0-3-2-9a3,3,0,0,0-1-2,152,152,0,0,0-26-43.06,120.44,120.44,0,0,0-20-21,222.25,222.25,0,0,0-24-17q-26.05-15-54.07-15-26.06,0-51.07,14a174.56,174.56,0,0,0-42.06,37,163.93,163.93,0,0,0-15.52,25A241.51,241.51,0,0,0,364.65,255.17Z"/></svg>