<svg xmlns="http://www.w3.org/2000/svg" width="1000" height="1000" viewBox="0 0 1000 1000"><defs><style>.a{fill:#1d1d1b;}</style></defs><path class="a" d="M518.38,843.64l-30,36.36C413,827.87,359,767.73,319,698.64q-59-104.53-59-219.09,0-117.29,59-219.1C357.66,193.18,411.71,133.34,488.38,80l30,36.36C457,166.68,360,283.18,360,480c0,192.27,54.66,268.64,80,297.73S488.38,818.78,518.38,843.64Z"/><path class="a" d="M632,843.64,662,880c75.34-52.13,129.38-112.27,169.38-181.36q59-104.53,59-219.09,0-117.29-59-219.1C792.72,193.18,738.67,133.34,662,80l-30,36.36C693.34,166.68,790,283.18,790,480c0,192.27-54.28,268.64-79.62,297.73S662,818.78,632,843.64Z"/></svg>