<svg xmlns="http://www.w3.org/2000/svg" width="1000" height="1000" viewBox="0 0 1000 1000"><defs><style>.a{fill:#1d1d1b;}</style></defs><path class="a" d="M595.24,150.11h121l-195,690h-116L548.88,476.48Z"/><path class="a" d="M380.64,466c-70.75-.1-120.76-77.23-120.64-161.89s50.36-164.1,121.11-164,124.26,79.68,124.14,164.35S451.4,466.1,380.64,466Zm97.82-164.19c.07-47.25-41-72.13-95.51-72.2s-95.36,25.64-95.43,74.54C287.45,349.3,326.23,376,380.77,376S478.4,347.51,478.46,301.81Z"/><path class="a" d="M765.89,854c-70.75-.1-120.76-77.23-120.64-161.89s50.36-164.1,121.11-164S890.62,607.79,890.5,692.46,836.64,854.1,765.89,854Zm97.82-164.19c.07-47.25-41-72.13-95.51-72.2s-95.37,25.64-95.44,74.54C672.7,737.3,711.47,764,766,764S863.64,735.51,863.71,689.81Z"/></svg>