<svg xmlns="http://www.w3.org/2000/svg" width="1000" height="1000" viewBox="0 0 1000 1000"><defs><style>.a{fill:#000100;}</style></defs><path class="a" d="M535.92,357.3c-29.63,0-46.95-1-63.45,25.29-15.86,25.3-23.79,70.54-23.79,101.19,0,36.36,21.78,72,70.65,99.52Q573.48,614,591,625.9t35.6,32.79a165.92,165.92,0,0,1,29,49.2q10.95,28.32,10.94,63.68c0,58.5-16.17,96.46-51.32,133.84C567.64,956,491.55,956,448,956c-42.13,0-78.68-13.29-110.39-33.73l7.93-92.76S377.3,838,377.3,838s49.91,92.75,69.4,92.75c32.42,0,57.49-16.86,77.9-42.37,19.73-24.65,27.18-73.35,27.18-109.41,0-26.7,0-50.6-15.86-67.46S475,663.31,440.75,644c-35.18-19.88-65.17-46.22-75.35-59a145.28,145.28,0,0,1-23.61-43q-8.32-23.84-8.33-51.95,0-74.55,43.75-116.29T488,332C520.6,332,558.81,357.3,535.92,357.3Z"/><path class="a" d="M631.08,187.35l-31.72-8.43S558.81,69.3,535.92,69.3c-29.63,0-46.95-1-63.45,25.29-15.86,25.3-23.79,70.54-23.79,101.19,0,36.36,21.78,72,70.65,99.52Q573.48,326,591,337.9t35.6,32.79a165.92,165.92,0,0,1,29,49.2q10.95,28.32,10.94,63.68c0,58.5-16.17,96.46-51.32,133.84-27.89,29.65-65.58,41.93-100.76,47-24.83,3.58-48.62-23.29-40-26.21,19.56-6.63,36-20.17,50.14-37.88,19.73-24.65,27.18-73.35,27.18-109.41,0-26.7,0-50.6-15.86-67.46S475,375.31,440.75,356c-35.18-19.88-65.17-46.22-75.35-59a145.28,145.28,0,0,1-23.61-43q-8.32-23.84-8.33-52,0-74.55,43.75-116.29T488,44c32.63,0,159,16.86,159,16.86Z"/></svg>