<svg xmlns="http://www.w3.org/2000/svg" width="1000" height="1000" viewBox="0 0 1000 1000"><defs><style>.a{fill:#1d1d1b;}</style></defs><path class="a" d="M647.41,795.31a190.33,190.33,0,0,0,14.4,19.13Z"/><path class="a" d="M725.12,820c-7.35-6.33-15.67-11.11-23-23.11s-15.5-26.33-24.5-43S644,700,630,680c5.33-22.66-16-224,42-224s78,62,78,62h38s0-118-60-118S589.2,442.92,535.12,570L444,460s164-41.89,164-198c0-84-86-132-172.69-132C390,130,270,170,270,270s90.45,153.34,105.12,170C343.77,462,150,463.78,150,670.89s239.12,199,269.12,199c57.56,0,163.43.1,197.57-115.38l30.72,40.8,14.4,19.13,0,0c1.55,1.8,3.11,3.54,4.68,5.2C709.38,865.23,756.57,860,794.88,860V776C794.88,772,725.12,820,725.12,820ZM370,300c-26-66-22-112,20-130,59.81-25.63,120,35.25,120,88,0,134-87,159.17-87,159.17S396,366,370,300Zm4,540c-36,0-80-65.34-80-180S410,480,410,480L510,630C490,671.51,416.65,840,374,840Z"/><path class="a" d="M666.52,819.67,666,820l-4.16-5.53C663.39,816.27,665,818,666.52,819.67Z"/></svg>