<svg xmlns="http://www.w3.org/2000/svg" width="1000" height="1000" viewBox="0 0 1000 1000"><defs><style>.a,.b{fill:#1d1d1b;}.b{fill-rule:evenodd;}</style></defs><path class="a" d="M170,825q0-18.21,13.38-31.61T215,780q18.19,0,31.6,13.39T260,825q0,18.22-13.4,31.61T215,870q-18.23,0-31.62-13.39T170,825Z"/><path class="a" d="M180,660,164,336,150,140H290l2,190L256,660Z"/><path class="a" d="M540,825q0-18.21,13.38-31.61T585,780q18.19,0,31.6,13.39T630,825q0,18.22-13.4,31.61T585,870q-18.22,0-31.62-13.39T540,825Z"/><path class="b" d="M408,180l40,142h80s-44-147,52-152c53.87-2.81,111.08,51,108,118-2.41,52.41-33.64,114.43-185,182l33,180h74l-3-142s177,10,177-222c0-124.94-93.39-156.65-188-156C514.9,130.57,432.92,153.24,408,180Z"/></svg>