<svg xmlns="http://www.w3.org/2000/svg" width="1000" height="1000" viewBox="0 0 1000 1000"><defs><style>.a{fill:#1d1d1b;}</style></defs><path class="a" d="M500,180.57c176.42,0,319.43,143,319.43,319.43S676.42,819.43,500,819.43,180.57,676.42,180.57,500,323.58,180.57,500,180.57M500,130a369,369,0,1,0,144,29.1A367.7,367.7,0,0,0,500,130Z"/><path d="M606.48,678.3c19.24,14.75,37.84-12.19,37.84-12.19h6.42l-6.42,68.64c.22-1-48.53,8-83.38-10.91C507.74,695,453.18,516.66,448,497.42h-21.8l32.07,232.2h-109l12.83-461.83H509.62c59,0,109,40.5,109,115.45,0,72.25-37.27,114.18-107.11,114.18H471.78s12.18,20.52,63.5,20.52c0,0,51.31,146.25,71.2,160.36ZM458.31,287.67c0,43-32.07,130.21-32.07,191.79l31.43.64c53.57,0,78.89-41.69,78.89-95.57,0-55.81-21.17-96.86-78.25-96.86Z"/></svg>