<svg xmlns="http://www.w3.org/2000/svg" width="1000" height="1000" viewBox="0 0 1000 1000"><defs><style>.a{fill:#1d1d1b;fill-rule:evenodd;}</style></defs><path class="a" d="M758,417H286l-26,62H736Z"/><path class="a" d="M758,549H286l-26,62H736Z"/><path class="a" d="M361.06,500.76q0,179.6,68.31,277.43,33.15,48.43,81.37,70.13T622.25,870q51.22,0,96.43-13.1A241,241,0,0,0,759.51,841l16.55-90.8c-4.23,2.73-5.54,3.34-9.6,6.21q-13.17,9.27-25.17,19.49-17.58,14.92-34.16,27.42c-11,8.3-22.52,18.44-33.57,24.08-2.85,1.45-6.4,3.38-10.5,5.19a45.64,45.64,0,0,1-8.5,3.14l-.4.12a43.63,43.63,0,0,1-20.34,1.12c-50.72-6.43-95.63-104.11-113.3-201.19a750,750,0,0,1-12.15-135.48v-.52a750,750,0,0,1,12.15-135.48c17.67-97.08,62.58-194.76,113.3-201.19a43.63,43.63,0,0,1,20.34,1.12l.4.12a45.64,45.64,0,0,1,8.5,3.14c4.1,1.81,7.65,3.74,10.5,5.19,11.05,5.64,22.52,15.78,33.57,24.08s22.44,17.47,34.16,27.42q12,10.2,25.17,19.49c4.06,2.87,5.37,3.48,9.6,6.21L759.51,159a241,241,0,0,0-40.83-15.94Q673.48,130,622.25,130q-63.3,0-111.51,21.68t-81.37,70.13Q361,319.66,361.06,499.24Z"/></svg>