<svg xmlns="http://www.w3.org/2000/svg" width="1000" height="1000" viewBox="0 0 1000 1000"><defs><style>.a{fill:#1d1d1b;}</style></defs><path class="a" d="M260,448v64s86-4.8,86,62.37-66,92.76-66,193.51C280,889.42,500,880,500,880l-30-64.15s-130,44.78-130-32,110-112,110-207.9c0-70.37-140-94.36-140-94.36v-3.2s140-24,140-94.36c0-96-110-131.14-110-207.9s130-32,130-32L500,80S280,70.58,280,192.13c0,100.75,66,126.34,66,193.51S260,448,260,448v0Z"/><path class="a" d="M830,512V448s-86,4.8-86-62.37,66-92.76,66-193.51C810,70.58,590,80,590,80l30,64.15s130-44.78,130,32S640,288.09,640,384c0,70.37,140,94.36,140,94.36v3.2s-140,24-140,94.36c0,95.95,110,131.14,110,207.9s-130,32-130,32L590,880s220,9.42,220-112.13c0-100.75-66-126.34-66-193.51S830,512,830,512v0Z"/></svg>