<svg xmlns="http://www.w3.org/2000/svg" width="1000" height="1000" viewBox="0 0 1000 1000"><defs><style>.a{fill:#1d1d1b;}</style></defs><path class="a" d="M733.38,603a186.74,186.74,0,0,0-47-62,158.53,158.53,0,0,0-32.5-23.5,256.06,256.06,0,0,0-37.5-16.5q-42-15-92-15t-92,15c-8.75,2.92-22.38,9-22.38,9,0-52.44-1.73-125.17,16.59-187.21C453.55,231.5,500.7,171.14,518,170l42,110H680V170c-.08-.07-67.29-9.2-79.57-14.73C587.7,149.54,524.72,132.38,510,130c-54.77,0-71.19,4.73-103.34,21.23s-59.61,41.91-82.37,76.27Q293.14,276,276.57,343.68T260,500.26q0,179.84,68.31,277.81,33.15,48.49,81.37,70.22C441.82,862.77,477.8,870,520,870h4.38a301.72,301.72,0,0,0,92-14q41-14,70-39a232.28,232.28,0,0,0,27-27.5,148.1,148.1,0,0,0,20-31.5q17-34,17-76Q750.38,642,733.38,603ZM632.21,702.55a169.26,169.26,0,0,1-3.61,31.08,275.37,275.37,0,0,1-6.42,27.86,174.63,174.63,0,0,1-9.9,26.23,135,135,0,0,1-30.16,40.52C569.57,839,556.48,844.46,542.38,846a80.44,80.44,0,0,1-14,.33h0c-.75-.11-1.42-.21-2-.33C475.66,839.57,427.67,707.21,410,610c0,0,13.26-27.15,19.59-39.73q12-25.46,30-42.5,18.91-15.13,41.71-17.63,21.15-2.31,43.84,9.29a143.23,143.23,0,0,1,40.15,35.85,204.32,204.32,0,0,1,29.68,53.09Q627.44,640.2,630.71,670A251.13,251.13,0,0,1,632.21,702.55Z"/></svg>