<svg xmlns="http://www.w3.org/2000/svg" width="1000" height="1000" viewBox="0 0 1000 1000"><defs><style>.a{fill:#1d1d1b;}</style></defs><path class="a" d="M549.05,346.84,632,424l-70,36-51.94-96-2,2.56c-16.44,38-39.57,72.8-72.09,93.44l-52-36,86-76.41A330.22,330.22,0,0,1,366,320l20-76,104,60L470,184l78-.52a631,631,0,0,1-18.56,119.69L632,244l22,76S611.48,339.76,549.05,346.84Z"/><path class="a" d="M775.05,786.84,858,864l-70,36-51.94-96-2,2.56c-16.44,38-39.57,72.8-72.09,93.44l-52-36,86-76.41A330.22,330.22,0,0,1,592,760l20-76,104,60L696,624l78-.52a631,631,0,0,1-18.56,119.69L858,684l22,76S837.48,779.76,775.05,786.84Z"/><path class="a" d="M325.05,786.84,408,864l-70,36-51.94-96-2,2.56c-16.44,38-39.57,72.8-72.09,93.44l-52-36,86-76.41A330.22,330.22,0,0,1,142,760l20-76,104,60L246,624l78-.52a631,631,0,0,1-18.56,119.69L408,684l22,76S387.48,779.76,325.05,786.84Z"/></svg>