<svg xmlns="http://www.w3.org/2000/svg" width="1000" height="1000" viewBox="0 0 1000 1000"><defs><style>.a{fill:#1d1d1b;}</style></defs><path class="a" d="M666.14,222.12Q601.61,131.86,481.87,130a302,302,0,0,0-87.19,14q-41.21,14.07-70.36,39.2a233,233,0,0,0-27.13,27.64,148.55,148.55,0,0,0-20.1,31.66Q260,276.72,260,319q0,40.2,17.09,79.4a187.54,187.54,0,0,0,47.23,62.32A160.44,160.44,0,0,0,348,479q4.39,2.79,9,5.28a257.11,257.11,0,0,0,37.69,16.58q42.21,15.08,92.47,15.08t92.46-15.08c8-2.66,17.35-6.06,26.37-9.71A223.49,223.49,0,0,0,630,480c-1.36,12.64-9.5,25.82-10.31,35A747.08,747.08,0,0,1,595.9,647.94c-.38,1.4-.78,2.79-1.18,4.19-20.2,70.25-64.57,142.8-106.56,175.1-13.73,10.56-27.2,16.82-39.49,17.29-7.35.78-27.66-.71-33.57-3-.14,0-5-1.51-5.1-1.56V740H310l16.53,67.9c12.27,7.57,91.47,57.8,125.19,60.77q14.05,1.25,27.45,1.32,67.57-.45,117.24-28.29,29.57-17.58,53.74-47,29.93-35.77,50.48-85Q732,625.08,732,498.49,732,314.25,666.14,222.12Zm-61.3,224c-18.64,22.85-48.81,45.6-94.45,45.6-14.25,0-28.85-1.57-44.06-9.34a144.07,144.07,0,0,1-40.35-36A205.77,205.77,0,0,1,396.15,393c-8.4-21.33-17.38-43-17.38-94.66a201.79,201.79,0,0,1,5.71-48.74c11-44.57,35.12-68.87,44.63-77.59,12.62-10.82,25.77-16.3,39.95-17.85a73.85,73.85,0,0,1,46.05,9.47,186.21,186.21,0,0,1,21.48,14.84,113.6,113.6,0,0,1,18.65,19.2C608,260,630,310,630,400,630,402,622.78,424.07,604.84,446.09Z"/></svg>