<svg xmlns="http://www.w3.org/2000/svg" width="1000" height="1000" viewBox="0 0 1000 1000"><defs><style>.a{fill:#1d1d1b;}</style></defs><path class="a" d="M633,675.74c-77.41-.11-133.34-82.3-133.21-174.93s55.8-177,133.21-176.92,137.1,83.29,137,175.92S710.44,675.85,633,675.74Zm86.06-165.15c6.66-51.27-25.94-84.41-74.42-90.7S557.52,436,550.63,489c-6.36,49,23.19,83.23,71.67,89.52S712.66,560.18,719.09,510.59Z"/><path class="a" d="M393,675.74c-77.41-.11-133.34-82.3-133.21-174.93s55.8-177,133.21-176.92,137.1,83.29,137,175.92S470.44,675.85,393,675.74Zm89.45-160.92c8.81-51-24.05-85.72-74.48-94.45s-91.67,11.71-100.79,64.43c-8.42,48.68,21.22,84.4,71.65,93.13S474,564.09,482.48,514.82Z"/></svg>