<svg xmlns="http://www.w3.org/2000/svg" width="1000" height="1000" viewBox="0 0 1000 1000"><defs><style>.a{fill:#1d1d1b;}</style></defs><path class="a" d="M260,825q0-18.21,13.38-31.61T305,780q18.19,0,31.6,13.39T350,825q0,18.22-13.4,31.61T305,870q-18.22,0-31.62-13.39T260,825Z"/><path class="a" d="M616,595q0-18.21,13.38-31.61T661,550q18.19,0,31.6,13.39T706,595q0,18.22-13.4,31.61T661,640q-18.22,0-31.62-13.39T616,595Z"/><path d="M418.21,940.94s100-18.83,100-160H432.88v75.29s72,9.41-14.67,65.88Z"/><path d="M606,940.94s100-18.83,100-160H620.67v75.29s72,9.41-14.67,65.88Z"/><path d="M488,450s150-20,150-170H510v80s108,10-22,70Z"/><polygon points="327 450 363 450 390 280 300 280 327 383.89 327 450"/></svg>