<svg xmlns="http://www.w3.org/2000/svg" width="1000" height="1000" viewBox="0 0 1000 1000"><defs><style>.a{fill:#1d1d1b;}</style></defs><path class="a" d="M606.07,803.19C595,811.5,583.55,821.65,572.5,827.3c-2.85,1.45-6.4,3.39-10.5,5.2a45.64,45.64,0,0,1-8.5,3.14l-.4.12a43.37,43.37,0,0,1-20.34,1.12c-34.67-4.39-80.55-49-106.12-152.83L589.18,183.68c5.67,4.31,11.33,8.95,16.89,13.13q16.57,12.48,34.16,27.46,12,10.22,25.17,19.51c4.06,2.88,5.37,3.49,9.6,6.22l-16.55-90.92a240.23,240.23,0,0,0-40.83-16q-7-2-14.06-3.73L630,58H590l-24.24,74.62A372.74,372.74,0,0,0,521.19,130q-63.3,0-111.51,21.71t-81.37,70.22Q260,319.91,260,499.74v.52q0,179.84,68.31,277.81a227.89,227.89,0,0,0,19.68,25L310,920h40l29-89.31a179.47,179.47,0,0,0,30.67,17.6Q457.89,870,521.19,870q51.22,0,96.43-13.12A259.94,259.94,0,0,0,660,840l20-90C675.77,752.73,617.12,794.87,606.07,803.19Zm-198.76-303C407.31,262,482,169.55,532.76,163.12a43.37,43.37,0,0,1,20.34,1.12l.4.12c.6.16,1.2.33,1.79.51L412.72,603.77A937.68,937.68,0,0,1,407.31,500.24Z"/></svg>