<svg xmlns="http://www.w3.org/2000/svg" width="1000" height="1000" viewBox="0 0 1000 1000"><defs><style>.a{fill:none;}.b{fill:#1d1d1b;}</style></defs><path class="a" d="M330.1,829.52c0,.5-.07,1-.1,1.48"/><path class="b" d="M640,150v60c-30,62-63.34,124.34-88,193q-16,44-31,94.5T493.5,603q-12.51,55-21,112.5c-4.16,28.11-6.68,56.21-8.5,84.5l76,40v20H260V800l70,31a1007.44,1007.44,0,0,1,12-102.5q9-53.49,22-108t29-107Q409,461,426,413c25.33-74.66,52.66-150.33,84-223L372,200c-25.32,29.79-57,75-102,140H260l20-200Z"/></svg>