<svg xmlns="http://www.w3.org/2000/svg" width="1000" height="1000" viewBox="0 0 1000 1000"><defs><style>.a{fill:#1d1d1b;}</style></defs><path class="a" d="M500,180.57c176.42,0,319.43,143,319.43,319.43S676.42,819.43,500,819.43,180.57,676.42,180.57,500,323.58,180.57,500,180.57M500,130a369,369,0,1,0,144,29.1A367.7,367.7,0,0,0,500,130Z"/><path d="M627.21,660.15l-11.65,58.24c-23.16,12.47-56.69,19.41-89.95,19.41-60.35,0-98.94-21.14-124.89-58.88-29.12-42.71-44-102.24-44-179.89,0-74.21,12.89-133.2,41.41-176.66C424.84,282.9,465.43,259,519.79,259c9.9,0,49.18,12.94,56.94,16.83L627.21,281s2.43,65.93,2.58,75.07H549.55L525,284.84c-11,.64-42.71,40.12-60.18,99-12.3,40.12-11,80.89-11,114.54,0,32.35.91,61.54,5.83,88,17.52,94.25,44.92,156.27,121,108.72C591,688.62,627.21,660.15,627.21,660.15Z"/></svg>