<svg xmlns="http://www.w3.org/2000/svg" width="1000" height="1000" viewBox="0 0 1000 1000"><defs><style>.a{fill:#1d1d1b;}</style></defs><path class="a" d="M684,795.16a518.21,518.21,0,0,1-4-66.3v-210q0-198.9-184.84-198.9-8.38,0-16.86.42-59.58,2.91-123.06,26.37l-2.37,1.35c-.75.16-1.55.3-2.4.43-16.76,2.63-51.87.62-64.39,5.31V469.27H401c16.9-45.5-31.58-99.11-9.42-104.78C516.59,332.5,561,385,561,485c0,35,.38,49.79.38,51l-52.23,5q-33.15,2-60.28,6a380.66,380.66,0,0,0-48.22,10.05A337,337,0,0,0,358,571.14a140.88,140.88,0,0,0-33.65,19.09,177.63,177.63,0,0,0-29.14,23.1c-8,8-35.16,35.67-35.16,101.47q0,33.15,10.55,61.27a125.7,125.7,0,0,0,33.65,49.23q48.22,44.22,107.49,44.2c81,0,129.59-39.68,159.73-69.82C578.51,822.5,591,860,591,860H694C690,840.58,686.62,815.93,684,795.16ZM561.39,708.77A334.25,334.25,0,0,1,537.53,750a156.75,156.75,0,0,1-27.9,31.14q-28.23,25.13-57.13,25.11a96.47,96.47,0,0,1-27.23-4q-13.78-4-26.55-21.09Q386.61,764,383.6,745.94a224.57,224.57,0,0,1-3-37.17,174.5,174.5,0,0,1,5.71-42.7q5.72-22.59,18.49-36.66,12.11-17.07,26.89-27.13a135.28,135.28,0,0,1,28.23-15.06q14.12-6,39-9.55t62.51-9.54Z"/></svg>