<svg xmlns="http://www.w3.org/2000/svg" width="1000" height="1000" viewBox="0 0 1000 1000"><defs><style>.a{fill:#1d1d1b;}</style></defs><path class="a" d="M380,562,253,460l17,160H190l18-160L90,560,50,490l143-70L50,350l40-70L208,381,190.55,220H270L253,380,380,270l40,70L270,420l150,70Z"/><path class="a" d="M680,460.07v.1L680,460Z"/><path class="a" d="M740,420l150,70-40,70L721,460l.24,2.22A352.89,352.89,0,0,1,740,620H660s-11.44-74.14,19.94-159.83L680,460l0,.07C652.9,495.51,612.8,531.94,560,560l-40-70,141-70L520,350l40-70s63.57,30.61,116,100L660,220h80L720,380c28.63-38.38,72.75-77.92,130-110l40,70Z"/></svg>