<svg xmlns="http://www.w3.org/2000/svg" width="1000" height="1000" viewBox="0 0 1000 1000"><defs><style>.a{fill:#1d1d1b;}</style></defs><path class="a" d="M260.35,459q-2-35,7.5-64.5t28-50.5q18.5-21,46-33t61.5-12a150.64,150.64,0,0,1,65.5,15,536.43,536.43,0,0,1,59.5,33q28,18,53,33t47,15q12,0,29-8.5a144,144,0,0,0,32-22,146.06,146.06,0,0,0,26-31q11-17.49,12-36.5h58q2,74-35,113.5t-109,39.5a161.54,161.54,0,0,1-68.5-15,583.79,583.79,0,0,1-61-32.5Q483.35,385,459.35,370t-44-15q-14,0-30,10a153,153,0,0,0-30.5,25.5,197,197,0,0,0-25.5,34q-11,18.51-13,34.5Z"/><path class="a" d="M260.35,660q-2-35,7.5-64.5t28-50.5q18.5-21,46-33t61.5-12a150.64,150.64,0,0,1,65.5,15,536.43,536.43,0,0,1,59.5,33q28,18,53,33t47,15q12,0,29-8.5a144,144,0,0,0,32-22,146.06,146.06,0,0,0,26-31q11-17.49,12-36.5h58q2,74-35,113.5t-109,39.5a161.54,161.54,0,0,1-68.5-15,583.79,583.79,0,0,1-61-32.5Q483.35,586,459.35,571t-44-15q-14,0-30,10a153,153,0,0,0-30.5,25.5,197,197,0,0,0-25.5,34q-11,18.51-13,34.5Z"/></svg>