<svg xmlns="http://www.w3.org/2000/svg" width="1000" height="1000" viewBox="0 0 1000 1000"><defs><style>.a{fill:#1d1d1b;}</style></defs><path class="a" d="M790,540.43,790.45,422,70,540V642l371.92-98.29Z"/><path class="a" d="M271.39,476c-70.75-.1-120.76-77.23-120.64-161.89s50.36-164.1,121.11-164S396.12,229.79,396,314.46,342.15,476.1,271.39,476Zm97.82-164.19c.07-47.25-41-72.13-95.51-72.2s-95.36,25.64-95.43,74.54C178.2,359.3,217,386,271.52,386S369.15,357.51,369.21,311.81Z"/><path class="a" d="M630.14,931.89c-70.75-.1-120.76-77.23-120.64-161.89s50.36-164.1,121.11-164,124.26,79.69,124.14,164.35S700.9,932,630.14,931.89ZM728,767.71c.07-47.26-41-72.13-95.51-72.21S537.09,721.14,537,770c-.06,45.16,38.72,71.81,93.26,71.89S727.9,813.41,728,767.71Z"/><path class="a" d="M340.64,931.89C269.89,931.79,219.88,854.66,220,770s50.36-164.1,121.11-164,124.26,79.69,124.14,164.35S411.4,932,340.64,931.89Zm97.82-164.18c.07-47.26-41-72.13-95.51-72.21S247.59,721.14,247.52,770c-.07,45.16,38.71,71.81,93.25,71.89S438.4,813.41,438.46,767.71Z"/></svg>