<svg xmlns="http://www.w3.org/2000/svg" width="1000" height="1000" viewBox="0 0 1000 1000"><defs><style>.a{fill:#1d1d1b;}</style></defs><path class="a" d="M830,680c0,190-153.61,190-206,190-49.49,0-93-12.42-134-30l20-110c39.07,18.89,82.94,30.71,122,30.71,76,0,158-30.71,158-80.71,0-62.68-98-60-160-80-44.76-14.44-190-46-190-148S572.83,350.3,620,290c36-46,6.78-130-100-130s-124.3,136.84-124.3,185.65L400,860H200V800l60,40V328.55C260,150,457.49,130,520,130c119.47,0,210,62,210,160,0,164-250,66.54-250,160,0,53.46,143.25,20,200,20C838.12,470,830,598.74,830,680Z"/></svg>