<svg xmlns="http://www.w3.org/2000/svg" width="1000" height="1000" viewBox="0 0 1000 1000"><path d="M704,500c0,155.07-31,290.58-128,346-27,16-59,24-95,24-82.76,0-129.86-40.53-165-95-40.83-68.77-56-163.28-56-276,0-119,19-211,56-274,38-64,93-95,165-95,172.82,0,223,183.37,223,370ZM473,818c11.52,13.29,24.52,21.71,37,22,16.44.38,32-12,42-32,22.2-44.4,27-110.06,27-183-3.14-131.69-19.35-281.39-56-378-10-29-22-51-35-66-25.86-30.17-60.88-23.24-78,11-24.16,41.07-27,111.17-27,181,3.12,131,20.94,280.23,55,379,10,29,22,51,35,66Z"/></svg>