<svg xmlns="http://www.w3.org/2000/svg" width="1000" height="1000" viewBox="0 0 1000 1000"><defs><style>.a,.b{fill:#1d1d1b;}.a{fill-rule:evenodd;}</style></defs><polygon class="a" points="710 550 290 560 290 460 710 460 710 550"/><path class="b" d="M450,355q0-18.21,13.38-31.61T495,310q18.19,0,31.6,13.39T540,355q0,18.22-13.4,31.61T495,400q-18.22,0-31.62-13.39T450,355Z"/><path class="b" d="M450,654.5q0-18.21,13.38-31.61T495,609.5q18.19,0,31.6,13.39T540,654.5q0,18.22-13.4,31.61T495,699.5q-18.22,0-31.62-13.39T450,654.5Z"/></svg>