<svg xmlns="http://www.w3.org/2000/svg" width="1000" height="1000" viewBox="0 0 1000 1000"><path d="M605.42,680c0-80-30-170-30-170l100,50h10V420h-10l-116,54,16-304,202,84-4-114h-338c-69,.62-121.77,30.8-158.35,92.42-36,61.3-54.49,150.81-54.49,266.6,0,109.67,14.76,201.63,54.49,268.54C311,820.08,356.26,859.28,435.43,860c.72,0,1.45,0,2.18,0H773.42l4-116-202,86C575.89,828.91,605.42,759.38,605.42,680ZM460,763.42C455.58,788.13,453,816,441.36,816c-3.12,0-6.9-2-11.54-6.61-12.65-14.6-24.32-36-34.05-64.22-33.14-96.1-50.48-241.34-53.51-368.76,0-67.94,2.76-136.14,26.27-176.11C385.19,167,434.58,158,440.58,210c8.52,126,24.84,383.2,24.84,470A615.55,615.55,0,0,1,460,763.42Z"/><path d="M437.61,860h-2.19v0C436.15,860,436.88,860,437.61,860Z"/><path d="M437.61,140h0Z"/></svg>