<svg xmlns="http://www.w3.org/2000/svg" width="1000" height="1000" viewBox="0 0 1000 1000"><defs><style>.a{fill:#1d1d1b;}</style></defs><path d="M678,670l-18,90c-35.79,19.27-87.6,30-139,30-93.27,0-152.91-32.68-193-91-45-66-68-158-68-278,0-114.67,19.92-205.84,64-273,41.26-61,104-98,188-98,15.3,0,76,20,88,26l78,8s3.75,101.89,4,116H558L520,90c-17,1-66,62-93,153-19,62-17,125-17,177,0,50,1.4,95.11,9,136,27.08,145.64,69.41,241.49,187,168C622,714,678,670,678,670Z"/><path class="a" d="M507.38,772l-6.47,12.92q24.26,4,50.92,10a307.62,307.62,0,0,1,47.68,14.43q21,8.41,34.75,19.37T648,851.55q0,43.73-53.34,70.59Q539.68,948,458.89,948A554.09,554.09,0,0,1,391,944V878c21.54,2,196.11-12.34,213.36-31q-30.72-7-55-11t-53.34-7a537.17,537.17,0,0,0-54.95-3l30.71-56Z"/></svg>