<svg xmlns="http://www.w3.org/2000/svg" width="1000" height="1000" viewBox="0 0 1000 1000"><defs><style>.a{fill:#000100;}.b{fill:#1d1d1b;}</style></defs><path class="a" d="M638.17,323.92l-37.62-9.06s-48.08-117.7-75.24-117.7c-35.13,0-55.67-1.09-75.23,27.16-18.81,27.17-28.22,75.74-28.22,108.65,0,39,25.83,77.28,83.78,106.86q64.22,32.93,85,45.74t42.21,35.21a174.93,174.93,0,0,1,34.38,52.82q13,30.4,13,68.37c0,62.81-19.17,103.57-60.86,143.71C562.93,840,472.7,840,421.1,840c-50,0-93.31-14.27-130.91-36.22l9.41-99.59,37.62,9s59.18,99.6,82.3,99.6c38.44,0,68.17-18.11,92.38-45.49,23.4-26.48,32.22-78.77,32.22-117.49,0-28.66,0-54.32-18.81-72.43S453.08,525.73,412.46,505c-41.73-21.35-77.28-49.63-89.36-63.34a151.87,151.87,0,0,1-28-46.19q-9.89-25.59-9.89-55.78,0-80,51.88-124.87T468.45,170C507.16,170,657,188.11,657,188.11Z"/><polygon class="b" points="460 180 460 50 570 40 550 180 460 180"/><polygon class="b" points="510 810 509.68 900 409.68 910 420 820 510 810"/></svg>