<svg xmlns="http://www.w3.org/2000/svg" width="1000" height="1000" viewBox="0 0 1000 1000"><defs><style>.a{fill:#1d1d1b;}</style></defs><path class="a" d="M514.93,130q123.35,0,189.21,92.12T770,498.49q0,181.23-64.29,276.37T514.93,870q-126.49,0-190.77-95.14T259.87,498.49q0-181.23,65.33-274.86T514.93,130Zm0,698q32.27,0,56.26-24.16t40.13-67.57q16.14-43.39,24.41-104.08T644,498.52q0-72-8.27-132.18T611.32,262.76q-16.14-43.41-40.13-67.08T514.93,172q-33.09,0-57.5,23.68t-40.12,67.08q-15.74,43.41-23.58,103.58t-7.86,132.18q0,73,7.86,133.67t23.58,104.08q15.7,43.41,40.12,67.57T514.93,828Z"/><rect class="a" x="460" y="448" width="110" height="100" rx="46.09"/></svg>