<svg xmlns="http://www.w3.org/2000/svg" width="1000" height="1000" viewBox="0 0 1000 1000"><defs><style>.a{fill:#1d1d1b;}</style></defs><path class="a" d="M561.48,546l3.39-11.59Q563.13,540.22,561.48,546Z"/><path class="a" d="M299.08,727.8c-172.81-229.29-15.57-628.72,342-602C863.36,151.47,810,384,810,384c-416.28,712.75-60-84-60-84l-80.27-44.21s-20,36.31-43.72,90.93c-18.92-33.15-49.21-64-97.36-64.26C384.56,279.81,293.44,439.61,311.36,564c7.09,81.43,62.44,122.66,126,122.83,38.48.11,81.49-26.74,117.81-60.65,2.12,41.68,14.8,76.95,43.95,98.63,133.05,98.93,278-342.88,278-342.88,19.49-45.52,52-282.75-214.42-303.47C-71,53.66-59,1113.85,610.09,891.22c181.34-60.34,272.79-255.31,272.79-255.31l-31.57-40.48C663.06,932.82,422.57,870.28,299.08,727.8ZM564.87,534.37,561.48,546c-17.24,60-68,120.42-97.84,118.1-30.15-2.34-51.71-39.29-38-121.64,8.74-58.63,24.94-122.35,56.36-177.94,17-28.67,39.16-61.42,67.74-59.86,25.35,2.44,48.07,60.73,54.84,94.57l-.3.77L565.08,533.68Z"/></svg>