<svg xmlns="http://www.w3.org/2000/svg" width="1000" height="1000" viewBox="0 0 1000 1000"><defs><style>.a{fill:#1d1d1b;}</style></defs><path class="a" d="M717.07,506.2c.08-59-14.78-116.58-40.54-164.44L730,290l-50-50-39.71,49.13c-37.13-42.37-85.37-69-139.39-69.13-54.77-.08-102.48,27.21-138.6,70.51L320,240l-50,50L327.5,344C303.62,391.2,290.08,447.69,290,505.58c-.08,57.12,12.94,112.27,36.1,158.41L270,710l50,60,41.88-51.4c36,42.33,83.53,68.82,138.2,68.9,54.38.08,103-26,140.33-67.81L680,770l50-60-52.23-44.15C702.61,619.51,717,563.88,717.07,506.2ZM500.31,630.85c-95-.14-162.51-46.56-162.4-125.2.13-85.14,71.2-129.93,166.19-129.8S670.54,419.3,670.42,501.59C670.31,581.17,595.3,631,500.31,630.85Z"/></svg>