<svg xmlns="http://www.w3.org/2000/svg" width="1000" height="1000" viewBox="0 0 1000 1000"><path d="M720,648c0,16.72-2.79,32.26-6.33,47C698,760,640,870,383,870c-44.48,0-81.8-11.25-113-20-3.07-47.19-6.93-102.81-10-150h30L400,820c97,0,170-51.77,170-164,0-89-67.9-129.22-118-151-17.66-7.68-38-12.53-62-15l6.37-32.69C457,454.6,530,440.78,530,312c0-26.62-3.22-50.86-9.76-71.89l0-.08a150.78,150.78,0,0,0-12.45-29.24c-19.8-37.15-50.43-62-81.76-57.87a41.45,41.45,0,0,0-17.5,6.72C363.79,189,350,300,350,300l-60,10V160l128-30c107.19,0,237.29,23.75,241.89,177.64q.2,6,.11,12.36c-1,78-45,138-130,150C642.14,500,720,536,720,648Z"/></svg>